<svg width="643.0625px" height="75.19999999999999px" xmlns="http://www.w3.org/2000/svg" viewBox="-71.53125 37.400000000000006 643.0625 75.19999999999999" style="background: none;" preserveAspectRatio="xMidYMid"><defs><filter id="editing-hover" x="-100%" y="-100%" width="300%" height="300%"><feFlood flood-color="#d88c51" result="flood"></feFlood><feComposite operator="in" in2="SourceAlpha" in="flood" result="shadow"></feComposite><feOffset dx="-0.6" dy="0" in="SourceGraphic" result="offset-1"></feOffset><feOffset dx="0.6" dy="0" in="shadow" result="offset-2"></feOffset><feMerge><feMergeNode in="offset-2"></feMergeNode><feMergeNode in="offset-1"></feMergeNode></feMerge></filter></defs><g filter="url(#editing-hover)"><g transform="translate(21.444983273744583, 90.02999973297119)"><path d="M27-0.30L27-0.30L27.48-0.30L27.48 0L20.97 0L20.97-0.27L21.42-0.27L21.42-0.27Q21.93-0.27 22.29-0.67L22.29-0.67L22.29-0.67Q22.65-1.08 22.59-1.56L22.59-1.56L21.24-16.65L14.94-2.64L14.94-2.64Q14.10-0.81 13.92 0.42L13.92 0.42L13.62 0.42L5.94-16.23L4.65-1.56L4.65-1.56Q4.59-1.08 4.95-0.67L4.95-0.67L4.95-0.67Q5.31-0.27 5.79-0.27L5.79-0.27L6.27-0.27L6.27 0L0.45 0L0.45-0.30L0.93-0.30L0.93-0.30Q1.77-0.30 2.38-0.81L2.38-0.81L2.38-0.81Q3-1.32 3.12-2.19L3.12-2.19L5.37-21.42L5.67-21.42L14.04-3.33L22.23-21.42L22.50-21.42L24.81-2.19L24.81-2.19Q24.96-0.99 26.01-0.51L26.01-0.51L26.01-0.51Q26.46-0.30 27-0.30ZM47.73-0.30L47.73-0.30L47.97-0.30L47.97 0L41.82 0L41.82-0.30L42.06-0.30L42.06-0.30Q42.63-0.30 42.93-0.69L42.93-0.69L42.93-0.69Q43.23-1.08 43.23-1.43L43.23-1.43L43.23-1.43Q43.23-1.77 43.11-2.10L43.11-2.10L41.46-6.09L33.87-6.09L32.22-2.19L32.22-2.19Q32.07-1.80 32.07-1.45L32.07-1.45L32.07-1.45Q32.07-1.11 32.37-0.70L32.37-0.70L32.37-0.70Q32.67-0.30 33.27-0.30L33.27-0.30L33.51-0.30L33.51 0L27.78 0L27.78-0.30L28.02-0.30L28.02-0.30Q28.65-0.30 29.29-0.73L29.29-0.73L29.29-0.73Q29.94-1.17 30.36-2.04L30.36-2.04L30.36-2.04Q36.93-16.08 37.20-16.74L37.20-16.74L37.20-16.74Q37.71-18 37.74-18.42L37.74-18.42L38.01-18.42L45.42-2.04L45.42-2.04Q46.29-0.30 47.73-0.30ZM37.74-15.21L34.26-6.99L41.10-6.99L37.74-15.21ZM55.08-17.07L55.08-17.07L53.49-17.07L53.49-1.92L53.49-1.92Q53.52-0.99 54.33-0.51L54.33-0.51L54.33-0.51Q54.72-0.30 55.20-0.30L55.20-0.30L55.59-0.30L55.62 0L49.47 0L49.47-0.30L49.89-0.30L49.89-0.30Q50.58-0.30 51.08-0.77L51.08-0.77L51.08-0.77Q51.57-1.23 51.57-1.89L51.57-1.89L51.57-16.14L51.57-16.14Q51.57-16.80 51.08-17.25L51.08-17.25L51.08-17.25Q50.58-17.70 49.89-17.70L49.89-17.70L49.47-17.70L49.47-18L57-18L57-18Q59.82-18 61.45-16.71L61.45-16.71L61.45-16.71Q63.09-15.42 63.09-13.32L63.09-13.32L63.09-13.32Q63.09-11.22 61.77-9.81L61.77-9.81L61.77-9.81Q60.45-8.40 58.41-8.19L58.41-8.19L58.41-8.19Q59.37-7.77 60.72-5.85L60.72-5.85L60.72-5.85Q60.69-5.85 61.75-4.53L61.75-4.53L61.75-4.53Q62.82-3.21 63.47-2.48L63.47-2.48L63.47-2.48Q64.11-1.74 64.53-1.35L64.53-1.35L64.53-1.35Q65.64-0.30 67.08-0.30L67.08-0.30L67.08 0L66.15 0L66.15 0Q63.78 0 62.43-0.93L62.43-0.93L62.43-0.93Q61.41-1.62 60.57-2.64L60.57-2.64L60.57-2.64Q60.39-2.88 59.05-4.75L59.05-4.75L59.05-4.75Q57.72-6.63 57.63-6.75L57.63-6.75L57.63-6.75Q56.01-8.76 54.60-8.76L54.60-8.76L54.60-9.06L54.60-9.06Q58.11-9.06 58.83-9.42L58.83-9.42L58.83-9.42Q59.82-9.93 60.18-10.50L60.18-10.50L60.18-10.50Q60.93-11.70 60.93-13.14L60.93-13.14L60.93-13.14Q60.93-14.97 59.85-15.96L59.85-15.96L59.85-15.96Q58.77-16.95 56.94-17.04L56.94-17.04L56.94-17.04Q56.13-17.07 55.08-17.07ZM68.28-0.30L68.70-0.30L68.70-0.30Q69.51-0.30 70.11-0.78L70.11-0.78L70.11-0.78Q70.71-1.26 70.71-1.92L70.71-1.92L70.71-16.08L70.71-16.08Q70.71-16.74 70.11-17.22L70.11-17.22L70.11-17.22Q69.51-17.70 68.67-17.70L68.67-17.70L68.28-17.70L68.28-18L75.06-18L75.06-17.70L74.67-17.70L74.67-17.70Q73.86-17.70 73.27-17.25L73.27-17.25L73.27-17.25Q72.69-16.80 72.63-16.14L72.63-16.14L72.63-1.89L72.63-1.89Q72.66-1.23 73.26-0.77L73.26-0.77L73.26-0.77Q73.86-0.30 74.67-0.30L74.67-0.30L75.06-0.30L75.09 0L68.28 0L68.28-0.30ZM96.51-0.30L96.51-0.30L96.75-0.30L96.75 0L90.60 0L90.60-0.30L90.84-0.30L90.84-0.30Q91.41-0.30 91.71-0.69L91.71-0.69L91.71-0.69Q92.01-1.08 92.01-1.43L92.01-1.43L92.01-1.43Q92.01-1.77 91.89-2.10L91.89-2.10L90.24-6.09L82.65-6.09L81-2.19L81-2.19Q80.85-1.80 80.85-1.45L80.85-1.45L80.85-1.45Q80.85-1.11 81.15-0.70L81.15-0.70L81.15-0.70Q81.45-0.30 82.05-0.30L82.05-0.30L82.29-0.30L82.29 0L76.56 0L76.56-0.30L76.80-0.30L76.80-0.30Q77.43-0.30 78.07-0.73L78.07-0.73L78.07-0.73Q78.72-1.17 79.14-2.04L79.14-2.04L79.14-2.04Q85.71-16.08 85.98-16.74L85.98-16.74L85.98-16.74Q86.49-18 86.52-18.42L86.52-18.42L86.79-18.42L94.20-2.04L94.20-2.04Q95.07-0.30 96.51-0.30ZM86.52-15.21L83.04-6.99L89.88-6.99L86.52-15.21ZM112.47-20.70L112.08-20.70L112.08-20.70Q111-20.70 110.43-19.77L110.43-19.77L110.43-19.77Q110.19-19.35 110.16-18.81L110.16-18.81L110.16 0L110.16 0Q110.16 2.52 108.58 4.26L108.58 4.26L108.58 4.26Q107.01 6 104.70 6L104.70 6L104.70 5.73L104.70 5.73Q106.17 5.22 107.19 3.52L107.19 3.52L107.19 3.52Q108.21 1.83 108.21-0.09L108.21-0.09L108.21-18.81L108.21-18.81Q108.18-19.59 107.63-20.14L107.63-20.14L107.63-20.14Q107.07-20.70 106.29-20.70L106.29-20.70L105.90-20.70L105.90-21L112.47-21L112.47-20.70ZM120.06-17.23L120.06-17.23L120.06-17.23Q122.37-18.42 125.14-18.42L125.14-18.42L125.14-18.42Q127.92-18.42 130.23-17.23L130.23-17.23L130.23-17.23Q132.54-16.05 133.91-13.89L133.91-13.89L133.91-13.89Q135.27-11.73 135.27-9L135.27-9L135.27-9Q135.27-6.27 133.91-4.11L133.91-4.11L133.91-4.11Q132.54-1.95 130.23-0.77L130.23-0.77L130.23-0.77Q127.92 0.42 125.49 0.42L125.49 0.42L125.49 0.42Q123.06 0.42 121.20-0.27L121.20-0.27L121.20-0.27Q119.34-0.96 117.97-2.19L117.97-2.19L117.97-2.19Q116.61-3.42 115.81-5.19L115.81-5.19L115.81-5.19Q115.02-6.96 115.02-9.34L115.02-9.34L115.02-9.34Q115.02-11.73 116.38-13.89L116.38-13.89L116.38-13.89Q117.75-16.05 120.06-17.23ZM119.50-2.86L119.50-2.86L119.50-2.86Q121.77-0.48 125.13-0.48L125.13-0.48L125.13-0.48Q128.49-0.48 130.77-2.86L130.77-2.86L130.77-2.86Q133.05-5.25 133.05-9L133.05-9L133.05-9Q133.05-12.75 130.77-15.13L130.77-15.13L130.77-15.13Q128.49-17.52 125.13-17.52L125.13-17.52L125.13-17.52Q121.77-17.52 119.50-15.13L119.50-15.13L119.50-15.13Q117.24-12.75 117.24-9L117.24-9L117.24-9Q117.24-5.25 119.50-2.86ZM138.48-0.99L138.48-0.99L138.48-0.99Q138.39-1.35 138.39-2.46L138.39-2.46L138.39-2.46Q138.39-3.57 138.78-4.71L138.78-4.71L139.14-4.71L139.14-4.71Q139.11-4.44 139.11-4.17L139.11-4.17L139.11-4.17Q139.11-2.55 140.18-1.51L140.18-1.51L140.18-1.51Q141.24-0.48 143.13-0.48L143.13-0.48L143.13-0.48Q145.11-0.48 146.22-1.40L146.22-1.40L146.22-1.40Q147.33-2.31 147.33-3.76L147.33-3.76L147.33-3.76Q147.33-5.22 146.25-6.18L146.25-6.18L140.25-10.80L140.25-10.80Q138.81-12.03 138.81-14.10L138.81-14.10L138.81-14.10Q138.81-15.27 139.46-16.26L139.46-16.26L139.46-16.26Q140.10-17.25 141.25-17.84L141.25-17.84L141.25-17.84Q142.41-18.42 143.97-18.42L143.97-18.42L143.97-18.42Q145.53-18.42 146.73-18.15L146.73-18.15L147.72-18.15L147.78-14.88L147.45-14.88L147.45-14.88Q147.45-16.14 146.58-16.83L146.58-16.83L146.58-16.83Q145.71-17.52 144.09-17.52L144.09-17.52L144.09-17.52Q142.47-17.52 141.42-16.70L141.42-16.70L141.42-16.70Q140.37-15.87 140.37-14.56L140.37-14.56L140.37-14.56Q140.37-13.26 141.54-12.30L141.54-12.30L147.60-7.62L147.60-7.62Q148.98-6.48 148.98-4.44L148.98-4.44L148.98-4.44Q148.98-2.40 147.44-0.99L147.44-0.99L147.44-0.99Q145.89 0.42 143.67 0.42L143.67 0.42L143.67 0.42Q142.20 0.42 140.73 0.06L140.73 0.06L140.73 0.06Q139.26-0.30 138.48-0.99ZM159.51-19.92L159.51-19.92L159.30-20.13L159.30-20.13Q161.58-22.59 163.11-24.06L163.11-24.06L163.11-24.06Q163.92-23.25 164.34-22.47L164.34-22.47L164.34-22.47Q162.39-21.36 159.51-19.92ZM152.25-0.30L152.67-0.30L152.67-0.30Q153.39-0.30 153.89-0.77L153.89-0.77L153.89-0.77Q154.38-1.23 154.41-1.89L154.41-1.89L154.41-16.14L154.41-16.14Q154.41-16.80 153.90-17.25L153.90-17.25L153.90-17.25Q153.39-17.70 152.67-17.70L152.67-17.70L152.25-17.70L152.25-18L161.01-18L161.01-18Q161.88-18 162.92-18.15L162.92-18.15L162.92-18.15Q163.95-18.30 164.37-18.48L164.37-18.48L164.37-15.09L164.04-15.09L164.04-15.54L164.04-15.54Q164.04-16.44 163.32-16.86L163.32-16.86L163.32-16.86Q162.99-17.07 162.54-17.07L162.54-17.07L156.30-17.07L156.30-9.45L161.43-9.45L161.43-9.45Q162.24-9.48 162.54-10.08L162.54-10.08L162.54-10.08Q162.66-10.38 162.66-10.71L162.66-10.71L162.66-11.10L162.99-11.10L162.99-6.90L162.66-6.90L162.66-7.29L162.66-7.29Q162.66-7.80 162.36-8.16L162.36-8.16L162.36-8.16Q162.06-8.52 161.52-8.55L161.52-8.55L156.30-8.55L156.30-0.93L161.01-0.93L161.01-0.93Q162.39-0.93 163.34-1.41L163.34-1.41L163.34-1.41Q164.28-1.89 164.78-2.55L164.78-2.55L164.78-2.55Q165.27-3.21 165.78-4.29L165.78-4.29L166.08-4.29L164.43 0L152.25 0L152.25-0.30ZM182.46-20.07L182.46-20.07L180.54-20.07L180.54-2.19L180.54-2.19Q180.54-1.41 181.10-0.85L181.10-0.85L181.10-0.85Q181.65-0.30 182.46-0.30L182.46-0.30L182.82-0.30L182.85 0L176.28 0L176.28-0.30L176.67-0.30L176.67-0.30Q177.45-0.30 178.01-0.84L178.01-0.84L178.01-0.84Q178.56-1.38 178.59-2.16L178.59-2.16L178.59-18.81L178.59-18.81Q178.56-19.59 178.01-20.14L178.01-20.14L178.01-20.14Q177.45-20.70 176.67-20.70L176.67-20.70L176.28-20.70L176.28-21L184.38-21L184.38-21Q187.11-21 188.67-19.48L188.67-19.48L188.67-19.48Q190.23-17.97 190.23-15.55L190.23-15.55L190.23-15.55Q190.23-13.14 188.75-11.38L188.75-11.38L188.75-11.38Q187.26-9.63 185.13-9.63L185.13-9.63L185.13-9.63Q185.58-9.42 186.20-8.80L186.20-8.80L186.20-8.80Q186.81-8.19 187.29-7.53L187.29-7.53L187.29-7.53Q189.87-3.84 190.65-2.98L190.65-2.98L190.65-2.98Q191.43-2.13 191.76-1.81L191.76-1.81L191.76-1.81Q192.09-1.50 192.48-1.20L192.48-1.20L192.48-1.20Q192.87-0.90 193.26-0.72L193.26-0.72L193.26-0.72Q194.13-0.30 195.12-0.30L195.12-0.30L195.12 0L193.47 0L193.47 0Q192.18 0 191.07-0.46L191.07-0.46L191.07-0.46Q189.96-0.93 189.41-1.43L189.41-1.43L189.41-1.43Q188.85-1.92 188.45-2.38L188.45-2.38L188.45-2.38Q188.04-2.85 186.21-5.49L186.21-5.49L186.21-5.49Q184.38-8.13 184.08-8.50L184.08-8.50L184.08-8.50Q183.78-8.88 183.45-9.24L183.45-9.24L183.45-9.24Q182.49-10.26 181.53-10.26L181.53-10.26L181.53-10.56L181.53-10.56Q181.77-10.53 182.16-10.53L182.16-10.53L182.16-10.53Q182.55-10.53 183.12-10.56L183.12-10.56L183.12-10.56Q186.84-10.65 187.80-13.68L187.80-13.68L187.80-13.68Q187.98-14.28 187.98-14.80L187.98-14.80L187.98-14.80Q187.98-15.33 187.98-15.48L187.98-15.48L187.98-15.48Q187.92-17.49 186.93-18.72L186.93-18.72L186.93-18.72Q185.94-19.95 184.26-20.04L184.26-20.04L184.26-20.04Q183.54-20.07 182.46-20.07ZM199.83-17.23L199.83-17.23L199.83-17.23Q202.14-18.42 204.92-18.42L204.92-18.42L204.92-18.42Q207.69-18.42 210.00-17.23L210.00-17.23L210.00-17.23Q212.31-16.05 213.68-13.89L213.68-13.89L213.68-13.89Q215.04-11.73 215.04-9L215.04-9L215.04-9Q215.04-6.27 213.68-4.11L213.68-4.11L213.68-4.11Q212.31-1.95 210.00-0.77L210.00-0.77L210.00-0.77Q207.69 0.42 205.26 0.42L205.26 0.42L205.26 0.42Q202.83 0.42 200.97-0.27L200.97-0.27L200.97-0.27Q199.11-0.96 197.75-2.19L197.75-2.19L197.75-2.19Q196.38-3.42 195.59-5.19L195.59-5.19L195.59-5.19Q194.79-6.96 194.79-9.34L194.79-9.34L194.79-9.34Q194.79-11.73 196.16-13.89L196.16-13.89L196.16-13.89Q197.52-16.05 199.83-17.23ZM199.28-2.86L199.28-2.86L199.28-2.86Q201.54-0.48 204.90-0.48L204.90-0.48L204.90-0.48Q208.26-0.48 210.54-2.86L210.54-2.86L210.54-2.86Q212.82-5.25 212.82-9L212.82-9L212.82-9Q212.82-12.75 210.54-15.13L210.54-15.13L210.54-15.13Q208.26-17.52 204.90-17.52L204.90-17.52L204.90-17.52Q201.54-17.52 199.28-15.13L199.28-15.13L199.28-15.13Q197.01-12.75 197.01-9L197.01-9L197.01-9Q197.01-5.25 199.28-2.86ZM218.25-0.99L218.25-0.99L218.25-0.99Q218.16-1.35 218.16-2.46L218.16-2.46L218.16-2.46Q218.16-3.57 218.55-4.71L218.55-4.71L218.91-4.71L218.91-4.71Q218.88-4.44 218.88-4.17L218.88-4.17L218.88-4.17Q218.88-2.55 219.95-1.51L219.95-1.51L219.95-1.51Q221.01-0.48 222.90-0.48L222.90-0.48L222.90-0.48Q224.88-0.48 225.99-1.40L225.99-1.40L225.99-1.40Q227.10-2.31 227.10-3.76L227.10-3.76L227.10-3.76Q227.10-5.22 226.02-6.18L226.02-6.18L220.02-10.80L220.02-10.80Q218.58-12.03 218.58-14.10L218.58-14.10L218.58-14.10Q218.58-15.27 219.23-16.26L219.23-16.26L219.23-16.26Q219.87-17.25 221.03-17.84L221.03-17.84L221.03-17.84Q222.18-18.42 223.74-18.42L223.74-18.42L223.74-18.42Q225.30-18.42 226.50-18.15L226.50-18.15L227.49-18.15L227.55-14.88L227.22-14.88L227.22-14.88Q227.22-16.14 226.35-16.83L226.35-16.83L226.35-16.83Q225.48-17.52 223.86-17.52L223.86-17.52L223.86-17.52Q222.24-17.52 221.19-16.70L221.19-16.70L221.19-16.70Q220.14-15.87 220.14-14.56L220.14-14.56L220.14-14.56Q220.14-13.26 221.31-12.30L221.31-12.30L227.37-7.62L227.37-7.62Q228.75-6.48 228.75-4.44L228.75-4.44L228.75-4.44Q228.75-2.40 227.21-0.99L227.21-0.99L227.21-0.99Q225.66 0.42 223.44 0.42L223.44 0.42L223.44 0.42Q221.97 0.42 220.50 0.06L220.50 0.06L220.50 0.06Q219.03-0.30 218.25-0.99ZM250.17-0.30L250.17-0.30L250.41-0.30L250.41 0L244.26 0L244.26-0.30L244.50-0.30L244.50-0.30Q245.07-0.30 245.37-0.69L245.37-0.69L245.37-0.69Q245.67-1.08 245.67-1.43L245.67-1.43L245.67-1.43Q245.67-1.77 245.55-2.10L245.55-2.10L243.90-6.09L236.31-6.09L234.66-2.19L234.66-2.19Q234.51-1.80 234.51-1.45L234.51-1.45L234.51-1.45Q234.51-1.11 234.81-0.70L234.81-0.70L234.81-0.70Q235.11-0.30 235.71-0.30L235.71-0.30L235.95-0.30L235.95 0L230.22 0L230.22-0.30L230.46-0.30L230.46-0.30Q231.09-0.30 231.74-0.73L231.74-0.73L231.74-0.73Q232.38-1.17 232.80-2.04L232.80-2.04L232.80-2.04Q239.37-16.08 239.64-16.74L239.64-16.74L239.64-16.74Q240.15-18 240.18-18.42L240.18-18.42L240.45-18.42L247.86-2.04L247.86-2.04Q248.73-0.30 250.17-0.30ZM240.18-15.21L236.70-6.99L243.54-6.99L240.18-15.21ZM251.91-0.30L252.33-0.30L252.33-0.30Q253.05-0.30 253.54-0.77L253.54-0.77L253.54-0.77Q254.04-1.23 254.07-1.89L254.07-1.89L254.07-16.08L254.07-16.08Q254.04-16.74 253.51-17.22L253.51-17.22L253.51-17.22Q252.99-17.70 252.27-17.70L252.27-17.70L251.91-17.70L251.91-18L258.12-18L258.12-17.70L257.76-17.70L257.76-17.70Q257.04-17.70 256.51-17.22L256.51-17.22L256.51-17.22Q255.99-16.74 255.99-16.08L255.99-16.08L255.99-0.93L260.67-0.93L260.67-0.93Q262.05-0.93 263.01-1.41L263.01-1.41L263.01-1.41Q263.97-1.89 264.46-2.55L264.46-2.55L264.46-2.55Q264.96-3.21 265.44-4.29L265.44-4.29L265.74-4.29L264.09 0L251.91 0L251.91-0.30ZM267.27-0.30L267.69-0.30L267.69-0.30Q268.41-0.30 268.90-0.77L268.90-0.77L268.90-0.77Q269.40-1.23 269.43-1.89L269.43-1.89L269.43-16.14L269.43-16.14Q269.43-16.80 268.92-17.25L268.92-17.25L268.92-17.25Q268.41-17.70 267.69-17.70L267.69-17.70L267.27-17.70L267.27-18L276.03-18L276.03-18Q277.26-18 278.19-18.18L278.19-18.18L278.19-18.18Q279.12-18.36 279.39-18.48L279.39-18.48L279.39-15.06L279.06-15.09L279.06-15.54L279.06-15.54Q279.06-16.17 278.64-16.62L278.64-16.62L278.64-16.62Q278.22-17.07 277.56-17.07L277.56-17.07L271.32-17.07L271.32-9.45L276.45-9.45L276.45-9.45Q277.05-9.45 277.36-9.81L277.36-9.81L277.36-9.81Q277.68-10.17 277.68-10.71L277.68-10.71L277.68-11.10L278.01-11.10L278.01-6.90L277.68-6.90L277.68-7.29L277.68-7.29Q277.68-8.13 277.05-8.43L277.05-8.43L277.05-8.43Q276.81-8.52 276.54-8.55L276.54-8.55L271.32-8.55L271.32-0.93L276.03-0.93L276.03-0.93Q277.41-0.93 278.35-1.41L278.35-1.41L278.35-1.41Q279.30-1.89 279.79-2.55L279.79-2.55L279.79-2.55Q280.29-3.21 280.80-4.29L280.80-4.29L281.10-4.29L279.45 0L267.27 0L267.27-0.30ZM283.74-0.99L283.74-0.99L283.74-0.99Q283.65-1.35 283.65-2.46L283.65-2.46L283.65-2.46Q283.65-3.57 284.04-4.71L284.04-4.71L284.40-4.71L284.40-4.71Q284.37-4.44 284.37-4.17L284.37-4.17L284.37-4.17Q284.37-2.55 285.43-1.51L285.43-1.51L285.43-1.51Q286.50-0.48 288.39-0.48L288.39-0.48L288.39-0.48Q290.37-0.48 291.48-1.40L291.48-1.40L291.48-1.40Q292.59-2.31 292.59-3.76L292.59-3.76L292.59-3.76Q292.59-5.22 291.51-6.18L291.51-6.18L285.51-10.80L285.51-10.80Q284.07-12.03 284.07-14.10L284.07-14.10L284.07-14.10Q284.07-15.27 284.71-16.26L284.71-16.26L284.71-16.26Q285.36-17.25 286.51-17.84L286.51-17.84L286.51-17.84Q287.67-18.42 289.23-18.42L289.23-18.42L289.23-18.42Q290.79-18.42 291.99-18.15L291.99-18.15L292.98-18.15L293.04-14.88L292.71-14.88L292.71-14.88Q292.71-16.14 291.84-16.83L291.84-16.83L291.84-16.83Q290.97-17.52 289.35-17.52L289.35-17.52L289.35-17.52Q287.73-17.52 286.68-16.70L286.68-16.70L286.68-16.70Q285.63-15.87 285.63-14.56L285.63-14.56L285.63-14.56Q285.63-13.26 286.80-12.30L286.80-12.30L292.86-7.62L292.86-7.62Q294.24-6.48 294.24-4.44L294.24-4.44L294.24-4.44Q294.24-2.40 292.69-0.99L292.69-0.99L292.69-0.99Q291.15 0.42 288.93 0.42L288.93 0.42L288.93 0.42Q287.46 0.42 285.99 0.06L285.99 0.06L285.99 0.06Q284.52-0.30 283.74-0.99ZM315.87 0.42L315.87 0.42Q311.13 0.39 308.14-2.61L308.14-2.61L308.14-2.61Q305.16-5.61 305.16-10.51L305.16-10.51L305.16-10.51Q305.16-15.42 308.14-18.42L308.14-18.42L308.14-18.42Q311.13-21.42 316.05-21.42L316.05-21.42L316.05-21.42Q320.07-21.42 323.16-19.38L323.16-19.38L323.76-15.15L323.49-15.15L323.49-15.15Q322.83-17.73 320.82-19.13L320.82-19.13L320.82-19.13Q318.81-20.52 316.05-20.52L316.05-20.52L316.05-20.52Q312.12-20.52 309.76-17.79L309.76-17.79L309.76-17.79Q307.41-15.06 307.41-10.56L307.41-10.56L307.41-10.56Q307.41-6.06 309.73-3.31L309.73-3.31L309.73-3.31Q312.06-0.57 315.87-0.48L315.87-0.48L315.87-0.48Q319.23-0.48 321.48-2.31L321.48-2.31L321.48-2.31Q323.91-4.29 324.42-8.76L324.42-8.76L324.66-8.76L324.30-4.05L324.30-4.05Q321.57 0.42 315.87 0.42L315.87 0.42ZM345.96-0.30L345.96-0.30L346.20-0.30L346.20 0L340.05 0L340.05-0.30L340.29-0.30L340.29-0.30Q340.86-0.30 341.16-0.69L341.16-0.69L341.16-0.69Q341.46-1.08 341.46-1.43L341.46-1.43L341.46-1.43Q341.46-1.77 341.34-2.10L341.34-2.10L339.69-6.09L332.10-6.09L330.45-2.19L330.45-2.19Q330.30-1.80 330.30-1.45L330.30-1.45L330.30-1.45Q330.30-1.11 330.60-0.70L330.60-0.70L330.60-0.70Q330.90-0.30 331.50-0.30L331.50-0.30L331.74-0.30L331.74 0L326.01 0L326.01-0.30L326.25-0.30L326.25-0.30Q326.88-0.30 327.52-0.73L327.52-0.73L327.52-0.73Q328.17-1.17 328.59-2.04L328.59-2.04L328.59-2.04Q335.16-16.08 335.43-16.74L335.43-16.74L335.43-16.74Q335.94-18 335.97-18.42L335.97-18.42L336.24-18.42L343.65-2.04L343.65-2.04Q344.52-0.30 345.96-0.30ZM335.97-15.21L332.49-6.99L339.33-6.99L335.97-15.21ZM371.73-0.30L371.73-0.30L372.18-0.30L372.18 0L365.94 0L365.94-0.27L366.39-0.27L366.39-0.27Q366.84-0.27 367.18-0.61L367.18-0.61L367.18-0.61Q367.53-0.96 367.47-1.44L367.47-1.44L365.91-13.80L360.24-2.64L360.24-2.64Q359.40-0.81 359.19 0.42L359.19 0.42L358.89 0.42L351.66-13.53L350.31-1.44L350.31-1.44Q350.25-0.99 350.59-0.63L350.59-0.63L350.59-0.63Q350.94-0.27 351.42-0.27L351.42-0.27L351.84-0.27L351.84 0L346.29 0L346.29-0.30L346.74-0.30L346.74-0.30Q347.82-0.30 348.42-1.08L348.42-1.08L348.42-1.08Q348.72-1.47 348.78-2.01L348.78-2.01L351.12-18.42L351.42-18.42L359.34-3.18L366.99-18.42L367.26-18.42L369.69-1.95L369.69-1.95Q369.81-1.20 370.38-0.75L370.38-0.75L370.38-0.75Q370.95-0.30 371.73-0.30ZM392.19-0.30L392.19-0.30L392.43-0.30L392.43 0L386.28 0L386.28-0.30L386.52-0.30L386.52-0.30Q387.09-0.30 387.39-0.69L387.39-0.69L387.39-0.69Q387.69-1.08 387.69-1.43L387.69-1.43L387.69-1.43Q387.69-1.77 387.57-2.10L387.57-2.10L385.92-6.09L378.33-6.09L376.68-2.19L376.68-2.19Q376.53-1.80 376.53-1.45L376.53-1.45L376.53-1.45Q376.53-1.11 376.83-0.70L376.83-0.70L376.83-0.70Q377.13-0.30 377.73-0.30L377.73-0.30L377.97-0.30L377.97 0L372.24 0L372.24-0.30L372.48-0.30L372.48-0.30Q373.11-0.30 373.75-0.73L373.75-0.73L373.75-0.73Q374.40-1.17 374.82-2.04L374.82-2.04L374.82-2.04Q381.39-16.08 381.66-16.74L381.66-16.74L381.66-16.74Q382.17-18 382.20-18.42L382.20-18.42L382.47-18.42L389.88-2.04L389.88-2.04Q390.75-0.30 392.19-0.30ZM382.20-15.21L378.72-6.99L385.56-6.99L382.20-15.21ZM403.23 0.42L403.23 0.42Q398.64 0.39 395.98-2.13L395.98-2.13L395.98-2.13Q393.33-4.65 393.33-9.01L393.33-9.01L393.33-9.01Q393.33-13.38 395.98-15.90L395.98-15.90L395.98-15.90Q398.64-18.42 403.23-18.42L403.23-18.42L403.23-18.42Q405.09-18.42 406.98-17.94L406.98-17.94L406.98-17.94Q408.87-17.46 410.25-16.62L410.25-16.62L410.91-12.36L410.64-12.36L410.64-12.36Q409.35-17.52 403.20-17.52L403.20-17.52L403.20-17.52Q399.63-17.52 397.56-15.24L397.56-15.24L397.56-15.24Q395.49-12.96 395.49-9L395.49-9L395.49-9Q395.49-6.42 396.42-4.51L396.42-4.51L396.42-4.51Q397.35-2.61 399.12-1.56L399.12-1.56L399.12-1.56Q400.89-0.51 403.23-0.51L403.23-0.51L403.23-0.51Q405.57-0.51 407.32-1.21L407.32-1.21L407.32-1.21Q409.08-1.92 410.23-3.54L410.23-3.54L410.23-3.54Q411.39-5.16 411.54-7.56L411.54-7.56L411.81-7.56L411.48-3.45L411.48-3.45Q410.31-1.65 408.09-0.61L408.09-0.61L408.09-0.61Q405.87 0.42 403.23 0.42L403.23 0.42ZM427.62-0.30L427.98-0.30L427.98-0.30Q428.67-0.30 429.18-0.77L429.18-0.77L429.18-0.77Q429.69-1.23 429.72-1.89L429.72-1.89L429.72-8.43L418.65-8.43L418.65-1.89L418.65-1.89Q418.68-1.23 419.19-0.77L419.19-0.77L419.19-0.77Q419.70-0.30 420.39-0.30L420.39-0.30L420.75-0.30L420.75 0L414.63 0L414.63-0.30L414.99-0.30L414.99-0.30Q415.71-0.30 416.20-0.78L416.20-0.78L416.20-0.78Q416.70-1.26 416.73-1.92L416.73-1.92L416.73-16.08L416.73-16.08Q416.70-16.74 416.19-17.22L416.19-17.22L416.19-17.22Q415.68-17.70 414.99-17.70L414.99-17.70L414.63-17.70L414.63-18L420.75-18L420.75-17.70L420.39-17.70L420.39-17.70Q419.70-17.70 419.19-17.23L419.19-17.23L419.19-17.23Q418.68-16.77 418.65-16.11L418.65-16.11L418.65-9.33L429.72-9.33L429.72-16.08L429.72-16.08Q429.72-16.74 429.33-17.10L429.33-17.10L429.33-17.10Q428.70-17.70 427.98-17.70L427.98-17.70L427.62-17.70L427.62-18L433.74-18L433.74-17.70L433.38-17.70L433.38-17.70Q432.69-17.70 432.18-17.25L432.18-17.25L432.18-17.25Q431.67-16.80 431.64-16.14L431.64-16.14L431.64-1.89L431.64-1.89Q431.67-1.23 432.03-0.90L432.03-0.90L432.03-0.90Q432.69-0.30 433.38-0.30L433.38-0.30L433.74-0.30L433.74 0L427.62 0L427.62-0.30ZM441.45-17.23L441.45-17.23L441.45-17.23Q443.76-18.42 446.53-18.42L446.53-18.42L446.53-18.42Q449.31-18.42 451.62-17.23L451.62-17.23L451.62-17.23Q453.93-16.05 455.29-13.89L455.29-13.89L455.29-13.89Q456.66-11.73 456.66-9L456.66-9L456.66-9Q456.66-6.27 455.29-4.11L455.29-4.11L455.29-4.11Q453.93-1.95 451.62-0.77L451.62-0.77L451.62-0.77Q449.31 0.42 446.88 0.42L446.88 0.42L446.88 0.42Q444.45 0.42 442.59-0.27L442.59-0.27L442.59-0.27Q440.73-0.96 439.36-2.19L439.36-2.19L439.36-2.19Q438.00-3.42 437.20-5.19L437.20-5.19L437.20-5.19Q436.41-6.96 436.41-9.34L436.41-9.34L436.41-9.34Q436.41-11.73 437.77-13.89L437.77-13.89L437.77-13.89Q439.14-16.05 441.45-17.23ZM440.89-2.86L440.89-2.86L440.89-2.86Q443.16-0.48 446.52-0.48L446.52-0.48L446.52-0.48Q449.88-0.48 452.16-2.86L452.16-2.86L452.16-2.86Q454.44-5.25 454.44-9L454.44-9L454.44-9Q454.44-12.75 452.16-15.13L452.16-15.13L452.16-15.13Q449.88-17.52 446.52-17.52L446.52-17.52L446.52-17.52Q443.16-17.52 440.89-15.13L440.89-15.13L440.89-15.13Q438.63-12.75 438.63-9L438.63-9L438.63-9Q438.63-5.25 440.89-2.86Z" fill="#774023"></path></g></g><style>text {
  font-size: 64px;
  font-family: Arial Black;
  dominant-baseline: central;
  text-anchor: middle;
}</style></svg>