<svg width="230.48749999999998px" height="75.19999999999999px" xmlns="http://www.w3.org/2000/svg" viewBox="134.75625000000002 37.400000000000006 230.48749999999998 75.19999999999999" style="background: none;" preserveAspectRatio="xMidYMid"><defs><filter id="editing-hover" x="-100%" y="-100%" width="300%" height="300%"><feFlood flood-color="#d88c51" result="flood"></feFlood><feComposite operator="in" in2="SourceAlpha" in="flood" result="shadow"></feComposite><feOffset dx="-0.6" dy="0" in="SourceGraphic" result="offset-1"></feOffset><feOffset dx="0.6" dy="0" in="shadow" result="offset-2"></feOffset><feMerge><feMergeNode in="offset-2"></feMergeNode><feMergeNode in="offset-1"></feMergeNode></feMerge></filter></defs><g filter="url(#editing-hover)"><g transform="translate(172.45000767707825, 85.92000007629395)"><path d="M12.51 0.42L12.51 0.42Q7.77 0.39 4.79-2.61L4.79-2.61L4.79-2.61Q1.80-5.61 1.80-10.51L1.80-10.51L1.80-10.51Q1.80-15.42 4.79-18.42L4.79-18.42L4.79-18.42Q7.77-21.42 12.69-21.42L12.69-21.42L12.69-21.42Q16.71-21.42 19.80-19.38L19.80-19.38L20.40-15.15L20.13-15.15L20.13-15.15Q19.47-17.73 17.46-19.13L17.46-19.13L17.46-19.13Q15.45-20.52 12.69-20.52L12.69-20.52L12.69-20.52Q8.76-20.52 6.40-17.79L6.40-17.79L6.40-17.79Q4.05-15.06 4.05-10.56L4.05-10.56L4.05-10.56Q4.05-6.06 6.38-3.31L6.38-3.31L6.38-3.31Q8.70-0.57 12.51-0.48L12.51-0.48L12.51-0.48Q15.87-0.48 18.12-2.31L18.12-2.31L18.12-2.31Q20.55-4.29 21.06-8.76L21.06-8.76L21.30-8.76L20.94-4.05L20.94-4.05Q18.21 0.42 12.51 0.42L12.51 0.42ZM42.60-0.30L42.60-0.30L42.84-0.30L42.84 0L36.69 0L36.69-0.30L36.93-0.30L36.93-0.30Q37.50-0.30 37.80-0.69L37.80-0.69L37.80-0.69Q38.10-1.08 38.10-1.43L38.10-1.43L38.10-1.43Q38.10-1.77 37.98-2.10L37.98-2.10L36.33-6.09L28.74-6.09L27.09-2.19L27.09-2.19Q26.94-1.80 26.94-1.45L26.94-1.45L26.94-1.45Q26.94-1.11 27.24-0.70L27.24-0.70L27.24-0.70Q27.54-0.30 28.14-0.30L28.14-0.30L28.38-0.30L28.38 0L22.65 0L22.65-0.30L22.89-0.30L22.89-0.30Q23.52-0.30 24.16-0.73L24.16-0.73L24.16-0.73Q24.81-1.17 25.23-2.04L25.23-2.04L25.23-2.04Q31.80-16.08 32.07-16.74L32.07-16.74L32.07-16.74Q32.58-18 32.61-18.42L32.61-18.42L32.88-18.42L40.29-2.04L40.29-2.04Q41.16-0.30 42.60-0.30ZM32.61-15.21L29.13-6.99L35.97-6.99L32.61-15.21ZM68.37-0.30L68.37-0.30L68.82-0.30L68.82 0L62.58 0L62.58-0.27L63.03-0.27L63.03-0.27Q63.48-0.27 63.82-0.61L63.82-0.61L63.82-0.61Q64.17-0.96 64.11-1.44L64.11-1.44L62.55-13.80L56.88-2.64L56.88-2.64Q56.04-0.81 55.83 0.42L55.83 0.42L55.53 0.42L48.30-13.53L46.95-1.44L46.95-1.44Q46.89-0.99 47.23-0.63L47.23-0.63L47.23-0.63Q47.58-0.27 48.06-0.27L48.06-0.27L48.48-0.27L48.48 0L42.93 0L42.93-0.30L43.38-0.30L43.38-0.30Q44.46-0.30 45.06-1.08L45.06-1.08L45.06-1.08Q45.36-1.47 45.42-2.01L45.42-2.01L47.76-18.42L48.06-18.42L55.98-3.18L63.63-18.42L63.90-18.42L66.33-1.95L66.33-1.95Q66.45-1.20 67.02-0.75L67.02-0.75L67.02-0.75Q67.59-0.30 68.37-0.30ZM88.83-0.30L88.83-0.30L89.07-0.30L89.07 0L82.92 0L82.92-0.30L83.16-0.30L83.16-0.30Q83.73-0.30 84.03-0.69L84.03-0.69L84.03-0.69Q84.33-1.08 84.33-1.43L84.33-1.43L84.33-1.43Q84.33-1.77 84.21-2.10L84.21-2.10L82.56-6.09L74.97-6.09L73.32-2.19L73.32-2.19Q73.17-1.80 73.17-1.45L73.17-1.45L73.17-1.45Q73.17-1.11 73.47-0.70L73.47-0.70L73.47-0.70Q73.77-0.30 74.37-0.30L74.37-0.30L74.61-0.30L74.61 0L68.88 0L68.88-0.30L69.12-0.30L69.12-0.30Q69.75-0.30 70.39-0.73L70.39-0.73L70.39-0.73Q71.04-1.17 71.46-2.04L71.46-2.04L71.46-2.04Q78.03-16.08 78.30-16.74L78.30-16.74L78.30-16.74Q78.81-18 78.84-18.42L78.84-18.42L79.11-18.42L86.52-2.04L86.52-2.04Q87.39-0.30 88.83-0.30ZM78.84-15.21L75.36-6.99L82.20-6.99L78.84-15.21ZM99.87 0.42L99.87 0.42Q95.28 0.39 92.63-2.13L92.63-2.13L92.63-2.13Q89.97-4.65 89.97-9.01L89.97-9.01L89.97-9.01Q89.97-13.38 92.63-15.90L92.63-15.90L92.63-15.90Q95.28-18.42 99.87-18.42L99.87-18.42L99.87-18.42Q101.73-18.42 103.62-17.94L103.62-17.94L103.62-17.94Q105.51-17.46 106.89-16.62L106.89-16.62L107.55-12.36L107.28-12.36L107.28-12.36Q105.99-17.52 99.84-17.52L99.84-17.52L99.84-17.52Q96.27-17.52 94.20-15.24L94.20-15.24L94.20-15.24Q92.13-12.96 92.13-9L92.13-9L92.13-9Q92.13-6.42 93.06-4.51L93.06-4.51L93.06-4.51Q93.99-2.61 95.76-1.56L95.76-1.56L95.76-1.56Q97.53-0.51 99.87-0.51L99.87-0.51L99.87-0.51Q102.21-0.51 103.97-1.21L103.97-1.21L103.97-1.21Q105.72-1.92 106.88-3.54L106.88-3.54L106.88-3.54Q108.03-5.16 108.18-7.56L108.18-7.56L108.45-7.56L108.12-3.45L108.12-3.45Q106.95-1.65 104.73-0.61L104.73-0.61L104.73-0.61Q102.51 0.42 99.87 0.42L99.87 0.42ZM124.26-0.30L124.62-0.30L124.62-0.30Q125.31-0.30 125.82-0.77L125.82-0.77L125.82-0.77Q126.33-1.23 126.36-1.89L126.36-1.89L126.36-8.43L115.29-8.43L115.29-1.89L115.29-1.89Q115.32-1.23 115.83-0.77L115.83-0.77L115.83-0.77Q116.34-0.30 117.03-0.30L117.03-0.30L117.39-0.30L117.39 0L111.27 0L111.27-0.30L111.63-0.30L111.63-0.30Q112.35-0.30 112.84-0.78L112.84-0.78L112.84-0.78Q113.34-1.26 113.37-1.92L113.37-1.92L113.37-16.08L113.37-16.08Q113.34-16.74 112.83-17.22L112.83-17.22L112.83-17.22Q112.32-17.70 111.63-17.70L111.63-17.70L111.27-17.70L111.27-18L117.39-18L117.39-17.70L117.03-17.70L117.03-17.70Q116.34-17.70 115.83-17.23L115.83-17.23L115.83-17.23Q115.32-16.77 115.29-16.11L115.29-16.11L115.29-9.33L126.36-9.33L126.36-16.08L126.36-16.08Q126.36-16.74 125.97-17.10L125.97-17.10L125.97-17.10Q125.34-17.70 124.62-17.70L124.62-17.70L124.26-17.70L124.26-18L130.38-18L130.38-17.70L130.02-17.70L130.02-17.70Q129.33-17.70 128.82-17.25L128.82-17.25L128.82-17.25Q128.31-16.80 128.28-16.14L128.28-16.14L128.28-1.89L128.28-1.89Q128.31-1.23 128.67-0.90L128.67-0.90L128.67-0.90Q129.33-0.30 130.02-0.30L130.02-0.30L130.38-0.30L130.38 0L124.26 0L124.26-0.30ZM138.09-17.23L138.09-17.23L138.09-17.23Q140.40-18.42 143.18-18.42L143.18-18.42L143.18-18.42Q145.95-18.42 148.26-17.23L148.26-17.23L148.26-17.23Q150.57-16.05 151.94-13.89L151.94-13.89L151.94-13.89Q153.30-11.73 153.30-9L153.30-9L153.30-9Q153.30-6.27 151.94-4.11L151.94-4.11L151.94-4.11Q150.57-1.95 148.26-0.77L148.26-0.77L148.26-0.77Q145.95 0.42 143.52 0.42L143.52 0.42L143.52 0.42Q141.09 0.42 139.23-0.27L139.23-0.27L139.23-0.27Q137.37-0.96 136.01-2.19L136.01-2.19L136.01-2.19Q134.64-3.42 133.84-5.19L133.84-5.19L133.84-5.19Q133.05-6.96 133.05-9.34L133.05-9.34L133.05-9.34Q133.05-11.73 134.42-13.89L134.42-13.89L134.42-13.89Q135.78-16.05 138.09-17.23ZM137.54-2.86L137.54-2.86L137.54-2.86Q139.80-0.48 143.16-0.48L143.16-0.48L143.16-0.48Q146.52-0.48 148.80-2.86L148.80-2.86L148.80-2.86Q151.08-5.25 151.08-9L151.08-9L151.08-9Q151.08-12.75 148.80-15.13L148.80-15.13L148.80-15.13Q146.52-17.52 143.16-17.52L143.16-17.52L143.16-17.52Q139.80-17.52 137.54-15.13L137.54-15.13L137.54-15.13Q135.27-12.75 135.27-9L135.27-9L135.27-9Q135.27-5.25 137.54-2.86Z" fill="#774023"></path></g></g><style>text {
  font-size: 64px;
  font-family: Arial Black;
  dominant-baseline: central;
  text-anchor: middle;
}</style></svg>