<svg width="469.02503662109376px" height="137.6px" xmlns="http://www.w3.org/2000/svg" viewBox="15.48748168945312 6.200000000000003 469.02503662109376 137.6" style="background: none;" preserveAspectRatio="xMidYMid"><defs><filter id="editing-extrude-glow"><feFlood flood-color="#cfd7cc" result="flood-1"></feFlood><feMorphology operator="erode" radius="1" in="SourceAlpha" result="erode"></feMorphology><feComposite operator="in" in="flood-1" in2="erode" result="comp1"></feComposite><feConvolveMatrix order="3,3" divisor="1" in="comp1" result="convolve" kernelMatrix="0 0 0 1 1 1 0 0 0"></feConvolveMatrix><feOffset dx="-3" dy="0" in="convolve" result="extrude"></feOffset><feComposite operator="in" in="flood-1" in2="extrude" result="comp-extrude"></feComposite><feFlood flood-color="#f8f9f8" result="flood-2"></feFlood><feComposite operator="in" in="flood-2" in2="SourceAlpha" result="comp2"></feComposite><feMorphology operator="dilate" radius="1" in="comp2" result="dilate"></feMorphology><feOffset dx="-4.5" dy="0" in="dilate" result="offset"></feOffset><feGaussianBlur in="offset" stdDeviation="5.8" result="blur"></feGaussianBlur><feComponentTransfer in="blur" result="shadow"><feFuncA type="linear" slope="0.8" intercept="-0.2"></feFuncA></feComponentTransfer><feMerge><feMergeNode in="shadow"></feMergeNode><feMergeNode in="comp-extrude"></feMergeNode><feMergeNode in="SourceGraphic"></feMergeNode></feMerge></filter></defs><g filter="url(#editing-extrude-glow)"><g transform="translate(84.55997085571289, 98.30000114440918)"><path d="M26.69 0.90L26.69 0.90Q16.58 0.83 10.21-5.57L10.21-5.57L10.21-5.57Q3.84-11.97 3.84-22.43L3.84-22.43L3.84-22.43Q3.84-32.90 10.21-39.30L10.21-39.30L10.21-39.30Q16.58-45.70 27.07-45.70L27.07-45.70L27.07-45.70Q35.65-45.70 42.24-41.34L42.24-41.34L43.52-32.32L42.94-32.32L42.94-32.32Q41.54-37.82 37.25-40.80L37.25-40.80L37.25-40.80Q32.96-43.78 27.07-43.78L27.07-43.78L27.07-43.78Q18.69-43.78 13.66-37.95L13.66-37.95L13.66-37.95Q8.64-32.13 8.64-22.53L8.64-22.53L8.64-22.53Q8.64-12.93 13.60-7.07L13.60-7.07L13.60-7.07Q18.56-1.22 26.69-1.02L26.69-1.02L26.69-1.02Q33.86-1.02 38.66-4.93L38.66-4.93L38.66-4.93Q43.84-9.15 44.93-18.69L44.93-18.69L45.44-18.69L44.67-8.64L44.67-8.64Q38.85 0.90 26.69 0.90L26.69 0.90ZM90.88-0.64L90.88-0.64L91.39-0.64L91.39 0L78.27 0L78.27-0.64L78.78-0.64L78.78-0.64Q80-0.64 80.64-1.47L80.64-1.47L80.64-1.47Q81.28-2.30 81.28-3.04L81.28-3.04L81.28-3.04Q81.28-3.78 81.02-4.48L81.02-4.48L77.50-12.99L61.31-12.99L57.79-4.67L57.79-4.67Q57.47-3.84 57.47-3.10L57.47-3.10L57.47-3.10Q57.47-2.37 58.11-1.50L58.11-1.50L58.11-1.50Q58.75-0.64 60.03-0.64L60.03-0.64L60.54-0.64L60.54 0L48.32 0L48.32-0.64L48.83-0.64L48.83-0.64Q50.18-0.64 51.55-1.57L51.55-1.57L51.55-1.57Q52.93-2.50 53.82-4.35L53.82-4.35L53.82-4.35Q67.84-34.30 68.42-35.71L68.42-35.71L68.42-35.71Q69.50-38.40 69.57-39.30L69.57-39.30L70.14-39.30L85.95-4.35L85.95-4.35Q87.81-0.64 90.88-0.64ZM69.57-32.45L62.14-14.91L76.74-14.91L69.57-32.45ZM145.86-0.64L145.86-0.64L146.82-0.64L146.82 0L133.50 0L133.50-0.58L134.46-0.58L134.46-0.58Q135.42-0.58 136.16-1.31L136.16-1.31L136.16-1.31Q136.90-2.05 136.77-3.07L136.77-3.07L133.44-29.44L121.34-5.63L121.34-5.63Q119.55-1.73 119.10 0.90L119.10 0.90L118.46 0.90L103.04-28.86L100.16-3.07L100.16-3.07Q100.03-2.11 100.77-1.34L100.77-1.34L100.77-1.34Q101.50-0.58 102.53-0.58L102.53-0.58L103.42-0.58L103.42 0L91.58 0L91.58-0.64L92.54-0.64L92.54-0.64Q94.85-0.64 96.13-2.30L96.13-2.30L96.13-2.30Q96.77-3.14 96.90-4.29L96.90-4.29L101.89-39.30L102.53-39.30L119.42-6.78L135.74-39.30L136.32-39.30L141.50-4.16L141.50-4.16Q141.76-2.56 142.98-1.60L142.98-1.60L142.98-1.60Q144.19-0.64 145.86-0.64ZM189.50-0.64L189.50-0.64L190.02-0.64L190.02 0L176.90 0L176.90-0.64L177.41-0.64L177.41-0.64Q178.62-0.64 179.26-1.47L179.26-1.47L179.26-1.47Q179.90-2.30 179.90-3.04L179.90-3.04L179.90-3.04Q179.90-3.78 179.65-4.48L179.65-4.48L176.13-12.99L159.94-12.99L156.42-4.67L156.42-4.67Q156.10-3.84 156.10-3.10L156.10-3.10L156.10-3.10Q156.10-2.37 156.74-1.50L156.74-1.50L156.74-1.50Q157.38-0.64 158.66-0.64L158.66-0.64L159.17-0.64L159.17 0L146.94 0L146.94-0.64L147.46-0.64L147.46-0.64Q148.80-0.64 150.18-1.57L150.18-1.57L150.18-1.57Q151.55-2.50 152.45-4.35L152.45-4.35L152.45-4.35Q166.46-34.30 167.04-35.71L167.04-35.71L167.04-35.71Q168.13-38.40 168.19-39.30L168.19-39.30L168.77-39.30L184.58-4.35L184.58-4.35Q186.43-0.64 189.50-0.64ZM168.19-32.45L160.77-14.91L175.36-14.91L168.19-32.45ZM213.06 0.90L213.06 0.90Q203.26 0.83 197.60-4.54L197.60-4.54L197.60-4.54Q191.94-9.92 191.94-19.23L191.94-19.23L191.94-19.23Q191.94-28.54 197.60-33.92L197.60-33.92L197.60-33.92Q203.26-39.30 213.06-39.30L213.06-39.30L213.06-39.30Q217.02-39.30 221.06-38.27L221.06-38.27L221.06-38.27Q225.09-37.25 228.03-35.46L228.03-35.46L229.44-26.37L228.86-26.37L228.86-26.37Q226.11-37.38 212.99-37.38L212.99-37.38L212.99-37.38Q205.38-37.38 200.96-32.51L200.96-32.51L200.96-32.51Q196.54-27.65 196.54-19.20L196.54-19.20L196.54-19.20Q196.54-13.70 198.53-9.63L198.53-9.63L198.53-9.63Q200.51-5.57 204.29-3.33L204.29-3.33L204.29-3.33Q208.06-1.09 213.06-1.09L213.06-1.09L213.06-1.09Q218.05-1.09 221.79-2.59L221.79-2.59L221.79-2.59Q225.54-4.10 228.00-7.55L228.00-7.55L228.00-7.55Q230.46-11.01 230.78-16.13L230.78-16.13L231.36-16.13L230.66-7.36L230.66-7.36Q228.16-3.52 223.42-1.31L223.42-1.31L223.42-1.31Q218.69 0.90 213.06 0.90L213.06 0.90ZM265.09-0.64L265.86-0.64L265.86-0.64Q267.33-0.64 268.42-1.63L268.42-1.63L268.42-1.63Q269.50-2.62 269.57-4.03L269.57-4.03L269.57-17.98L245.95-17.98L245.95-4.03L245.95-4.03Q246.02-2.62 247.10-1.63L247.10-1.63L247.10-1.63Q248.19-0.64 249.66-0.64L249.66-0.64L250.43-0.64L250.43 0L237.38 0L237.38-0.64L238.14-0.64L238.14-0.64Q239.68-0.64 240.74-1.66L240.74-1.66L240.74-1.66Q241.79-2.69 241.86-4.10L241.86-4.10L241.86-34.30L241.86-34.30Q241.79-35.71 240.70-36.74L240.70-36.74L240.70-36.74Q239.62-37.76 238.14-37.76L238.14-37.76L237.38-37.76L237.38-38.40L250.43-38.40L250.43-37.76L249.66-37.76L249.66-37.76Q248.19-37.76 247.10-36.77L247.10-36.77L247.10-36.77Q246.02-35.78 245.95-34.37L245.95-34.37L245.95-19.90L269.57-19.90L269.57-34.30L269.57-34.30Q269.57-35.71 268.74-36.48L268.74-36.48L268.74-36.48Q267.39-37.76 265.86-37.76L265.86-37.76L265.09-37.76L265.09-38.40L278.14-38.40L278.14-37.76L277.38-37.76L277.38-37.76Q275.90-37.76 274.82-36.80L274.82-36.80L274.82-36.80Q273.73-35.84 273.66-34.43L273.66-34.43L273.66-4.03L273.66-4.03Q273.73-2.62 274.50-1.92L274.50-1.92L274.50-1.92Q275.90-0.64 277.38-0.64L277.38-0.64L278.14-0.64L278.14 0L265.09 0L265.09-0.64ZM294.59-36.77L294.59-36.77L294.59-36.77Q299.52-39.30 305.44-39.30L305.44-39.30L305.44-39.30Q311.36-39.30 316.29-36.77L316.29-36.77L316.29-36.77Q321.22-34.24 324.13-29.63L324.13-29.63L324.13-29.63Q327.04-25.02 327.04-19.20L327.04-19.20L327.04-19.20Q327.04-13.38 324.13-8.77L324.13-8.77L324.13-8.77Q321.22-4.16 316.29-1.63L316.29-1.63L316.29-1.63Q311.36 0.90 306.18 0.90L306.18 0.90L306.18 0.90Q300.99 0.90 297.02-0.58L297.02-0.58L297.02-0.58Q293.06-2.05 290.14-4.67L290.14-4.67L290.14-4.67Q287.23-7.30 285.54-11.07L285.54-11.07L285.54-11.07Q283.84-14.85 283.84-19.94L283.84-19.94L283.84-19.94Q283.84-25.02 286.75-29.63L286.75-29.63L286.75-29.63Q289.66-34.24 294.59-36.77ZM293.41-6.11L293.41-6.11L293.41-6.11Q298.24-1.02 305.41-1.02L305.41-1.02L305.41-1.02Q312.58-1.02 317.44-6.11L317.44-6.11L317.44-6.11Q322.30-11.20 322.30-19.20L322.30-19.20L322.30-19.20Q322.30-27.20 317.44-32.29L317.44-32.29L317.44-32.29Q312.58-37.38 305.41-37.38L305.41-37.38L305.41-37.38Q298.24-37.38 293.41-32.29L293.41-32.29L293.41-32.29Q288.58-27.20 288.58-19.20L288.58-19.20L288.58-19.20Q288.58-11.20 293.41-6.11Z" fill="#80a352"></path></g></g><style>text {
  font-size: 64px;
  font-family: Arial Black;
  dominant-baseline: central;
  text-anchor: middle;
}</style></svg>