<svg width="425.15px" height="188.8000061035156px" xmlns="http://www.w3.org/2000/svg" viewBox="37.42500000000001 -19.400003051757807 425.15 188.8000061035156" style="background: none;" preserveAspectRatio="xMidYMid"><defs><filter id="editing-hole" x="-100%" y="-100%" width="300%" height="300%"><feFlood flood-color="#d88c51" result="black"></feFlood><feMorphology operator="dilate" radius="2" in="SourceGraphic" result="erode"></feMorphology><feGaussianBlur in="erode" stdDeviation="4" result="blur"></feGaussianBlur><feOffset in="blur" dx="2" dy="2" result="offset"></feOffset><feComposite operator="atop" in="offset" in2="black" result="merge"></feComposite><feComposite operator="in" in="merge" in2="SourceGraphic" result="inner-shadow"></feComposite></filter></defs><g filter="url(#editing-hole)"><g transform="translate(100.54497194290161, 107.84499549865723)"><path d="M5.52-0.92L6.72-0.92L6.72-0.92Q9.11-0.92 10.81-2.62L10.81-2.62L10.81-2.62Q12.51-4.32 12.60-6.72L12.60-6.72L12.60-57.78L12.60-57.78Q12.51-60.17 10.81-61.82L10.81-61.82L10.81-61.82Q9.11-63.48 6.72-63.48L6.72-63.48L5.52-63.48L5.52-64.40L25.67-64.40L25.67-63.48L24.47-63.48L24.47-63.48Q22.08-63.48 20.38-61.82L20.38-61.82L20.38-61.82Q18.68-60.17 18.58-57.78L18.58-57.78L18.58-6.72L18.58-6.72Q18.58-4.32 20.33-2.62L20.33-2.62L20.33-2.62Q22.08-0.92 24.47-0.92L24.47-0.92L25.67-0.92L25.67 0L5.52 0L5.52-0.92ZM99.54-54.28L97.98-54.28L97.98-54.28Q95.96-54.28 94.48-52.95L94.48-52.95L94.48-52.95Q93.01-51.61 92.92-49.68L92.92-49.68L92.92-10.49L92.92-10.49Q92.92-5.15 93.56-0.37L93.56-0.37L93.75 1.29L92.92 1.29L45.08-44.07L45.08-5.70L45.08-5.70Q45.08-3.68 46.55-2.30L46.55-2.30L46.55-2.30Q48.02-0.92 50.14-0.92L50.14-0.92L51.70-0.92L51.70 0L34.32 0L34.32-0.92L35.88-0.92L35.88-0.92Q38.00-0.92 39.47-2.30L39.47-2.30L39.47-2.30Q40.94-3.68 40.94-5.70L40.94-5.70L40.94-45.08L40.94-45.08Q40.94-50.69 40.30-55.11L40.30-55.11L40.11-56.58L41.12-56.49L88.87-11.50L88.87-49.68L88.87-49.68Q88.69-51.61 87.22-52.95L87.22-52.95L87.22-52.95Q85.74-54.28 83.72-54.28L83.72-54.28L82.16-54.28L82.16-55.20L99.54-55.20L99.54-54.28ZM107.82-0.92L109.11-0.92L109.11-0.92Q111.60-0.92 113.44-2.39L113.44-2.39L113.44-2.39Q115.28-3.86 115.28-5.89L115.28-5.89L115.28-49.31L115.28-49.31Q115.28-51.34 113.44-52.81L113.44-52.81L113.44-52.81Q111.60-54.28 109.02-54.28L109.02-54.28L107.82-54.28L107.82-55.20L128.62-55.20L128.62-54.28L127.42-54.28L127.42-54.28Q124.94-54.28 123.14-52.90L123.14-52.90L123.14-52.90Q121.35-51.52 121.16-49.50L121.16-49.50L121.16-5.80L121.16-5.80Q121.26-3.77 123.10-2.35L123.10-2.35L123.10-2.35Q124.94-0.92 127.42-0.92L127.42-0.92L128.62-0.92L128.71 0L107.82 0L107.82-0.92ZM167.26 1.29L167.26 1.29Q153.18 1.20 145.04-6.53L145.04-6.53L145.04-6.53Q136.90-14.26 136.90-27.65L136.90-27.65L136.90-27.65Q136.90-41.03 145.04-48.76L145.04-48.76L145.04-48.76Q153.18-56.49 167.26-56.49L167.26-56.49L167.26-56.49Q172.96-56.49 178.76-55.02L178.76-55.02L178.76-55.02Q184.55-53.54 188.78-50.97L188.78-50.97L190.81-37.90L189.98-37.90L189.98-37.90Q186.02-53.73 167.16-53.73L167.16-53.73L167.16-53.73Q156.22-53.73 149.87-46.74L149.87-46.74L149.87-46.74Q143.52-39.74 143.52-27.60L143.52-27.60L143.52-27.60Q143.52-19.69 146.37-13.85L146.37-13.85L146.37-13.85Q149.22-8.00 154.65-4.78L154.65-4.78L154.65-4.78Q160.08-1.56 167.26-1.56L167.26-1.56L167.26-1.56Q174.43-1.56 179.81-3.73L179.81-3.73L179.81-3.73Q185.20-5.89 188.74-10.86L188.74-10.86L188.74-10.86Q192.28-15.82 192.74-23.18L192.74-23.18L193.57-23.18L192.56-10.58L192.56-10.58Q188.97-5.06 182.16-1.89L182.16-1.89L182.16-1.89Q175.35 1.29 167.26 1.29L167.26 1.29ZM202.22-0.92L203.50-0.92L203.50-0.92Q205.99-0.92 207.83-2.39L207.83-2.39L207.83-2.39Q209.67-3.86 209.67-5.89L209.67-5.89L209.67-49.31L209.67-49.31Q209.67-51.34 207.83-52.81L207.83-52.81L207.83-52.81Q205.99-54.28 203.41-54.28L203.41-54.28L202.22-54.28L202.22-55.20L223.01-55.20L223.01-54.28L221.81-54.28L221.81-54.28Q219.33-54.28 217.53-52.90L217.53-52.90L217.53-52.90Q215.74-51.52 215.56-49.50L215.56-49.50L215.56-5.80L215.56-5.80Q215.65-3.77 217.49-2.35L217.49-2.35L217.49-2.35Q219.33-0.92 221.81-0.92L221.81-0.92L223.01-0.92L223.10 0L202.22 0L202.22-0.92ZM246.74-52.85L246.74-52.85L246.74-52.85Q253.83-56.49 262.34-56.49L262.34-56.49L262.34-56.49Q270.85-56.49 277.93-52.85L277.93-52.85L277.93-52.85Q285.02-49.22 289.20-42.60L289.20-42.60L289.20-42.60Q293.39-35.97 293.39-27.60L293.39-27.60L293.39-27.60Q293.39-19.23 289.20-12.60L289.20-12.60L289.20-12.60Q285.02-5.98 277.93-2.35L277.93-2.35L277.93-2.35Q270.85 1.29 263.40 1.29L263.40 1.29L263.40 1.29Q255.94 1.29 250.24-0.83L250.24-0.83L250.24-0.83Q244.54-2.94 240.35-6.72L240.35-6.72L240.35-6.72Q236.16-10.49 233.73-15.92L233.73-15.92L233.73-15.92Q231.29-21.34 231.29-28.66L231.29-28.66L231.29-28.66Q231.29-35.97 235.47-42.60L235.47-42.60L235.47-42.60Q239.66-49.22 246.74-52.85ZM245.04-8.79L245.04-8.79L245.04-8.79Q251.99-1.47 262.29-1.47L262.29-1.47L262.29-1.47Q272.60-1.47 279.59-8.79L279.59-8.79L279.59-8.79Q286.58-16.10 286.58-27.60L286.58-27.60L286.58-27.60Q286.58-39.10 279.59-46.41L279.59-46.41L279.59-46.41Q272.60-53.73 262.29-53.73L262.29-53.73L262.29-53.73Q251.99-53.73 245.04-46.41L245.04-46.41L245.04-46.41Q238.10-39.10 238.10-27.60L238.10-27.60L238.10-27.60Q238.10-16.10 245.04-8.79Z" fill="#774023"></path></g></g><style>text {
  font-size: 64px;
  font-family: Arial Black;
  dominant-baseline: central;
  text-anchor: middle;
}</style></svg>