<svg width="204.70000610351562px" height="92.8000015258789px" xmlns="http://www.w3.org/2000/svg" viewBox="147.64999694824218 28.59999923706055 204.70000610351562 92.8000015258789" style="background: rgb(253, 253, 253);" preserveAspectRatio="xMidYMid"><defs><filter id="editing-hole" x="-100%" y="-100%" width="300%" height="300%"><feFlood flood-color="#bbcedd" result="black"></feFlood><feMorphology operator="dilate" radius="2" in="SourceGraphic" result="erode"></feMorphology><feGaussianBlur in="erode" stdDeviation="4" result="blur"></feGaussianBlur><feOffset in="blur" dx="2" dy="2" result="offset"></feOffset><feComposite operator="atop" in="offset" in2="black" result="merge"></feComposite><feComposite operator="in" in="merge" in2="SourceGraphic" result="inner-shadow"></feComposite></filter></defs><g filter="url(#editing-hole)"><g transform="translate(182.37999266386032, 93.37999534606934)"><path d="M11.16-27.60L10.64-27.60L10.64-27.60Q9.20-27.60 8.44-26.36L8.44-26.36L8.44-26.36Q8.12-25.80 8.08-25.08L8.08-25.08L8.08 0L8.08 0Q8.08 3.36 5.98 5.68L5.98 5.68L5.98 5.68Q3.88 8 0.80 8L0.80 8L0.80 7.64L0.80 7.64Q2.76 6.96 4.12 4.70L4.12 4.70L4.12 4.70Q5.48 2.44 5.48-0.12L5.48-0.12L5.48-25.08L5.48-25.08Q5.44-26.12 4.70-26.86L4.70-26.86L4.70-26.86Q3.96-27.60 2.92-27.60L2.92-27.60L2.40-27.60L2.40-28L11.16-28L11.16-27.60ZM15.16-0.40L15.72-0.40L15.72-0.40Q16.68-0.40 17.34-1.02L17.34-1.02L17.34-1.02Q18-1.64 18.04-2.52L18.04-2.52L18.04-21.52L18.04-21.52Q18.04-22.40 17.36-23L17.36-23L17.36-23Q16.68-23.60 15.72-23.60L15.72-23.60L15.16-23.60L15.16-24L26.84-24L26.84-24Q28.48-24 29.72-24.24L29.72-24.24L29.72-24.24Q30.96-24.48 31.32-24.64L31.32-24.64L31.32-20.08L30.88-20.12L30.88-20.72L30.88-20.72Q30.88-21.56 30.32-22.16L30.32-22.16L30.32-22.16Q29.76-22.76 28.88-22.76L28.88-22.76L20.56-22.76L20.56-12.60L27.40-12.60L27.40-12.60Q28.20-12.60 28.62-13.08L28.62-13.08L28.62-13.08Q29.04-13.56 29.04-14.28L29.04-14.28L29.04-14.80L29.48-14.80L29.48-9.20L29.04-9.20L29.04-9.72L29.04-9.72Q29.04-10.84 28.20-11.24L28.20-11.24L28.20-11.24Q27.88-11.36 27.52-11.40L27.52-11.40L20.56-11.40L20.56-1.24L26.84-1.24L26.84-1.24Q28.68-1.24 29.94-1.88L29.94-1.88L29.94-1.88Q31.20-2.52 31.86-3.40L31.86-3.40L31.86-3.40Q32.52-4.28 33.20-5.72L33.20-5.72L33.60-5.72L31.40 0L15.16 0L15.16-0.40ZM37.12-1.32L37.12-1.32L37.12-1.32Q37-1.80 37-3.28L37-3.28L37-3.28Q37-4.76 37.52-6.28L37.52-6.28L38-6.28L38-6.28Q37.96-5.92 37.96-5.56L37.96-5.56L37.96-5.56Q37.96-3.40 39.38-2.02L39.38-2.02L39.38-2.02Q40.80-0.64 43.32-0.64L43.32-0.64L43.32-0.64Q45.96-0.64 47.44-1.86L47.44-1.86L47.44-1.86Q48.92-3.08 48.92-5.02L48.92-5.02L48.92-5.02Q48.92-6.96 47.48-8.24L47.48-8.24L39.48-14.40L39.48-14.40Q37.56-16.04 37.56-18.80L37.56-18.80L37.56-18.80Q37.56-20.36 38.42-21.68L38.42-21.68L38.42-21.68Q39.28-23 40.82-23.78L40.82-23.78L40.82-23.78Q42.36-24.56 44.44-24.56L44.44-24.56L44.44-24.56Q46.52-24.56 48.12-24.20L48.12-24.20L49.44-24.20L49.52-19.84L49.08-19.84L49.08-19.84Q49.08-21.52 47.92-22.44L47.92-22.44L47.92-22.44Q46.76-23.36 44.60-23.36L44.60-23.36L44.60-23.36Q42.44-23.36 41.04-22.26L41.04-22.26L41.04-22.26Q39.64-21.16 39.64-19.42L39.64-19.42L39.64-19.42Q39.64-17.68 41.20-16.40L41.20-16.40L49.28-10.16L49.28-10.16Q51.12-8.64 51.12-5.92L51.12-5.92L51.12-5.92Q51.12-3.20 49.06-1.32L49.06-1.32L49.06-1.32Q47 0.56 44.04 0.56L44.04 0.56L44.04 0.56Q42.08 0.56 40.12 0.08L40.12 0.08L40.12 0.08Q38.16-0.40 37.12-1.32ZM79.88-24L79.88-23.60L79.28-23.60L79.28-23.60Q78.20-23.60 77.64-22.76L77.64-22.76L77.64-22.76Q77.40-22.40 77.36-21.92L77.36-21.92L77.36-8.44L77.36-8.44Q77.36-4.28 74.70-1.86L74.70-1.86L74.70-1.86Q72.04 0.56 67.40 0.56L67.40 0.56L67.40 0.56Q62.76 0.56 60.08-1.84L60.08-1.84L60.08-1.84Q57.40-4.24 57.40-8.40L57.40-8.40L57.40-21.88L57.40-21.88Q57.40-22.60 56.84-23.10L56.84-23.10L56.84-23.10Q56.28-23.60 55.48-23.60L55.48-23.60L54.88-23.60L54.88-24L62.48-24L62.48-23.60L61.88-23.60L61.88-23.60Q61.08-23.60 60.52-23.10L60.52-23.10L60.52-23.10Q59.96-22.60 59.96-21.88L59.96-21.88L59.96-8.88L59.96-8.88Q59.96-5 61.94-2.76L61.94-2.76L61.94-2.76Q63.92-0.52 67.54-0.52L67.54-0.52L67.54-0.52Q71.16-0.52 73.34-2.64L73.34-2.64L73.34-2.64Q75.52-4.76 75.52-8.44L75.52-8.44L75.52-21.88L75.52-21.88Q75.48-22.64 74.94-23.12L74.94-23.12L74.94-23.12Q74.40-23.60 73.60-23.60L73.60-23.60L73-23.60L73-24L79.88-24ZM83.60-1.32L83.60-1.32L83.60-1.32Q83.48-1.80 83.48-3.28L83.48-3.28L83.48-3.28Q83.48-4.76 84-6.28L84-6.28L84.48-6.28L84.48-6.28Q84.44-5.92 84.44-5.56L84.44-5.56L84.44-5.56Q84.44-3.40 85.86-2.02L85.86-2.02L85.86-2.02Q87.28-0.64 89.80-0.64L89.80-0.64L89.80-0.64Q92.44-0.64 93.92-1.86L93.92-1.86L93.92-1.86Q95.40-3.08 95.40-5.02L95.40-5.02L95.40-5.02Q95.40-6.96 93.96-8.24L93.96-8.24L85.96-14.40L85.96-14.40Q84.04-16.04 84.04-18.80L84.04-18.80L84.04-18.80Q84.04-20.36 84.90-21.68L84.90-21.68L84.90-21.68Q85.76-23 87.30-23.78L87.30-23.78L87.30-23.78Q88.84-24.56 90.92-24.56L90.92-24.56L90.92-24.56Q93-24.56 94.60-24.20L94.60-24.20L95.92-24.20L96-19.84L95.56-19.84L95.56-19.84Q95.56-21.52 94.40-22.44L94.40-22.44L94.40-22.44Q93.24-23.36 91.08-23.36L91.08-23.36L91.08-23.36Q88.92-23.36 87.52-22.26L87.52-22.26L87.52-22.26Q86.12-21.16 86.12-19.42L86.12-19.42L86.12-19.42Q86.12-17.68 87.68-16.40L87.68-16.40L95.76-10.16L95.76-10.16Q97.60-8.64 97.60-5.92L97.60-5.92L97.60-5.92Q97.60-3.20 95.54-1.32L95.54-1.32L95.54-1.32Q93.48 0.56 90.52 0.56L90.52 0.56L90.52 0.56Q88.56 0.56 86.60 0.08L86.60 0.08L86.60 0.08Q84.64-0.40 83.60-1.32ZM134.44-6.16L133.12 0L112.16 0L112.16-0.36L128.96-26.84L115.48-26.84L115.48-26.84Q114.48-26.80 113.80-26.12L113.80-26.12L113.80-26.12Q113.12-25.44 113.12-24.44L113.12-24.44L113.12-23.72L112.72-23.72L112.72-28.76L112.72-28.76Q113.32-28.52 114.84-28.28L114.84-28.28L114.84-28.28Q116.36-28.04 116.98-28.04L116.98-28.04L116.98-28.04Q117.60-28.04 117.60-28.04L117.60-28.04L128.72-28.04L128.72-28.04Q130.68-28.04 131.72-28.26L131.72-28.26L131.72-28.26Q132.76-28.48 132.96-28.56L132.96-28.56L132.96-28.20L115.84-1.20L128.56-1.20L128.56-1.20Q130.68-1.20 132.04-2.56L132.04-2.56L132.04-2.56Q133.40-3.92 134.04-6.16L134.04-6.16L134.44-6.16Z" fill="#ffffff"></path></g></g><style>text {
  font-size: 64px;
  font-family: Arial Black;
  dominant-baseline: central;
  text-anchor: middle;
}</style></svg>