<svg width="129.0656280517578px" height="92.8000015258789px" xmlns="http://www.w3.org/2000/svg" viewBox="185.4671859741211 28.59999923706055 129.0656280517578 92.8000015258789" style="background: none;" preserveAspectRatio="xMidYMid"><defs><filter id="editing-hole" x="-100%" y="-100%" width="300%" height="300%"><feFlood flood-color="#d88c51" result="black"></feFlood><feMorphology operator="dilate" radius="2" in="SourceGraphic" result="erode"></feMorphology><feGaussianBlur in="erode" stdDeviation="4" result="blur"></feGaussianBlur><feOffset in="blur" dx="2" dy="2" result="offset"></feOffset><feComposite operator="atop" in="offset" in2="black" result="merge"></feComposite><feComposite operator="in" in="merge" in2="SourceGraphic" result="inner-shadow"></feComposite></filter></defs><g filter="url(#editing-hole)"><g transform="translate(210.43557280302048, 93.37999534606934)"><path d="M11.16-27.60L10.64-27.60L10.64-27.60Q9.20-27.60 8.44-26.36L8.44-26.36L8.44-26.36Q8.12-25.80 8.08-25.08L8.08-25.08L8.08 0L8.08 0Q8.08 3.36 5.98 5.68L5.98 5.68L5.98 5.68Q3.88 8 0.80 8L0.80 8L0.80 7.64L0.80 7.64Q2.76 6.96 4.12 4.70L4.12 4.70L4.12 4.70Q5.48 2.44 5.48-0.12L5.48-0.12L5.48-25.08L5.48-25.08Q5.44-26.12 4.70-26.86L4.70-26.86L4.70-26.86Q3.96-27.60 2.92-27.60L2.92-27.60L2.40-27.60L2.40-28L11.16-28L11.16-27.60ZM24.12-27.60L23.60-27.60L23.60-27.60Q22.16-27.60 21.40-26.36L21.40-26.36L21.40-26.36Q21.08-25.80 21.04-25.08L21.04-25.08L21.04 0L21.04 0Q21.04 3.36 18.94 5.68L18.94 5.68L18.94 5.68Q16.84 8 13.76 8L13.76 8L13.76 7.64L13.76 7.64Q15.72 6.96 17.08 4.70L17.08 4.70L17.08 4.70Q18.44 2.44 18.44-0.12L18.44-0.12L18.44-25.08L18.44-25.08Q18.40-26.12 17.66-26.86L17.66-26.86L17.66-26.86Q16.92-27.60 15.88-27.60L15.88-27.60L15.36-27.60L15.36-28L24.12-28L24.12-27.60ZM50.60-6.16L49.28 0L28.32 0L28.32-0.36L45.12-26.84L31.64-26.84L31.64-26.84Q30.64-26.80 29.96-26.12L29.96-26.12L29.96-26.12Q29.28-25.44 29.28-24.44L29.28-24.44L29.28-23.72L28.88-23.72L28.88-28.76L28.88-28.76Q29.48-28.52 31-28.28L31-28.28L31-28.28Q32.52-28.04 33.14-28.04L33.14-28.04L33.14-28.04Q33.76-28.04 33.76-28.04L33.76-28.04L44.88-28.04L44.88-28.04Q46.84-28.04 47.88-28.26L47.88-28.26L47.88-28.26Q48.92-28.48 49.12-28.56L49.12-28.56L49.12-28.20L32-1.20L44.72-1.20L44.72-1.20Q46.84-1.20 48.20-2.56L48.20-2.56L48.20-2.56Q49.56-3.92 50.20-6.16L50.20-6.16L50.60-6.16ZM62.60-26.76L62.60-26.76L60.04-26.76L60.04-2.92L60.04-2.92Q60.04-1.88 60.78-1.14L60.78-1.14L60.78-1.14Q61.52-0.40 62.60-0.40L62.60-0.40L63.08-0.40L63.12 0L54.36 0L54.36-0.40L54.88-0.40L54.88-0.40Q55.92-0.40 56.66-1.12L56.66-1.12L56.66-1.12Q57.40-1.84 57.44-2.88L57.44-2.88L57.44-25.08L57.44-25.08Q57.40-26.12 56.66-26.86L56.66-26.86L56.66-26.86Q55.92-27.60 54.88-27.60L54.88-27.60L54.36-27.60L54.36-28L65.16-28L65.16-28Q68.80-28 70.88-25.98L70.88-25.98L70.88-25.98Q72.96-23.96 72.96-20.74L72.96-20.74L72.96-20.74Q72.96-17.52 70.98-15.18L70.98-15.18L70.98-15.18Q69-12.84 66.16-12.84L66.16-12.84L66.16-12.84Q66.76-12.56 67.58-11.74L67.58-11.74L67.58-11.74Q68.40-10.92 69.04-10.04L69.04-10.04L69.04-10.04Q72.48-5.12 73.52-3.98L73.52-3.98L73.52-3.98Q74.56-2.84 75-2.42L75-2.42L75-2.42Q75.44-2 75.96-1.60L75.96-1.60L75.96-1.60Q76.48-1.20 77-0.96L77-0.96L77-0.96Q78.16-0.40 79.48-0.40L79.48-0.40L79.48 0L77.28 0L77.28 0Q75.56 0 74.08-0.62L74.08-0.62L74.08-0.62Q72.60-1.24 71.86-1.90L71.86-1.90L71.86-1.90Q71.12-2.56 70.58-3.18L70.58-3.18L70.58-3.18Q70.04-3.80 67.60-7.32L67.60-7.32L67.60-7.32Q65.16-10.84 64.76-11.34L64.76-11.34L64.76-11.34Q64.36-11.84 63.92-12.32L63.92-12.32L63.92-12.32Q62.64-13.68 61.36-13.68L61.36-13.68L61.36-14.08L61.36-14.08Q61.68-14.04 62.20-14.04L62.20-14.04L62.20-14.04Q62.72-14.04 63.48-14.08L63.48-14.08L63.48-14.08Q68.44-14.20 69.72-18.24L69.72-18.24L69.72-18.24Q69.96-19.04 69.96-19.74L69.96-19.74L69.96-19.74Q69.96-20.44 69.96-20.64L69.96-20.64L69.96-20.64Q69.88-23.32 68.56-24.96L68.56-24.96L68.56-24.96Q67.24-26.60 65-26.72L65-26.72L65-26.72Q64.04-26.76 62.60-26.76Z" fill="#774023"></path></g></g><style>text {
  font-size: 64px;
  font-family: Arial Black;
  dominant-baseline: central;
  text-anchor: middle;
}</style></svg>