<svg width="202.4375px" height="137.6px" xmlns="http://www.w3.org/2000/svg" viewBox="148.78125 6.200000000000003 202.4375 137.6" style="background: none;" preserveAspectRatio="xMidYMid"><defs><filter id="editing-extrude-glow"><feFlood flood-color="#cfd7cc" result="flood-1"></feFlood><feMorphology operator="erode" radius="1" in="SourceAlpha" result="erode"></feMorphology><feComposite operator="in" in="flood-1" in2="erode" result="comp1"></feComposite><feConvolveMatrix order="3,3" divisor="1" in="comp1" result="convolve" kernelMatrix="0 0 0 1 1 1 0 0 0"></feConvolveMatrix><feOffset dx="-3" dy="0" in="convolve" result="extrude"></feOffset><feComposite operator="in" in="flood-1" in2="extrude" result="comp-extrude"></feComposite><feFlood flood-color="#f8f9f8" result="flood-2"></feFlood><feComposite operator="in" in="flood-2" in2="SourceAlpha" result="comp2"></feComposite><feMorphology operator="dilate" radius="1" in="comp2" result="dilate"></feMorphology><feOffset dx="-4.5" dy="0" in="dilate" result="offset"></feOffset><feGaussianBlur in="offset" stdDeviation="5.8" result="blur"></feGaussianBlur><feComponentTransfer in="blur" result="shadow"><feFuncA type="linear" slope="0.8" intercept="-0.2"></feFuncA></feComponentTransfer><feMerge><feMergeNode in="shadow"></feMergeNode><feMergeNode in="comp-extrude"></feMergeNode><feMergeNode in="SourceGraphic"></feMergeNode></feMerge></filter></defs><g filter="url(#editing-extrude-glow)"><g transform="translate(183.25000643730164, 107.06500244140625)"><path d="M17.86-44.16L17.02-44.16L17.02-44.16Q14.72-44.16 13.50-42.18L13.50-42.18L13.50-42.18Q12.99-41.28 12.93-40.13L12.93-40.13L12.93 0L12.93 0Q12.93 5.38 9.57 9.09L9.57 9.09L9.57 9.09Q6.21 12.80 1.28 12.80L1.28 12.80L1.28 12.22L1.28 12.22Q4.42 11.14 6.59 7.52L6.59 7.52L6.59 7.52Q8.77 3.90 8.77-0.19L8.77-0.19L8.77-40.13L8.77-40.13Q8.70-41.79 7.52-42.98L7.52-42.98L7.52-42.98Q6.34-44.16 4.67-44.16L4.67-44.16L3.84-44.16L3.84-44.80L17.86-44.80L17.86-44.16ZM34.05-36.77L34.05-36.77L34.05-36.77Q38.98-39.30 44.90-39.30L44.90-39.30L44.90-39.30Q50.82-39.30 55.74-36.77L55.74-36.77L55.74-36.77Q60.67-34.24 63.58-29.63L63.58-29.63L63.58-29.63Q66.50-25.02 66.50-19.20L66.50-19.20L66.50-19.20Q66.50-13.38 63.58-8.77L63.58-8.77L63.58-8.77Q60.67-4.16 55.74-1.63L55.74-1.63L55.74-1.63Q50.82 0.90 45.63 0.90L45.63 0.90L45.63 0.90Q40.45 0.90 36.48-0.58L36.48-0.58L36.48-0.58Q32.51-2.05 29.60-4.67L29.60-4.67L29.60-4.67Q26.69-7.30 24.99-11.07L24.99-11.07L24.99-11.07Q23.30-14.85 23.30-19.94L23.30-19.94L23.30-19.94Q23.30-25.02 26.21-29.63L26.21-29.63L26.21-29.63Q29.12-34.24 34.05-36.77ZM32.86-6.11L32.86-6.11L32.86-6.11Q37.70-1.02 44.86-1.02L44.86-1.02L44.86-1.02Q52.03-1.02 56.90-6.11L56.90-6.11L56.90-6.11Q61.76-11.20 61.76-19.20L61.76-19.20L61.76-19.20Q61.76-27.20 56.90-32.29L56.90-32.29L56.90-32.29Q52.03-37.38 44.86-37.38L44.86-37.38L44.86-37.38Q37.70-37.38 32.86-32.29L32.86-32.29L32.86-32.29Q28.03-27.20 28.03-19.20L28.03-19.20L28.03-19.20Q28.03-11.20 32.86-6.11ZM73.34-2.11L73.34-2.11L73.34-2.11Q73.15-2.88 73.15-5.25L73.15-5.25L73.15-5.25Q73.15-7.62 73.98-10.05L73.98-10.05L74.75-10.05L74.75-10.05Q74.69-9.47 74.69-8.90L74.69-8.90L74.69-8.90Q74.69-5.44 76.96-3.23L76.96-3.23L76.96-3.23Q79.23-1.02 83.26-1.02L83.26-1.02L83.26-1.02Q87.49-1.02 89.86-2.98L89.86-2.98L89.86-2.98Q92.22-4.93 92.22-8.03L92.22-8.03L92.22-8.03Q92.22-11.14 89.92-13.18L89.92-13.18L77.12-23.04L77.12-23.04Q74.05-25.66 74.05-30.08L74.05-30.08L74.05-30.08Q74.05-32.58 75.42-34.69L75.42-34.69L75.42-34.69Q76.80-36.80 79.26-38.05L79.26-38.05L79.26-38.05Q81.73-39.30 85.06-39.30L85.06-39.30L85.06-39.30Q88.38-39.30 90.94-38.72L90.94-38.72L93.06-38.72L93.18-31.74L92.48-31.74L92.48-31.74Q92.48-34.43 90.62-35.90L90.62-35.90L90.62-35.90Q88.77-37.38 85.31-37.38L85.31-37.38L85.31-37.38Q81.86-37.38 79.62-35.62L79.62-35.62L79.62-35.62Q77.38-33.86 77.38-31.07L77.38-31.07L77.38-31.07Q77.38-28.29 79.87-26.24L79.87-26.24L92.80-16.26L92.80-16.26Q95.74-13.82 95.74-9.47L95.74-9.47L95.74-9.47Q95.74-5.12 92.45-2.11L92.45-2.11L92.45-2.11Q89.15 0.90 84.42 0.90L84.42 0.90L84.42 0.90Q81.28 0.90 78.14 0.13L78.14 0.13L78.14 0.13Q75.01-0.64 73.34-2.11ZM118.21-42.50L118.21-42.50L117.76-42.94L117.76-42.94Q122.62-48.19 125.89-51.33L125.89-51.33L125.89-51.33Q127.62-49.60 128.51-47.94L128.51-47.94L128.51-47.94Q124.35-45.57 118.21-42.50ZM102.72-0.64L103.62-0.64L103.62-0.64Q105.15-0.64 106.21-1.63L106.21-1.63L106.21-1.63Q107.26-2.62 107.33-4.03L107.33-4.03L107.33-34.43L107.33-34.43Q107.33-35.84 106.24-36.80L106.24-36.80L106.24-36.80Q105.15-37.76 103.62-37.76L103.62-37.76L102.72-37.76L102.72-38.40L121.41-38.40L121.41-38.40Q123.26-38.40 125.47-38.72L125.47-38.72L125.47-38.72Q127.68-39.04 128.58-39.42L128.58-39.42L128.58-32.19L127.87-32.19L127.87-33.15L127.87-33.15Q127.87-35.07 126.34-35.97L126.34-35.97L126.34-35.97Q125.63-36.42 124.67-36.42L124.67-36.42L111.36-36.42L111.36-20.16L122.30-20.16L122.30-20.16Q124.03-20.22 124.67-21.50L124.67-21.50L124.67-21.50Q124.93-22.14 124.93-22.85L124.93-22.85L124.93-23.68L125.63-23.68L125.63-14.72L124.93-14.72L124.93-15.55L124.93-15.55Q124.93-16.64 124.29-17.41L124.29-17.41L124.29-17.41Q123.65-18.18 122.50-18.24L122.50-18.24L111.36-18.24L111.36-1.98L121.41-1.98L121.41-1.98Q124.35-1.98 126.37-3.01L126.37-3.01L126.37-3.01Q128.38-4.03 129.44-5.44L129.44-5.44L129.44-5.44Q130.50-6.85 131.58-9.15L131.58-9.15L132.22-9.15L128.70 0L102.72 0L102.72-0.64Z" fill="#80a352"></path></g></g><style>text {
  font-size: 64px;
  font-family: Arial Black;
  dominant-baseline: central;
  text-anchor: middle;
}</style></svg>