<svg width="105.51875px" height="75.19999999999999px" xmlns="http://www.w3.org/2000/svg" viewBox="197.240625 37.400000000000006 105.51875 75.19999999999999" style="background: none;" preserveAspectRatio="xMidYMid"><defs><filter id="editing-hover" x="-100%" y="-100%" width="300%" height="300%"><feFlood flood-color="#d88c51" result="flood"></feFlood><feComposite operator="in" in2="SourceAlpha" in="flood" result="shadow"></feComposite><feOffset dx="-0.6" dy="0" in="SourceGraphic" result="offset-1"></feOffset><feOffset dx="0.6" dy="0" in="shadow" result="offset-2"></feOffset><feMerge><feMergeNode in="offset-2"></feMergeNode><feMergeNode in="offset-1"></feMergeNode></feMerge></filter></defs><g filter="url(#editing-hover)"><g transform="translate(218.71001279354095, 90.02999973297119)"><path d="M8.37-20.70L7.98-20.70L7.98-20.70Q6.90-20.70 6.33-19.77L6.33-19.77L6.33-19.77Q6.09-19.35 6.06-18.81L6.06-18.81L6.06 0L6.06 0Q6.06 2.52 4.48 4.26L4.48 4.26L4.48 4.26Q2.91 6 0.60 6L0.60 6L0.60 5.73L0.60 5.73Q2.07 5.22 3.09 3.52L3.09 3.52L3.09 3.52Q4.11 1.83 4.11-0.09L4.11-0.09L4.11-18.81L4.11-18.81Q4.08-19.59 3.52-20.14L3.52-20.14L3.52-20.14Q2.97-20.70 2.19-20.70L2.19-20.70L1.80-20.70L1.80-21L8.37-21L8.37-20.70ZM15.96-17.23L15.96-17.23L15.96-17.23Q18.27-18.42 21.04-18.42L21.04-18.42L21.04-18.42Q23.82-18.42 26.13-17.23L26.13-17.23L26.13-17.23Q28.44-16.05 29.80-13.89L29.80-13.89L29.80-13.89Q31.17-11.73 31.17-9L31.17-9L31.17-9Q31.17-6.27 29.80-4.11L29.80-4.11L29.80-4.11Q28.44-1.95 26.13-0.77L26.13-0.77L26.13-0.77Q23.82 0.42 21.39 0.42L21.39 0.42L21.39 0.42Q18.96 0.42 17.10-0.27L17.10-0.27L17.10-0.27Q15.24-0.96 13.87-2.19L13.87-2.19L13.87-2.19Q12.51-3.42 11.71-5.19L11.71-5.19L11.71-5.19Q10.92-6.96 10.92-9.34L10.92-9.34L10.92-9.34Q10.92-11.73 12.28-13.89L12.28-13.89L12.28-13.89Q13.65-16.05 15.96-17.23ZM15.40-2.86L15.40-2.86L15.40-2.86Q17.67-0.48 21.03-0.48L21.03-0.48L21.03-0.48Q24.39-0.48 26.67-2.86L26.67-2.86L26.67-2.86Q28.95-5.25 28.95-9L28.95-9L28.95-9Q28.95-12.75 26.67-15.13L26.67-15.13L26.67-15.13Q24.39-17.52 21.03-17.52L21.03-17.52L21.03-17.52Q17.67-17.52 15.40-15.13L15.40-15.13L15.40-15.13Q13.14-12.75 13.14-9L13.14-9L13.14-9Q13.14-5.25 15.40-2.86ZM34.38-0.99L34.38-0.99L34.38-0.99Q34.29-1.35 34.29-2.46L34.29-2.46L34.29-2.46Q34.29-3.57 34.68-4.71L34.68-4.71L35.04-4.71L35.04-4.71Q35.01-4.44 35.01-4.17L35.01-4.17L35.01-4.17Q35.01-2.55 36.08-1.51L36.08-1.51L36.08-1.51Q37.14-0.48 39.03-0.48L39.03-0.48L39.03-0.48Q41.01-0.48 42.12-1.40L42.12-1.40L42.12-1.40Q43.23-2.31 43.23-3.76L43.23-3.76L43.23-3.76Q43.23-5.22 42.15-6.18L42.15-6.18L36.15-10.80L36.15-10.80Q34.71-12.03 34.71-14.10L34.71-14.10L34.71-14.10Q34.71-15.27 35.36-16.26L35.36-16.26L35.36-16.26Q36-17.25 37.16-17.84L37.16-17.84L37.16-17.84Q38.31-18.42 39.87-18.42L39.87-18.42L39.87-18.42Q41.43-18.42 42.63-18.15L42.63-18.15L43.62-18.15L43.68-14.88L43.35-14.88L43.35-14.88Q43.35-16.14 42.48-16.83L42.48-16.83L42.48-16.83Q41.61-17.52 39.99-17.52L39.99-17.52L39.99-17.52Q38.37-17.52 37.32-16.70L37.32-16.70L37.32-16.70Q36.27-15.87 36.27-14.56L36.27-14.56L36.27-14.56Q36.27-13.26 37.44-12.30L37.44-12.30L43.50-7.62L43.50-7.62Q44.88-6.48 44.88-4.44L44.88-4.44L44.88-4.44Q44.88-2.40 43.34-0.99L43.34-0.99L43.34-0.99Q41.79 0.42 39.57 0.42L39.57 0.42L39.57 0.42Q38.10 0.42 36.63 0.06L36.63 0.06L36.63 0.06Q35.16-0.30 34.38-0.99ZM55.41-19.92L55.41-19.92L55.20-20.13L55.20-20.13Q57.48-22.59 59.01-24.06L59.01-24.06L59.01-24.06Q59.82-23.25 60.24-22.47L60.24-22.47L60.24-22.47Q58.29-21.36 55.41-19.92ZM48.15-0.30L48.57-0.30L48.57-0.30Q49.29-0.30 49.78-0.77L49.78-0.77L49.78-0.77Q50.28-1.23 50.31-1.89L50.31-1.89L50.31-16.14L50.31-16.14Q50.31-16.80 49.80-17.25L49.80-17.25L49.80-17.25Q49.29-17.70 48.57-17.70L48.57-17.70L48.15-17.70L48.15-18L56.91-18L56.91-18Q57.78-18 58.81-18.15L58.81-18.15L58.81-18.15Q59.85-18.30 60.27-18.48L60.27-18.48L60.27-15.09L59.94-15.09L59.94-15.54L59.94-15.54Q59.94-16.44 59.22-16.86L59.22-16.86L59.22-16.86Q58.89-17.07 58.44-17.07L58.44-17.07L52.20-17.07L52.20-9.45L57.33-9.45L57.33-9.45Q58.14-9.48 58.44-10.08L58.44-10.08L58.44-10.08Q58.56-10.38 58.56-10.71L58.56-10.71L58.56-11.10L58.89-11.10L58.89-6.90L58.56-6.90L58.56-7.29L58.56-7.29Q58.56-7.80 58.26-8.16L58.26-8.16L58.26-8.16Q57.96-8.52 57.42-8.55L57.42-8.55L52.20-8.55L52.20-0.93L56.91-0.93L56.91-0.93Q58.29-0.93 59.23-1.41L59.23-1.41L59.23-1.41Q60.18-1.89 60.67-2.55L60.67-2.55L60.67-2.55Q61.17-3.21 61.68-4.29L61.68-4.29L61.98-4.29L60.33 0L48.15 0L48.15-0.30Z" fill="#774023"></path></g></g><style>text {
  font-size: 64px;
  font-family: Arial Black;
  dominant-baseline: central;
  text-anchor: middle;
}</style></svg>