<svg width="300.0125px" height="136.8000030517578px" xmlns="http://www.w3.org/2000/svg" viewBox="99.99375 6.599998474121094 300.0125 136.8000030517578" style="background: none;" preserveAspectRatio="xMidYMid"><defs><filter id="editing-extrusion" x="-100%" y="-100%" width="300%" height="300%"><feFlood result="color1" flood-color="#d88c51"></feFlood><feConvolveMatrix order="2,2" divisor="1" kernelMatrix="1 0 0 1" in="SourceAlpha" result="extrude"></feConvolveMatrix><feComposite in="color1" in2="extrude" result="comp-extrude" operator="in"></feComposite><feOffset dx="1" dy="1" in="comp-extrude" result="offset-extrude"></feOffset><feMerge><feMergeNode in="offset-extrude"></feMergeNode><feMergeNode in="SourceGraphic"></feMergeNode></feMerge></filter></defs><g filter="url(#editing-extrusion)"><g transform="translate(148.3049840927124, 98.29999732971191)"><path d="M57.60-0.64L57.60-0.64L58.62-0.64L58.62 0L44.74 0L44.74-0.58L45.70-0.58L45.70-0.58Q46.78-0.58 47.55-1.44L47.55-1.44L47.55-1.44Q48.32-2.30 48.19-3.33L48.19-3.33L45.31-35.52L31.87-5.63L31.87-5.63Q30.08-1.73 29.70 0.90L29.70 0.90L29.06 0.90L12.67-34.62L9.92-3.33L9.92-3.33Q9.79-2.30 10.56-1.44L10.56-1.44L10.56-1.44Q11.33-0.58 12.35-0.58L12.35-0.58L13.38-0.58L13.38 0L0.96 0L0.96-0.64L1.98-0.64L1.98-0.64Q3.78-0.64 5.09-1.73L5.09-1.73L5.09-1.73Q6.40-2.82 6.66-4.67L6.66-4.67L11.46-45.70L12.10-45.70L29.95-7.10L47.42-45.70L48-45.70L52.93-4.67L52.93-4.67Q53.25-2.11 55.49-1.09L55.49-1.09L55.49-1.09Q56.45-0.64 57.60-0.64ZM101.82-0.64L101.82-0.64L102.34-0.64L102.34 0L89.22 0L89.22-0.64L89.73-0.64L89.73-0.64Q90.94-0.64 91.58-1.47L91.58-1.47L91.58-1.47Q92.22-2.30 92.22-3.04L92.22-3.04L92.22-3.04Q92.22-3.78 91.97-4.48L91.97-4.48L88.45-12.99L72.26-12.99L68.74-4.67L68.74-4.67Q68.42-3.84 68.42-3.10L68.42-3.10L68.42-3.10Q68.42-2.37 69.06-1.50L69.06-1.50L69.06-1.50Q69.70-0.64 70.98-0.64L70.98-0.64L71.49-0.64L71.49 0L59.26 0L59.26-0.64L59.78-0.64L59.78-0.64Q61.12-0.64 62.50-1.57L62.50-1.57L62.50-1.57Q63.87-2.50 64.77-4.35L64.77-4.35L64.77-4.35Q78.78-34.30 79.36-35.71L79.36-35.71L79.36-35.71Q80.45-38.40 80.51-39.30L80.51-39.30L81.09-39.30L96.90-4.35L96.90-4.35Q98.75-0.64 101.82-0.64ZM80.51-32.45L73.09-14.91L87.68-14.91L80.51-32.45ZM116.67-17.54L116.67-18.18L116.67-18.18Q118.14-17.79 119.36-17.79L119.36-17.79L119.36-17.79Q120.58-17.79 121.34-17.86L121.34-17.86L121.34-17.86Q122.11-17.92 123.52-18.27L123.52-18.27L123.52-18.27Q124.93-18.62 126.08-19.39L126.08-19.39L126.08-19.39Q128.77-21.06 130.05-24.64L130.05-24.64L130.05-24.64Q130.50-25.92 130.50-28.10L130.50-28.10L130.50-28.10Q130.50-32 127.81-34.24L127.81-34.24L127.81-34.24Q125.12-36.48 120.38-36.48L120.38-36.48L114.18-36.48L114.18-4.10L114.18-4.10Q114.24-2.05 116.03-1.09L116.03-1.09L116.03-1.09Q116.86-0.64 117.89-0.64L117.89-0.64L118.78-0.64L118.78 0L105.54 0L105.54-0.64L106.43-0.64L106.43-0.64Q107.97-0.64 109.02-1.63L109.02-1.63L109.02-1.63Q110.08-2.62 110.14-4.03L110.14-4.03L110.14-34.37L110.14-34.37Q110.08-35.84 109.02-36.80L109.02-36.80L109.02-36.80Q107.97-37.76 106.43-37.76L106.43-37.76L105.54-37.76L105.54-38.40L120.51-38.40L120.51-38.40Q127.23-38.40 131.17-35.46L131.17-35.46L131.17-35.46Q135.10-32.51 135.10-27.52L135.10-27.52L135.10-27.52Q135.10-23.94 133.44-21.25L133.44-21.25L133.44-21.25Q130.18-16 123.33-16L123.33-16L123.33-16Q119.94-16 116.67-17.54L116.67-17.54ZM176.13-0.64L176.13-0.64L176.64-0.64L176.64 0L163.52 0L163.52-0.64L164.03-0.64L164.03-0.64Q165.25-0.64 165.89-1.47L165.89-1.47L165.89-1.47Q166.53-2.30 166.53-3.04L166.53-3.04L166.53-3.04Q166.53-3.78 166.27-4.48L166.27-4.48L162.75-12.99L146.56-12.99L143.04-4.67L143.04-4.67Q142.72-3.84 142.72-3.10L142.72-3.10L142.72-3.10Q142.72-2.37 143.36-1.50L143.36-1.50L143.36-1.50Q144-0.64 145.28-0.64L145.28-0.64L145.79-0.64L145.79 0L133.57 0L133.57-0.64L134.08-0.64L134.08-0.64Q135.42-0.64 136.80-1.57L136.80-1.57L136.80-1.57Q138.18-2.50 139.07-4.35L139.07-4.35L139.07-4.35Q153.09-34.30 153.66-35.71L153.66-35.71L153.66-35.71Q154.75-38.40 154.82-39.30L154.82-39.30L155.39-39.30L171.20-4.35L171.20-4.35Q173.06-0.64 176.13-0.64ZM154.82-32.45L147.39-14.91L161.98-14.91L154.82-32.45ZM180.03-2.11L180.03-2.11L180.03-2.11Q179.84-2.88 179.84-5.25L179.84-5.25L179.84-5.25Q179.84-7.62 180.67-10.05L180.67-10.05L181.44-10.05L181.44-10.05Q181.38-9.47 181.38-8.90L181.38-8.90L181.38-8.90Q181.38-5.44 183.65-3.23L183.65-3.23L183.65-3.23Q185.92-1.02 189.95-1.02L189.95-1.02L189.95-1.02Q194.18-1.02 196.54-2.98L196.54-2.98L196.54-2.98Q198.91-4.93 198.91-8.03L198.91-8.03L198.91-8.03Q198.91-11.14 196.61-13.18L196.61-13.18L183.81-23.04L183.81-23.04Q180.74-25.66 180.74-30.08L180.74-30.08L180.74-30.08Q180.74-32.58 182.11-34.69L182.11-34.69L182.11-34.69Q183.49-36.80 185.95-38.05L185.95-38.05L185.95-38.05Q188.42-39.30 191.74-39.30L191.74-39.30L191.74-39.30Q195.07-39.30 197.63-38.72L197.63-38.72L199.74-38.72L199.87-31.74L199.17-31.74L199.17-31.74Q199.17-34.43 197.31-35.90L197.31-35.90L197.31-35.90Q195.46-37.38 192-37.38L192-37.38L192-37.38Q188.54-37.38 186.30-35.62L186.30-35.62L186.30-35.62Q184.06-33.86 184.06-31.07L184.06-31.07L184.06-31.07Q184.06-28.29 186.56-26.24L186.56-26.24L199.49-16.26L199.49-16.26Q202.43-13.82 202.43-9.47L202.43-9.47L202.43-9.47Q202.43-5.12 199.14-2.11L199.14-2.11L199.14-2.11Q195.84 0.90 191.10 0.90L191.10 0.90L191.10 0.90Q187.97 0.90 184.83 0.13L184.83 0.13L184.83 0.13Q181.70-0.64 180.03-2.11Z" fill="#774023"></path></g></g><style>text {
  font-size: 64px;
  font-family: Arial Black;
  dominant-baseline: central;
  text-anchor: middle;
}</style></svg>