<svg width="302.5510009765625px" height="137.6px" xmlns="http://www.w3.org/2000/svg" viewBox="98.72449951171876 6.200000000000003 302.5510009765625 137.6" style="background: none;" preserveAspectRatio="xMidYMid"><defs><filter id="editing-extrude-glow"><feFlood flood-color="#cfd7cc" result="flood-1"></feFlood><feMorphology operator="erode" radius="1" in="SourceAlpha" result="erode"></feMorphology><feComposite operator="in" in="flood-1" in2="erode" result="comp1"></feComposite><feConvolveMatrix order="3,3" divisor="1" in="comp1" result="convolve" kernelMatrix="0 0 0 1 1 1 0 0 0"></feConvolveMatrix><feOffset dx="-3" dy="0" in="convolve" result="extrude"></feOffset><feComposite operator="in" in="flood-1" in2="extrude" result="comp-extrude"></feComposite><feFlood flood-color="#f8f9f8" result="flood-2"></feFlood><feComposite operator="in" in="flood-2" in2="SourceAlpha" result="comp2"></feComposite><feMorphology operator="dilate" radius="1" in="comp2" result="dilate"></feMorphology><feOffset dx="-4.5" dy="0" in="dilate" result="offset"></feOffset><feGaussianBlur in="offset" stdDeviation="5.8" result="blur"></feGaussianBlur><feComponentTransfer in="blur" result="shadow"><feFuncA type="linear" slope="0.8" intercept="-0.2"></feFuncA></feComponentTransfer><feMerge><feMergeNode in="shadow"></feMergeNode><feMergeNode in="comp-extrude"></feMergeNode><feMergeNode in="SourceGraphic"></feMergeNode></feMerge></filter></defs><g filter="url(#editing-extrude-glow)"><g transform="translate(147.163649559021, 98.30000114440918)"><path d="M57.60-0.64L57.60-0.64L58.62-0.64L58.62 0L44.74 0L44.74-0.58L45.70-0.58L45.70-0.58Q46.78-0.58 47.55-1.44L47.55-1.44L47.55-1.44Q48.32-2.30 48.19-3.33L48.19-3.33L45.31-35.52L31.87-5.63L31.87-5.63Q30.08-1.73 29.70 0.90L29.70 0.90L29.06 0.90L12.67-34.62L9.92-3.33L9.92-3.33Q9.79-2.30 10.56-1.44L10.56-1.44L10.56-1.44Q11.33-0.58 12.35-0.58L12.35-0.58L13.38-0.58L13.38 0L0.96 0L0.96-0.64L1.98-0.64L1.98-0.64Q3.78-0.64 5.09-1.73L5.09-1.73L5.09-1.73Q6.40-2.82 6.66-4.67L6.66-4.67L11.46-45.70L12.10-45.70L29.95-7.10L47.42-45.70L48-45.70L52.93-4.67L52.93-4.67Q53.25-2.11 55.49-1.09L55.49-1.09L55.49-1.09Q56.45-0.64 57.60-0.64ZM101.82-0.64L101.82-0.64L102.34-0.64L102.34 0L89.22 0L89.22-0.64L89.73-0.64L89.73-0.64Q90.94-0.64 91.58-1.47L91.58-1.47L91.58-1.47Q92.22-2.30 92.22-3.04L92.22-3.04L92.22-3.04Q92.22-3.78 91.97-4.48L91.97-4.48L88.45-12.99L72.26-12.99L68.74-4.67L68.74-4.67Q68.42-3.84 68.42-3.10L68.42-3.10L68.42-3.10Q68.42-2.37 69.06-1.50L69.06-1.50L69.06-1.50Q69.70-0.64 70.98-0.64L70.98-0.64L71.49-0.64L71.49 0L59.26 0L59.26-0.64L59.78-0.64L59.78-0.64Q61.12-0.64 62.50-1.57L62.50-1.57L62.50-1.57Q63.87-2.50 64.77-4.35L64.77-4.35L64.77-4.35Q78.78-34.30 79.36-35.71L79.36-35.71L79.36-35.71Q80.45-38.40 80.51-39.30L80.51-39.30L81.09-39.30L96.90-4.35L96.90-4.35Q98.75-0.64 101.82-0.64ZM80.51-32.45L73.09-14.91L87.68-14.91L80.51-32.45ZM117.50-36.42L117.50-36.42L114.11-36.42L114.11-4.10L114.11-4.10Q114.18-2.11 115.90-1.09L115.90-1.09L115.90-1.09Q116.74-0.64 117.76-0.64L117.76-0.64L118.59-0.64L118.66 0L105.54 0L105.54-0.64L106.43-0.64L106.43-0.64Q107.90-0.64 108.96-1.63L108.96-1.63L108.96-1.63Q110.02-2.62 110.02-4.03L110.02-4.03L110.02-34.43L110.02-34.43Q110.02-35.84 108.96-36.80L108.96-36.80L108.96-36.80Q107.90-37.76 106.43-37.76L106.43-37.76L105.54-37.76L105.54-38.40L121.60-38.40L121.60-38.40Q127.62-38.40 131.10-35.65L131.10-35.65L131.10-35.65Q134.59-32.90 134.59-28.42L134.59-28.42L134.59-28.42Q134.59-23.94 131.78-20.93L131.78-20.93L131.78-20.93Q128.96-17.92 124.61-17.47L124.61-17.47L124.61-17.47Q126.66-16.58 129.54-12.48L129.54-12.48L129.54-12.48Q129.47-12.48 131.74-9.66L131.74-9.66L131.74-9.66Q134.02-6.85 135.39-5.28L135.39-5.28L135.39-5.28Q136.77-3.71 137.66-2.88L137.66-2.88L137.66-2.88Q140.03-0.64 143.10-0.64L143.10-0.64L143.10 0L141.12 0L141.12 0Q136.06 0 133.18-1.98L133.18-1.98L133.18-1.98Q131.01-3.46 129.22-5.63L129.22-5.63L129.22-5.63Q128.83-6.14 125.98-10.14L125.98-10.14L125.98-10.14Q123.14-14.14 122.94-14.40L122.94-14.40L122.94-14.40Q119.49-18.69 116.48-18.69L116.48-18.69L116.48-19.33L116.48-19.33Q123.97-19.33 125.50-20.10L125.50-20.10L125.50-20.10Q127.62-21.18 128.38-22.40L128.38-22.40L128.38-22.40Q129.98-24.96 129.98-28.03L129.98-28.03L129.98-28.03Q129.98-31.94 127.68-34.05L127.68-34.05L127.68-34.05Q125.38-36.16 121.47-36.35L121.47-36.35L121.47-36.35Q119.74-36.42 117.50-36.42ZM145.66-0.64L146.56-0.64L146.56-0.64Q148.29-0.64 149.57-1.66L149.57-1.66L149.57-1.66Q150.85-2.69 150.85-4.10L150.85-4.10L150.85-34.30L150.85-34.30Q150.85-35.71 149.57-36.74L149.57-36.74L149.57-36.74Q148.29-37.76 146.50-37.76L146.50-37.76L145.66-37.76L145.66-38.40L160.13-38.40L160.13-37.76L159.30-37.76L159.30-37.76Q157.57-37.76 156.32-36.80L156.32-36.80L156.32-36.80Q155.07-35.84 154.94-34.43L154.94-34.43L154.94-4.03L154.94-4.03Q155.01-2.62 156.29-1.63L156.29-1.63L156.29-1.63Q157.57-0.64 159.30-0.64L159.30-0.64L160.13-0.64L160.19 0L145.66 0L145.66-0.64ZM205.89-0.64L205.89-0.64L206.40-0.64L206.40 0L193.28 0L193.28-0.64L193.79-0.64L193.79-0.64Q195.01-0.64 195.65-1.47L195.65-1.47L195.65-1.47Q196.29-2.30 196.29-3.04L196.29-3.04L196.29-3.04Q196.29-3.78 196.03-4.48L196.03-4.48L192.51-12.99L176.32-12.99L172.80-4.67L172.80-4.67Q172.48-3.84 172.48-3.10L172.48-3.10L172.48-3.10Q172.48-2.37 173.12-1.50L173.12-1.50L173.12-1.50Q173.76-0.64 175.04-0.64L175.04-0.64L175.55-0.64L175.55 0L163.33 0L163.33-0.64L163.84-0.64L163.84-0.64Q165.18-0.64 166.56-1.57L166.56-1.57L166.56-1.57Q167.94-2.50 168.83-4.35L168.83-4.35L168.83-4.35Q182.85-34.30 183.42-35.71L183.42-35.71L183.42-35.71Q184.51-38.40 184.58-39.30L184.58-39.30L185.15-39.30L200.96-4.35L200.96-4.35Q202.82-0.64 205.89-0.64ZM184.58-32.45L177.15-14.91L191.74-14.91L184.58-32.45Z" fill="#80a352"></path></g></g><style>text {
  font-size: 64px;
  font-family: Arial Black;
  dominant-baseline: central;
  text-anchor: middle;
}</style></svg>