<svg width="151.9255126953125px" height="75.19999999999999px" xmlns="http://www.w3.org/2000/svg" viewBox="174.03724365234376 37.400000000000006 151.9255126953125 75.19999999999999" style="background: none;" preserveAspectRatio="xMidYMid"><defs><filter id="editing-hover" x="-100%" y="-100%" width="300%" height="300%"><feFlood flood-color="#d88c51" result="flood"></feFlood><feComposite operator="in" in2="SourceAlpha" in="flood" result="shadow"></feComposite><feOffset dx="-0.6" dy="0" in="SourceGraphic" result="offset-1"></feOffset><feOffset dx="0.6" dy="0" in="shadow" result="offset-2"></feOffset><feMerge><feMergeNode in="offset-2"></feMergeNode><feMergeNode in="offset-1"></feMergeNode></feMerge></filter></defs><g filter="url(#editing-hover)"><g transform="translate(201.60011366009712, 85.92000007629395)"><path d="M27-0.30L27-0.30L27.48-0.30L27.48 0L20.97 0L20.97-0.27L21.42-0.27L21.42-0.27Q21.93-0.27 22.29-0.67L22.29-0.67L22.29-0.67Q22.65-1.08 22.59-1.56L22.59-1.56L21.24-16.65L14.94-2.64L14.94-2.64Q14.10-0.81 13.92 0.42L13.92 0.42L13.62 0.42L5.94-16.23L4.65-1.56L4.65-1.56Q4.59-1.08 4.95-0.67L4.95-0.67L4.95-0.67Q5.31-0.27 5.79-0.27L5.79-0.27L6.27-0.27L6.27 0L0.45 0L0.45-0.30L0.93-0.30L0.93-0.30Q1.77-0.30 2.38-0.81L2.38-0.81L2.38-0.81Q3-1.32 3.12-2.19L3.12-2.19L5.37-21.42L5.67-21.42L14.04-3.33L22.23-21.42L22.50-21.42L24.81-2.19L24.81-2.19Q24.96-0.99 26.01-0.51L26.01-0.51L26.01-0.51Q26.46-0.30 27-0.30ZM47.73-0.30L47.73-0.30L47.97-0.30L47.97 0L41.82 0L41.82-0.30L42.06-0.30L42.06-0.30Q42.63-0.30 42.93-0.69L42.93-0.69L42.93-0.69Q43.23-1.08 43.23-1.43L43.23-1.43L43.23-1.43Q43.23-1.77 43.11-2.10L43.11-2.10L41.46-6.09L33.87-6.09L32.22-2.19L32.22-2.19Q32.07-1.80 32.07-1.45L32.07-1.45L32.07-1.45Q32.07-1.11 32.37-0.70L32.37-0.70L32.37-0.70Q32.67-0.30 33.27-0.30L33.27-0.30L33.51-0.30L33.51 0L27.78 0L27.78-0.30L28.02-0.30L28.02-0.30Q28.65-0.30 29.29-0.73L29.29-0.73L29.29-0.73Q29.94-1.17 30.36-2.04L30.36-2.04L30.36-2.04Q36.93-16.08 37.20-16.74L37.20-16.74L37.20-16.74Q37.71-18 37.74-18.42L37.74-18.42L38.01-18.42L45.42-2.04L45.42-2.04Q46.29-0.30 47.73-0.30ZM37.74-15.21L34.26-6.99L41.10-6.99L37.74-15.21ZM55.08-17.07L55.08-17.07L53.49-17.07L53.49-1.92L53.49-1.92Q53.52-0.99 54.33-0.51L54.33-0.51L54.33-0.51Q54.72-0.30 55.20-0.30L55.20-0.30L55.59-0.30L55.62 0L49.47 0L49.47-0.30L49.89-0.30L49.89-0.30Q50.58-0.30 51.08-0.77L51.08-0.77L51.08-0.77Q51.57-1.23 51.57-1.89L51.57-1.89L51.57-16.14L51.57-16.14Q51.57-16.80 51.08-17.25L51.08-17.25L51.08-17.25Q50.58-17.70 49.89-17.70L49.89-17.70L49.47-17.70L49.47-18L57-18L57-18Q59.82-18 61.45-16.71L61.45-16.71L61.45-16.71Q63.09-15.42 63.09-13.32L63.09-13.32L63.09-13.32Q63.09-11.22 61.77-9.81L61.77-9.81L61.77-9.81Q60.45-8.40 58.41-8.19L58.41-8.19L58.41-8.19Q59.37-7.77 60.72-5.85L60.72-5.85L60.72-5.85Q60.69-5.85 61.75-4.53L61.75-4.53L61.75-4.53Q62.82-3.21 63.47-2.48L63.47-2.48L63.47-2.48Q64.11-1.74 64.53-1.35L64.53-1.35L64.53-1.35Q65.64-0.30 67.08-0.30L67.08-0.30L67.08 0L66.15 0L66.15 0Q63.78 0 62.43-0.93L62.43-0.93L62.43-0.93Q61.41-1.62 60.57-2.64L60.57-2.64L60.57-2.64Q60.39-2.88 59.05-4.75L59.05-4.75L59.05-4.75Q57.72-6.63 57.63-6.75L57.63-6.75L57.63-6.75Q56.01-8.76 54.60-8.76L54.60-8.76L54.60-9.06L54.60-9.06Q58.11-9.06 58.83-9.42L58.83-9.42L58.83-9.42Q59.82-9.93 60.18-10.50L60.18-10.50L60.18-10.50Q60.93-11.70 60.93-13.14L60.93-13.14L60.93-13.14Q60.93-14.97 59.85-15.96L59.85-15.96L59.85-15.96Q58.77-16.95 56.94-17.04L56.94-17.04L56.94-17.04Q56.13-17.07 55.08-17.07ZM68.28-0.30L68.70-0.30L68.70-0.30Q69.51-0.30 70.11-0.78L70.11-0.78L70.11-0.78Q70.71-1.26 70.71-1.92L70.71-1.92L70.71-16.08L70.71-16.08Q70.71-16.74 70.11-17.22L70.11-17.22L70.11-17.22Q69.51-17.70 68.67-17.70L68.67-17.70L68.28-17.70L68.28-18L75.06-18L75.06-17.70L74.67-17.70L74.67-17.70Q73.86-17.70 73.27-17.25L73.27-17.25L73.27-17.25Q72.69-16.80 72.63-16.14L72.63-16.14L72.63-1.89L72.63-1.89Q72.66-1.23 73.26-0.77L73.26-0.77L73.26-0.77Q73.86-0.30 74.67-0.30L74.67-0.30L75.06-0.30L75.09 0L68.28 0L68.28-0.30ZM96.51-0.30L96.51-0.30L96.75-0.30L96.75 0L90.60 0L90.60-0.30L90.84-0.30L90.84-0.30Q91.41-0.30 91.71-0.69L91.71-0.69L91.71-0.69Q92.01-1.08 92.01-1.43L92.01-1.43L92.01-1.43Q92.01-1.77 91.89-2.10L91.89-2.10L90.24-6.09L82.65-6.09L81-2.19L81-2.19Q80.85-1.80 80.85-1.45L80.85-1.45L80.85-1.45Q80.85-1.11 81.15-0.70L81.15-0.70L81.15-0.70Q81.45-0.30 82.05-0.30L82.05-0.30L82.29-0.30L82.29 0L76.56 0L76.56-0.30L76.80-0.30L76.80-0.30Q77.43-0.30 78.07-0.73L78.07-0.73L78.07-0.73Q78.72-1.17 79.14-2.04L79.14-2.04L79.14-2.04Q85.71-16.08 85.98-16.74L85.98-16.74L85.98-16.74Q86.49-18 86.52-18.42L86.52-18.42L86.79-18.42L94.20-2.04L94.20-2.04Q95.07-0.30 96.51-0.30ZM86.52-15.21L83.04-6.99L89.88-6.99L86.52-15.21Z" fill="#774023"></path></g></g><style>text {
  font-size: 64px;
  font-family: Arial Black;
  dominant-baseline: central;
  text-anchor: middle;
}</style></svg>