<svg width="845.8499023437499px" height="92.8000015258789px" xmlns="http://www.w3.org/2000/svg" viewBox="-172.92495117187497 28.59999923706055 845.8499023437499 92.8000015258789" style="background: none;" preserveAspectRatio="xMidYMid"><defs><filter id="editing-hole" x="-100%" y="-100%" width="300%" height="300%"><feFlood flood-color="#d88c51" result="black"></feFlood><feMorphology operator="dilate" radius="2" in="SourceGraphic" result="erode"></feMorphology><feGaussianBlur in="erode" stdDeviation="4" result="blur"></feGaussianBlur><feOffset in="blur" dx="2" dy="2" result="offset"></feOffset><feComposite operator="atop" in="offset" in2="black" result="merge"></feComposite><feComposite operator="in" in="merge" in2="SourceGraphic" result="inner-shadow"></feComposite></filter></defs><g filter="url(#editing-hole)"><g transform="translate(-52.940038323402405, 93.27999305725098)"><path d="M36-0.40L36-0.40L36.64-0.40L36.64 0L27.96 0L27.96-0.36L28.56-0.36L28.56-0.36Q29.24-0.36 29.72-0.90L29.72-0.90L29.72-0.90Q30.20-1.44 30.12-2.08L30.12-2.08L28.32-22.20L19.92-3.52L19.92-3.52Q18.80-1.08 18.56 0.56L18.56 0.56L18.16 0.56L7.92-21.64L6.20-2.08L6.20-2.08Q6.12-1.44 6.60-0.90L6.60-0.90L6.60-0.90Q7.08-0.36 7.72-0.36L7.72-0.36L8.36-0.36L8.36 0L0.60 0L0.60-0.40L1.24-0.40L1.24-0.40Q2.36-0.40 3.18-1.08L3.18-1.08L3.18-1.08Q4-1.76 4.16-2.92L4.16-2.92L7.16-28.56L7.56-28.56L18.72-4.44L29.64-28.56L30-28.56L33.08-2.92L33.08-2.92Q33.28-1.32 34.68-0.68L34.68-0.68L34.68-0.68Q35.28-0.40 36-0.40ZM63.64-0.40L63.64-0.40L63.96-0.40L63.96 0L55.76 0L55.76-0.40L56.08-0.40L56.08-0.40Q56.84-0.40 57.24-0.92L57.24-0.92L57.24-0.92Q57.64-1.44 57.64-1.90L57.64-1.90L57.64-1.90Q57.64-2.36 57.48-2.80L57.48-2.80L55.28-8.12L45.16-8.12L42.96-2.92L42.96-2.92Q42.76-2.40 42.76-1.94L42.76-1.94L42.76-1.94Q42.76-1.48 43.16-0.94L43.16-0.94L43.16-0.94Q43.56-0.40 44.36-0.40L44.36-0.40L44.68-0.40L44.68 0L37.04 0L37.04-0.40L37.36-0.40L37.36-0.40Q38.20-0.40 39.06-0.98L39.06-0.98L39.06-0.98Q39.92-1.56 40.48-2.72L40.48-2.72L40.48-2.72Q49.24-21.44 49.60-22.32L49.60-22.32L49.60-22.32Q50.28-24 50.32-24.56L50.32-24.56L50.68-24.56L60.56-2.72L60.56-2.72Q61.72-0.40 63.64-0.40ZM50.32-20.28L45.68-9.32L54.80-9.32L50.32-20.28ZM73.44-22.76L73.44-22.76L71.32-22.76L71.32-2.56L71.32-2.56Q71.36-1.32 72.44-0.68L72.44-0.68L72.44-0.68Q72.96-0.40 73.60-0.40L73.60-0.40L74.12-0.40L74.16 0L65.96 0L65.96-0.40L66.52-0.40L66.52-0.40Q67.44-0.40 68.10-1.02L68.10-1.02L68.10-1.02Q68.76-1.64 68.76-2.52L68.76-2.52L68.76-21.52L68.76-21.52Q68.76-22.40 68.10-23L68.10-23L68.10-23Q67.44-23.60 66.52-23.60L66.52-23.60L65.96-23.60L65.96-24L76-24L76-24Q79.76-24 81.94-22.28L81.94-22.28L81.94-22.28Q84.12-20.56 84.12-17.76L84.12-17.76L84.12-17.76Q84.12-14.96 82.36-13.08L82.36-13.08L82.36-13.08Q80.60-11.20 77.88-10.92L77.88-10.92L77.88-10.92Q79.16-10.36 80.96-7.80L80.96-7.80L80.96-7.80Q80.92-7.80 82.34-6.04L82.34-6.04L82.34-6.04Q83.76-4.28 84.62-3.30L84.62-3.30L84.62-3.30Q85.48-2.32 86.04-1.80L86.04-1.80L86.04-1.80Q87.52-0.40 89.44-0.40L89.44-0.40L89.44 0L88.20 0L88.20 0Q85.04 0 83.24-1.24L83.24-1.24L83.24-1.24Q81.88-2.16 80.76-3.52L80.76-3.52L80.76-3.52Q80.52-3.84 78.74-6.34L78.74-6.34L78.74-6.34Q76.96-8.84 76.84-9L76.84-9L76.84-9Q74.68-11.68 72.80-11.68L72.80-11.68L72.80-12.08L72.80-12.08Q77.48-12.08 78.44-12.56L78.44-12.56L78.44-12.56Q79.76-13.24 80.24-14L80.24-14L80.24-14Q81.24-15.60 81.24-17.52L81.24-17.52L81.24-17.52Q81.24-19.96 79.80-21.28L79.80-21.28L79.80-21.28Q78.36-22.60 75.92-22.72L75.92-22.72L75.92-22.72Q74.84-22.76 73.44-22.76ZM91.04-0.40L91.60-0.40L91.60-0.40Q92.68-0.40 93.48-1.04L93.48-1.04L93.48-1.04Q94.28-1.68 94.28-2.56L94.28-2.56L94.28-21.44L94.28-21.44Q94.28-22.32 93.48-22.96L93.48-22.96L93.48-22.96Q92.68-23.60 91.56-23.60L91.56-23.60L91.04-23.60L91.04-24L100.08-24L100.08-23.60L99.56-23.60L99.56-23.60Q98.48-23.60 97.70-23L97.70-23L97.70-23Q96.92-22.40 96.84-21.52L96.84-21.52L96.84-2.52L96.84-2.52Q96.88-1.64 97.68-1.02L97.68-1.02L97.68-1.02Q98.48-0.40 99.56-0.40L99.56-0.40L100.08-0.40L100.12 0L91.04 0L91.04-0.40ZM128.68-0.40L128.68-0.40L129-0.40L129 0L120.80 0L120.80-0.40L121.12-0.40L121.12-0.40Q121.88-0.40 122.28-0.92L122.28-0.92L122.28-0.92Q122.68-1.44 122.68-1.90L122.68-1.90L122.68-1.90Q122.68-2.36 122.52-2.80L122.52-2.80L120.32-8.12L110.20-8.12L108-2.92L108-2.92Q107.80-2.40 107.80-1.94L107.80-1.94L107.80-1.94Q107.80-1.48 108.20-0.94L108.20-0.94L108.20-0.94Q108.60-0.40 109.40-0.40L109.40-0.40L109.72-0.40L109.72 0L102.08 0L102.08-0.40L102.40-0.40L102.40-0.40Q103.24-0.40 104.10-0.98L104.10-0.98L104.10-0.98Q104.96-1.56 105.52-2.72L105.52-2.72L105.52-2.72Q114.28-21.44 114.64-22.32L114.64-22.32L114.64-22.32Q115.32-24 115.36-24.56L115.36-24.56L115.72-24.56L125.60-2.72L125.60-2.72Q126.76-0.40 128.68-0.40ZM115.36-20.28L110.72-9.32L119.84-9.32L115.36-20.28ZM149.96-27.60L149.44-27.60L149.44-27.60Q148-27.60 147.24-26.36L147.24-26.36L147.24-26.36Q146.92-25.80 146.88-25.08L146.88-25.08L146.88 0L146.88 0Q146.88 3.36 144.78 5.68L144.78 5.68L144.78 5.68Q142.68 8 139.60 8L139.60 8L139.60 7.64L139.60 7.64Q141.56 6.96 142.92 4.70L142.92 4.70L142.92 4.70Q144.28 2.44 144.28-0.12L144.28-0.12L144.28-25.08L144.28-25.08Q144.24-26.12 143.50-26.86L143.50-26.86L143.50-26.86Q142.76-27.60 141.72-27.60L141.72-27.60L141.20-27.60L141.20-28L149.96-28L149.96-27.60ZM160.08-22.98L160.08-22.98L160.08-22.98Q163.16-24.56 166.86-24.56L166.86-24.56L166.86-24.56Q170.56-24.56 173.64-22.98L173.64-22.98L173.64-22.98Q176.72-21.40 178.54-18.52L178.54-18.52L178.54-18.52Q180.36-15.64 180.36-12L180.36-12L180.36-12Q180.36-8.36 178.54-5.48L178.54-5.48L178.54-5.48Q176.72-2.60 173.64-1.02L173.64-1.02L173.64-1.02Q170.56 0.56 167.32 0.56L167.32 0.56L167.32 0.56Q164.08 0.56 161.60-0.36L161.60-0.36L161.60-0.36Q159.12-1.28 157.30-2.92L157.30-2.92L157.30-2.92Q155.48-4.56 154.42-6.92L154.42-6.92L154.42-6.92Q153.36-9.28 153.36-12.46L153.36-12.46L153.36-12.46Q153.36-15.64 155.18-18.52L155.18-18.52L155.18-18.52Q157-21.40 160.08-22.98ZM159.34-3.82L159.34-3.82L159.34-3.82Q162.36-0.64 166.84-0.64L166.84-0.64L166.84-0.64Q171.32-0.64 174.36-3.82L174.36-3.82L174.36-3.82Q177.40-7 177.40-12L177.40-12L177.40-12Q177.40-17 174.36-20.18L174.36-20.18L174.36-20.18Q171.32-23.36 166.84-23.36L166.84-23.36L166.84-23.36Q162.36-23.36 159.34-20.18L159.34-20.18L159.34-20.18Q156.32-17 156.32-12L156.32-12L156.32-12Q156.32-7 159.34-3.82ZM184.64-1.32L184.64-1.32L184.64-1.32Q184.52-1.80 184.52-3.28L184.52-3.28L184.52-3.28Q184.52-4.76 185.04-6.28L185.04-6.28L185.52-6.28L185.52-6.28Q185.48-5.92 185.48-5.56L185.48-5.56L185.48-5.56Q185.48-3.40 186.90-2.02L186.90-2.02L186.90-2.02Q188.32-0.64 190.84-0.64L190.84-0.64L190.84-0.64Q193.48-0.64 194.96-1.86L194.96-1.86L194.96-1.86Q196.44-3.08 196.44-5.02L196.44-5.02L196.44-5.02Q196.44-6.96 195.00-8.24L195.00-8.24L187.00-14.40L187.00-14.40Q185.08-16.04 185.08-18.80L185.08-18.80L185.08-18.80Q185.08-20.36 185.94-21.68L185.94-21.68L185.94-21.68Q186.80-23 188.34-23.78L188.34-23.78L188.34-23.78Q189.88-24.56 191.96-24.56L191.96-24.56L191.96-24.56Q194.04-24.56 195.64-24.20L195.64-24.20L196.96-24.20L197.04-19.84L196.60-19.84L196.60-19.84Q196.60-21.52 195.44-22.44L195.44-22.44L195.44-22.44Q194.28-23.36 192.12-23.36L192.12-23.36L192.12-23.36Q189.96-23.36 188.56-22.26L188.56-22.26L188.56-22.26Q187.16-21.16 187.16-19.42L187.16-19.42L187.16-19.42Q187.16-17.68 188.72-16.40L188.72-16.40L196.80-10.16L196.80-10.16Q198.64-8.64 198.64-5.92L198.64-5.92L198.64-5.92Q198.64-3.20 196.58-1.32L196.58-1.32L196.58-1.32Q194.52 0.56 191.56 0.56L191.56 0.56L191.56 0.56Q189.60 0.56 187.64 0.08L187.64 0.08L187.64 0.08Q185.68-0.40 184.64-1.32ZM203-0.40L203.56-0.40L203.56-0.40Q204.52-0.40 205.18-1.02L205.18-1.02L205.18-1.02Q205.84-1.64 205.88-2.52L205.88-2.52L205.88-21.52L205.88-21.52Q205.88-22.40 205.20-23L205.20-23L205.20-23Q204.52-23.60 203.56-23.60L203.56-23.60L203-23.60L203-24L214.68-24L214.68-24Q216.32-24 217.56-24.24L217.56-24.24L217.56-24.24Q218.80-24.48 219.16-24.64L219.16-24.64L219.16-20.08L218.72-20.12L218.72-20.72L218.72-20.72Q218.72-21.56 218.16-22.16L218.16-22.16L218.16-22.16Q217.60-22.76 216.72-22.76L216.72-22.76L208.40-22.76L208.40-12.60L215.24-12.60L215.24-12.60Q216.04-12.60 216.46-13.08L216.46-13.08L216.46-13.08Q216.88-13.56 216.88-14.28L216.88-14.28L216.88-14.80L217.32-14.80L217.32-9.20L216.88-9.20L216.88-9.72L216.88-9.72Q216.88-10.84 216.04-11.24L216.04-11.24L216.04-11.24Q215.72-11.36 215.36-11.40L215.36-11.40L208.40-11.40L208.40-1.24L214.68-1.24L214.68-1.24Q216.52-1.24 217.78-1.88L217.78-1.88L217.78-1.88Q219.04-2.52 219.70-3.40L219.70-3.40L219.70-3.40Q220.36-4.28 221.04-5.72L221.04-5.72L221.44-5.72L219.24 0L203 0L203-0.40ZM242.32-22.76L242.32-22.76L240.20-22.76L240.20-2.56L240.20-2.56Q240.24-1.32 241.32-0.68L241.32-0.68L241.32-0.68Q241.84-0.40 242.48-0.40L242.48-0.40L243-0.40L243.04 0L234.84 0L234.84-0.40L235.40-0.40L235.40-0.40Q236.32-0.40 236.98-1.02L236.98-1.02L236.98-1.02Q237.64-1.64 237.64-2.52L237.64-2.52L237.64-21.52L237.64-21.52Q237.64-22.40 236.98-23L236.98-23L236.98-23Q236.32-23.60 235.40-23.60L235.40-23.60L234.84-23.60L234.84-24L244.88-24L244.88-24Q248.64-24 250.82-22.28L250.82-22.28L250.82-22.28Q253-20.56 253-17.76L253-17.76L253-17.76Q253-14.96 251.24-13.08L251.24-13.08L251.24-13.08Q249.48-11.20 246.76-10.92L246.76-10.92L246.76-10.92Q248.04-10.36 249.84-7.80L249.84-7.80L249.84-7.80Q249.80-7.80 251.22-6.04L251.22-6.04L251.22-6.04Q252.64-4.28 253.50-3.30L253.50-3.30L253.50-3.30Q254.36-2.32 254.92-1.80L254.92-1.80L254.92-1.80Q256.40-0.40 258.32-0.40L258.32-0.40L258.32 0L257.08 0L257.08 0Q253.92 0 252.12-1.24L252.12-1.24L252.12-1.24Q250.76-2.16 249.64-3.52L249.64-3.52L249.64-3.52Q249.40-3.84 247.62-6.34L247.62-6.34L247.62-6.34Q245.84-8.84 245.72-9L245.72-9L245.72-9Q243.56-11.68 241.68-11.68L241.68-11.68L241.68-12.08L241.68-12.08Q246.36-12.08 247.32-12.56L247.32-12.56L247.32-12.56Q248.64-13.24 249.12-14L249.12-14L249.12-14Q250.12-15.60 250.12-17.52L250.12-17.52L250.12-17.52Q250.12-19.96 248.68-21.28L248.68-21.28L248.68-21.28Q247.24-22.60 244.80-22.72L244.80-22.72L244.80-22.72Q243.72-22.76 242.32-22.76ZM265.04-22.98L265.04-22.98L265.04-22.98Q268.12-24.56 271.82-24.56L271.82-24.56L271.82-24.56Q275.52-24.56 278.60-22.98L278.60-22.98L278.60-22.98Q281.68-21.40 283.50-18.52L283.50-18.52L283.50-18.52Q285.32-15.64 285.32-12L285.32-12L285.32-12Q285.32-8.36 283.50-5.48L283.50-5.48L283.50-5.48Q281.68-2.60 278.60-1.02L278.60-1.02L278.60-1.02Q275.52 0.56 272.28 0.56L272.28 0.56L272.28 0.56Q269.04 0.56 266.56-0.36L266.56-0.36L266.56-0.36Q264.08-1.28 262.26-2.92L262.26-2.92L262.26-2.92Q260.44-4.56 259.38-6.92L259.38-6.92L259.38-6.92Q258.32-9.28 258.32-12.46L258.32-12.46L258.32-12.46Q258.32-15.64 260.14-18.52L260.14-18.52L260.14-18.52Q261.96-21.40 265.04-22.98ZM264.30-3.82L264.30-3.82L264.30-3.82Q267.32-0.64 271.80-0.64L271.80-0.64L271.80-0.64Q276.28-0.64 279.32-3.82L279.32-3.82L279.32-3.82Q282.36-7 282.36-12L282.36-12L282.36-12Q282.36-17 279.32-20.18L279.32-20.18L279.32-20.18Q276.28-23.36 271.80-23.36L271.80-23.36L271.80-23.36Q267.32-23.36 264.30-20.18L264.30-20.18L264.30-20.18Q261.28-17 261.28-12L261.28-12L261.28-12Q261.28-7 264.30-3.82ZM289.60-1.32L289.60-1.32L289.60-1.32Q289.48-1.80 289.48-3.28L289.48-3.28L289.48-3.28Q289.48-4.76 290.00-6.28L290.00-6.28L290.48-6.28L290.48-6.28Q290.44-5.92 290.44-5.56L290.44-5.56L290.44-5.56Q290.44-3.40 291.86-2.02L291.86-2.02L291.86-2.02Q293.28-0.64 295.80-0.64L295.80-0.64L295.80-0.64Q298.44-0.64 299.92-1.86L299.92-1.86L299.92-1.86Q301.40-3.08 301.40-5.02L301.40-5.02L301.40-5.02Q301.40-6.96 299.96-8.24L299.96-8.24L291.96-14.40L291.96-14.40Q290.04-16.04 290.04-18.80L290.04-18.80L290.04-18.80Q290.04-20.36 290.90-21.68L290.90-21.68L290.90-21.68Q291.76-23 293.30-23.78L293.30-23.78L293.30-23.78Q294.84-24.56 296.92-24.56L296.92-24.56L296.92-24.56Q299.00-24.56 300.60-24.20L300.60-24.20L301.92-24.20L302.00-19.84L301.56-19.84L301.56-19.84Q301.56-21.52 300.40-22.44L300.40-22.44L300.40-22.44Q299.24-23.36 297.08-23.36L297.08-23.36L297.08-23.36Q294.92-23.36 293.52-22.26L293.52-22.26L293.52-22.26Q292.12-21.16 292.12-19.42L292.12-19.42L292.12-19.42Q292.12-17.68 293.68-16.40L293.68-16.40L301.76-10.16L301.76-10.16Q303.60-8.64 303.60-5.92L303.60-5.92L303.60-5.92Q303.60-3.20 301.54-1.32L301.54-1.32L301.54-1.32Q299.48 0.56 296.52 0.56L296.52 0.56L296.52 0.56Q294.56 0.56 292.60 0.08L292.60 0.08L292.60 0.08Q290.64-0.40 289.60-1.32ZM332.16-0.40L332.16-0.40L332.48-0.40L332.48 0L324.28 0L324.28-0.40L324.60-0.40L324.60-0.40Q325.36-0.40 325.76-0.92L325.76-0.92L325.76-0.92Q326.16-1.44 326.16-1.90L326.16-1.90L326.16-1.90Q326.16-2.36 326.00-2.80L326.00-2.80L323.80-8.12L313.68-8.12L311.48-2.92L311.48-2.92Q311.28-2.40 311.28-1.94L311.28-1.94L311.28-1.94Q311.28-1.48 311.68-0.94L311.68-0.94L311.68-0.94Q312.08-0.40 312.88-0.40L312.88-0.40L313.20-0.40L313.20 0L305.56 0L305.56-0.40L305.88-0.40L305.88-0.40Q306.72-0.40 307.58-0.98L307.58-0.98L307.58-0.98Q308.44-1.56 309.00-2.72L309.00-2.72L309.00-2.72Q317.76-21.44 318.12-22.32L318.12-22.32L318.12-22.32Q318.80-24 318.84-24.56L318.84-24.56L319.20-24.56L329.08-2.72L329.08-2.72Q330.24-0.40 332.16-0.40ZM318.84-20.28L314.20-9.32L323.32-9.32L318.84-20.28ZM334.48-0.40L335.04-0.40L335.04-0.40Q336.00-0.40 336.66-1.02L336.66-1.02L336.66-1.02Q337.32-1.64 337.36-2.52L337.36-2.52L337.36-21.44L337.36-21.44Q337.32-22.32 336.62-22.96L336.62-22.96L336.62-22.96Q335.92-23.60 334.96-23.60L334.96-23.60L334.48-23.60L334.48-24L342.76-24L342.76-23.60L342.28-23.60L342.28-23.60Q341.32-23.60 340.62-22.96L340.62-22.96L340.62-22.96Q339.92-22.32 339.92-21.44L339.92-21.44L339.92-1.24L346.16-1.24L346.16-1.24Q348.00-1.24 349.28-1.88L349.28-1.88L349.28-1.88Q350.56-2.52 351.22-3.40L351.22-3.40L351.22-3.40Q351.88-4.28 352.52-5.72L352.52-5.72L352.92-5.72L350.72 0L334.48 0L334.48-0.40ZM354.96-0.40L355.52-0.40L355.52-0.40Q356.48-0.40 357.14-1.02L357.14-1.02L357.14-1.02Q357.80-1.64 357.84-2.52L357.84-2.52L357.84-21.52L357.84-21.52Q357.84-22.40 357.16-23L357.16-23L357.16-23Q356.48-23.60 355.52-23.60L355.52-23.60L354.96-23.60L354.96-24L366.64-24L366.64-24Q368.28-24 369.52-24.24L369.52-24.24L369.52-24.24Q370.76-24.48 371.12-24.64L371.12-24.64L371.12-20.08L370.68-20.12L370.68-20.72L370.68-20.72Q370.68-21.56 370.12-22.16L370.12-22.16L370.12-22.16Q369.56-22.76 368.68-22.76L368.68-22.76L360.36-22.76L360.36-12.60L367.20-12.60L367.20-12.60Q368.00-12.60 368.42-13.08L368.42-13.08L368.42-13.08Q368.84-13.56 368.84-14.28L368.84-14.28L368.84-14.80L369.28-14.80L369.28-9.20L368.84-9.20L368.84-9.72L368.84-9.72Q368.84-10.84 368.00-11.24L368.00-11.24L368.00-11.24Q367.68-11.36 367.32-11.40L367.32-11.40L360.36-11.40L360.36-1.24L366.64-1.24L366.64-1.24Q368.48-1.24 369.74-1.88L369.74-1.88L369.74-1.88Q371.00-2.52 371.66-3.40L371.66-3.40L371.66-3.40Q372.32-4.28 373.00-5.72L373.00-5.72L373.40-5.72L371.20 0L354.96 0L354.96-0.40ZM376.92-1.32L376.92-1.32L376.92-1.32Q376.80-1.80 376.80-3.28L376.80-3.28L376.80-3.28Q376.80-4.76 377.32-6.28L377.32-6.28L377.80-6.28L377.80-6.28Q377.76-5.92 377.76-5.56L377.76-5.56L377.76-5.56Q377.76-3.40 379.18-2.02L379.18-2.02L379.18-2.02Q380.60-0.64 383.12-0.64L383.12-0.64L383.12-0.64Q385.76-0.64 387.24-1.86L387.24-1.86L387.24-1.86Q388.72-3.08 388.72-5.02L388.72-5.02L388.72-5.02Q388.72-6.96 387.28-8.24L387.28-8.24L379.28-14.40L379.28-14.40Q377.36-16.04 377.36-18.80L377.36-18.80L377.36-18.80Q377.36-20.36 378.22-21.68L378.22-21.68L378.22-21.68Q379.08-23 380.62-23.78L380.62-23.78L380.62-23.78Q382.16-24.56 384.24-24.56L384.24-24.56L384.24-24.56Q386.32-24.56 387.92-24.20L387.92-24.20L389.24-24.20L389.32-19.84L388.88-19.84L388.88-19.84Q388.88-21.52 387.72-22.44L387.72-22.44L387.72-22.44Q386.56-23.36 384.40-23.36L384.40-23.36L384.40-23.36Q382.24-23.36 380.84-22.26L380.84-22.26L380.84-22.26Q379.44-21.16 379.44-19.42L379.44-19.42L379.44-19.42Q379.44-17.68 381-16.40L381-16.40L389.08-10.16L389.08-10.16Q390.92-8.64 390.92-5.92L390.92-5.92L390.92-5.92Q390.92-3.20 388.86-1.32L388.86-1.32L388.86-1.32Q386.80 0.56 383.84 0.56L383.84 0.56L383.84 0.56Q381.88 0.56 379.92 0.08L379.92 0.08L379.92 0.08Q377.96-0.40 376.92-1.32ZM418.28 0.56L418.28 0.56Q412.16 0.52 408.62-2.84L408.62-2.84L408.62-2.84Q405.08-6.20 405.08-12.02L405.08-12.02L405.08-12.02Q405.08-17.84 408.62-21.20L408.62-21.20L408.62-21.20Q412.16-24.56 418.28-24.56L418.28-24.56L418.28-24.56Q420.76-24.56 423.28-23.92L423.28-23.92L423.28-23.92Q425.80-23.28 427.64-22.16L427.64-22.16L428.52-16.48L428.16-16.48L428.16-16.48Q426.44-23.36 418.24-23.36L418.24-23.36L418.24-23.36Q413.48-23.36 410.72-20.32L410.72-20.32L410.72-20.32Q407.96-17.28 407.96-12L407.96-12L407.96-12Q407.96-8.56 409.20-6.02L409.20-6.02L409.20-6.02Q410.44-3.48 412.80-2.08L412.80-2.08L412.80-2.08Q415.16-0.68 418.28-0.68L418.28-0.68L418.28-0.68Q421.40-0.68 423.74-1.62L423.74-1.62L423.74-1.62Q426.08-2.56 427.62-4.72L427.62-4.72L427.62-4.72Q429.16-6.88 429.36-10.08L429.36-10.08L429.72-10.08L429.28-4.60L429.28-4.60Q427.72-2.20 424.76-0.82L424.76-0.82L424.76-0.82Q421.80 0.56 418.28 0.56L418.28 0.56ZM457.68-0.40L457.68-0.40L458-0.40L458 0L449.80 0L449.80-0.40L450.12-0.40L450.12-0.40Q450.88-0.40 451.28-0.92L451.28-0.92L451.28-0.92Q451.68-1.44 451.68-1.90L451.68-1.90L451.68-1.90Q451.68-2.36 451.52-2.80L451.52-2.80L449.32-8.12L439.20-8.12L437.00-2.92L437.00-2.92Q436.80-2.40 436.80-1.94L436.80-1.94L436.80-1.94Q436.80-1.48 437.20-0.94L437.20-0.94L437.20-0.94Q437.60-0.40 438.40-0.40L438.40-0.40L438.72-0.40L438.72 0L431.08 0L431.08-0.40L431.40-0.40L431.40-0.40Q432.24-0.40 433.10-0.98L433.10-0.98L433.10-0.98Q433.96-1.56 434.52-2.72L434.52-2.72L434.52-2.72Q443.28-21.44 443.64-22.32L443.64-22.32L443.64-22.32Q444.32-24 444.36-24.56L444.36-24.56L444.72-24.56L454.60-2.72L454.60-2.72Q455.76-0.40 457.68-0.40ZM444.36-20.28L439.72-9.32L448.84-9.32L444.36-20.28ZM492.04-0.40L492.04-0.40L492.64-0.40L492.64 0L484.32 0L484.32-0.36L484.92-0.36L484.92-0.36Q485.52-0.36 485.98-0.82L485.98-0.82L485.98-0.82Q486.44-1.28 486.36-1.92L486.36-1.92L484.28-18.40L476.72-3.52L476.72-3.52Q475.60-1.08 475.32 0.56L475.32 0.56L474.92 0.56L465.28-18.04L463.48-1.92L463.48-1.92Q463.40-1.32 463.86-0.84L463.86-0.84L463.86-0.84Q464.32-0.36 464.96-0.36L464.96-0.36L465.52-0.36L465.52 0L458.12 0L458.12-0.40L458.72-0.40L458.72-0.40Q460.16-0.40 460.96-1.44L460.96-1.44L460.96-1.44Q461.36-1.96 461.44-2.68L461.44-2.68L464.56-24.56L464.96-24.56L475.52-4.24L485.72-24.56L486.08-24.56L489.32-2.60L489.32-2.60Q489.48-1.60 490.24-1L490.24-1L490.24-1Q491-0.40 492.04-0.40ZM519.32-0.40L519.32-0.40L519.64-0.40L519.64 0L511.44 0L511.44-0.40L511.76-0.40L511.76-0.40Q512.52-0.40 512.92-0.92L512.92-0.92L512.92-0.92Q513.32-1.44 513.32-1.90L513.32-1.90L513.32-1.90Q513.32-2.36 513.16-2.80L513.16-2.80L510.96-8.12L500.84-8.12L498.64-2.92L498.64-2.92Q498.44-2.40 498.44-1.94L498.44-1.94L498.44-1.94Q498.44-1.48 498.84-0.94L498.84-0.94L498.84-0.94Q499.24-0.40 500.04-0.40L500.04-0.40L500.36-0.40L500.36 0L492.72 0L492.72-0.40L493.04-0.40L493.04-0.40Q493.88-0.40 494.74-0.98L494.74-0.98L494.74-0.98Q495.60-1.56 496.16-2.72L496.16-2.72L496.16-2.72Q504.92-21.44 505.28-22.32L505.28-22.32L505.28-22.32Q505.96-24 506-24.56L506-24.56L506.36-24.56L516.24-2.72L516.24-2.72Q517.40-0.40 519.32-0.40ZM506-20.28L501.36-9.32L510.48-9.32L506-20.28ZM534.04 0.56L534.04 0.56Q527.92 0.52 524.38-2.84L524.38-2.84L524.38-2.84Q520.84-6.20 520.84-12.02L520.84-12.02L520.84-12.02Q520.84-17.84 524.38-21.20L524.38-21.20L524.38-21.20Q527.92-24.56 534.04-24.56L534.04-24.56L534.04-24.56Q536.52-24.56 539.04-23.92L539.04-23.92L539.04-23.92Q541.56-23.28 543.40-22.16L543.40-22.16L544.28-16.48L543.92-16.48L543.92-16.48Q542.20-23.36 534-23.36L534-23.36L534-23.36Q529.24-23.36 526.48-20.32L526.48-20.32L526.48-20.32Q523.72-17.28 523.72-12L523.72-12L523.72-12Q523.72-8.56 524.96-6.02L524.96-6.02L524.96-6.02Q526.20-3.48 528.56-2.08L528.56-2.08L528.56-2.08Q530.92-0.68 534.04-0.68L534.04-0.68L534.04-0.68Q537.16-0.68 539.50-1.62L539.50-1.62L539.50-1.62Q541.84-2.56 543.38-4.72L543.38-4.72L543.38-4.72Q544.92-6.88 545.12-10.08L545.12-10.08L545.48-10.08L545.04-4.60L545.04-4.60Q543.48-2.20 540.52-0.82L540.52-0.82L540.52-0.82Q537.56 0.56 534.04 0.56L534.04 0.56ZM566.56-0.40L567.04-0.40L567.04-0.40Q567.96-0.40 568.64-1.02L568.64-1.02L568.64-1.02Q569.32-1.64 569.36-2.52L569.36-2.52L569.36-11.24L554.60-11.24L554.60-2.52L554.60-2.52Q554.64-1.64 555.32-1.02L555.32-1.02L555.32-1.02Q556.00-0.40 556.92-0.40L556.92-0.40L557.40-0.40L557.40 0L549.24 0L549.24-0.40L549.72-0.40L549.72-0.40Q550.68-0.40 551.34-1.04L551.34-1.04L551.34-1.04Q552.00-1.68 552.04-2.56L552.04-2.56L552.04-21.44L552.04-21.44Q552.00-22.32 551.32-22.96L551.32-22.96L551.32-22.96Q550.64-23.60 549.72-23.60L549.72-23.60L549.24-23.60L549.24-24L557.40-24L557.40-23.60L556.92-23.60L556.92-23.60Q556.00-23.60 555.32-22.98L555.32-22.98L555.32-22.98Q554.64-22.36 554.60-21.48L554.60-21.48L554.60-12.44L569.36-12.44L569.36-21.44L569.36-21.44Q569.36-22.32 568.84-22.80L568.84-22.80L568.84-22.80Q568.00-23.60 567.04-23.60L567.04-23.60L566.56-23.60L566.56-24L574.72-24L574.72-23.60L574.24-23.60L574.24-23.60Q573.32-23.60 572.64-23L572.64-23L572.64-23Q571.96-22.40 571.92-21.52L571.92-21.52L571.92-2.52L571.92-2.52Q571.96-1.64 572.44-1.20L572.44-1.20L572.44-1.20Q573.32-0.40 574.24-0.40L574.24-0.40L574.72-0.40L574.72 0L566.56 0L566.56-0.40ZM585.00-22.98L585.00-22.98L585.00-22.98Q588.08-24.56 591.78-24.56L591.78-24.56L591.78-24.56Q595.48-24.56 598.56-22.98L598.56-22.98L598.56-22.98Q601.64-21.40 603.46-18.52L603.46-18.52L603.46-18.52Q605.28-15.64 605.28-12L605.28-12L605.28-12Q605.28-8.36 603.46-5.48L603.46-5.48L603.46-5.48Q601.64-2.60 598.56-1.02L598.56-1.02L598.56-1.02Q595.48 0.56 592.24 0.56L592.24 0.56L592.24 0.56Q589.00 0.56 586.52-0.36L586.52-0.36L586.52-0.36Q584.04-1.28 582.22-2.92L582.22-2.92L582.22-2.92Q580.40-4.56 579.34-6.92L579.34-6.92L579.34-6.92Q578.28-9.28 578.28-12.46L578.28-12.46L578.28-12.46Q578.28-15.64 580.10-18.52L580.10-18.52L580.10-18.52Q581.92-21.40 585.00-22.98ZM584.26-3.82L584.26-3.82L584.26-3.82Q587.28-0.64 591.76-0.64L591.76-0.64L591.76-0.64Q596.24-0.64 599.28-3.82L599.28-3.82L599.28-3.82Q602.32-7 602.32-12L602.32-12L602.32-12Q602.32-17 599.28-20.18L599.28-20.18L599.28-20.18Q596.24-23.36 591.76-23.36L591.76-23.36L591.76-23.36Q587.28-23.36 584.26-20.18L584.26-20.18L584.26-20.18Q581.24-17 581.24-12L581.24-12L581.24-12Q581.24-7 584.26-3.82Z" fill="#774023"></path></g></g><style>text {
  font-size: 64px;
  font-family: Arial Black;
  dominant-baseline: central;
  text-anchor: middle;
}</style></svg>