<svg width="443.71242675781247px" height="136.8000030517578px" xmlns="http://www.w3.org/2000/svg" viewBox="28.143786621093767 6.599998474121094 443.71242675781247 136.8000030517578" style="background: none;" preserveAspectRatio="xMidYMid"><defs><filter id="editing-hole" x="-100%" y="-100%" width="300%" height="300%"><feFlood flood-color="#d88c51" result="black"></feFlood><feMorphology operator="dilate" radius="2" in="SourceGraphic" result="erode"></feMorphology><feGaussianBlur in="erode" stdDeviation="4" result="blur"></feGaussianBlur><feOffset in="blur" dx="2" dy="2" result="offset"></feOffset><feComposite operator="atop" in="offset" in2="black" result="merge"></feComposite><feComposite operator="in" in="merge" in2="SourceGraphic" result="inner-shadow"></feComposite></filter></defs><g filter="url(#editing-hole)"><g transform="translate(94.02997970581055, 97.84999656677246)"><path d="M33.73-32.45L33.73-32.45L33.73-32.45Q33.73-29.63 32.58-27.20L32.58-27.20L32.58-27.20Q30.46-22.66 25.15-20.86L25.15-20.86L25.15-20.86Q23.30-20.22 21.95-20.22L21.95-20.22L21.95-20.22Q17.98-20.22 15.10-21.70L15.10-21.70L15.10-22.34L15.10-22.34Q19.78-21.31 23.74-23.36L23.74-23.36L23.74-23.36Q27.26-25.15 28.54-29.25L28.54-29.25L28.54-29.25Q28.93-30.53 28.93-31.68L28.93-31.68L28.93-31.68Q28.93-32.83 28.93-33.09L28.93-33.09L28.93-33.09Q28.80-37.57 26.56-40.22L26.56-40.22L26.56-40.22Q24.32-42.88 20.29-42.88L20.29-42.88L12.93-42.88L12.93-4.67L12.93-4.67Q12.99-3.01 14.18-1.82L14.18-1.82L14.18-1.82Q15.36-0.64 17.02-0.64L17.02-0.64L17.86-0.64L17.86 0L3.84 0L3.84-0.64L4.67-0.64L4.67-0.64Q6.34-0.64 7.52-1.82L7.52-1.82L7.52-1.82Q8.70-3.01 8.77-4.67L8.77-4.67L8.77-40.45L8.77-40.45Q8.58-42.05 7.42-43.10L7.42-43.10L7.42-43.10Q6.27-44.16 4.67-44.16L4.67-44.16L3.90-44.16L3.84-44.80L20.54-44.80L20.54-44.80Q26.69-44.80 30.21-41.50L30.21-41.50L30.21-41.50Q33.73-38.21 33.73-32.45ZM73.41-0.64L73.41-0.64L73.92-0.64L73.92 0L60.80 0L60.80-0.64L61.31-0.64L61.31-0.64Q62.53-0.64 63.17-1.47L63.17-1.47L63.17-1.47Q63.81-2.30 63.81-3.04L63.81-3.04L63.81-3.04Q63.81-3.78 63.55-4.48L63.55-4.48L60.03-12.99L43.84-12.99L40.32-4.67L40.32-4.67Q40-3.84 40-3.10L40-3.10L40-3.10Q40-2.37 40.64-1.50L40.64-1.50L40.64-1.50Q41.28-0.64 42.56-0.64L42.56-0.64L43.07-0.64L43.07 0L30.85 0L30.85-0.64L31.36-0.64L31.36-0.64Q32.70-0.64 34.08-1.57L34.08-1.57L34.08-1.57Q35.46-2.50 36.35-4.35L36.35-4.35L36.35-4.35Q50.37-34.30 50.94-35.71L50.94-35.71L50.94-35.71Q52.03-38.40 52.10-39.30L52.10-39.30L52.67-39.30L68.48-4.35L68.48-4.35Q70.34-0.64 73.41-0.64ZM52.10-32.45L44.67-14.91L59.26-14.91L52.10-32.45ZM119.04-19.20L119.04-19.20L119.04-19.20Q119.04-10.30 113.50-5.15L113.50-5.15L113.50-5.15Q107.97 0 98.50 0L98.50 0L77.12 0L77.12-0.64L77.95-0.64L77.95-0.64Q79.49-0.64 80.51-1.66L80.51-1.66L80.51-1.66Q81.54-2.69 81.60-4.10L81.60-4.10L81.60-34.30L81.60-34.30Q81.54-35.84 80.48-36.80L80.48-36.80L80.48-36.80Q79.42-37.76 77.89-37.76L77.89-37.76L77.12-37.76L77.12-38.40L98.50-38.40L98.50-38.40Q104.77-38.40 109.41-36.10L109.41-36.10L109.41-36.10Q114.05-33.79 116.54-29.44L116.54-29.44L116.54-29.44Q119.04-25.09 119.04-19.20ZM98.50-36.48L85.76-36.48L85.76-1.92L98.50-1.92L98.50-1.92Q105.86-1.92 110.14-6.56L110.14-6.56L110.14-6.56Q114.43-11.20 114.43-19.20L114.43-19.20L114.43-19.20Q114.43-27.20 110.14-31.84L110.14-31.84L110.14-31.84Q105.86-36.48 98.50-36.48L98.50-36.48ZM136.77-36.42L136.77-36.42L133.38-36.42L133.38-4.10L133.38-4.10Q133.44-2.11 135.17-1.09L135.17-1.09L135.17-1.09Q136-0.64 137.02-0.64L137.02-0.64L137.86-0.64L137.92 0L124.80 0L124.80-0.64L125.70-0.64L125.70-0.64Q127.17-0.64 128.22-1.63L128.22-1.63L128.22-1.63Q129.28-2.62 129.28-4.03L129.28-4.03L129.28-34.43L129.28-34.43Q129.28-35.84 128.22-36.80L128.22-36.80L128.22-36.80Q127.17-37.76 125.70-37.76L125.70-37.76L124.80-37.76L124.80-38.40L140.86-38.40L140.86-38.40Q146.88-38.40 150.37-35.65L150.37-35.65L150.37-35.65Q153.86-32.90 153.86-28.42L153.86-28.42L153.86-28.42Q153.86-23.94 151.04-20.93L151.04-20.93L151.04-20.93Q148.22-17.92 143.87-17.47L143.87-17.47L143.87-17.47Q145.92-16.58 148.80-12.48L148.80-12.48L148.80-12.48Q148.74-12.48 151.01-9.66L151.01-9.66L151.01-9.66Q153.28-6.85 154.66-5.28L154.66-5.28L154.66-5.28Q156.03-3.71 156.93-2.88L156.93-2.88L156.93-2.88Q159.30-0.64 162.37-0.64L162.37-0.64L162.37 0L160.38 0L160.38 0Q155.33 0 152.45-1.98L152.45-1.98L152.45-1.98Q150.27-3.46 148.48-5.63L148.48-5.63L148.48-5.63Q148.10-6.14 145.25-10.14L145.25-10.14L145.25-10.14Q142.40-14.14 142.21-14.40L142.21-14.40L142.21-14.40Q138.75-18.69 135.74-18.69L135.74-18.69L135.74-19.33L135.74-19.33Q143.23-19.33 144.77-20.10L144.77-20.10L144.77-20.10Q146.88-21.18 147.65-22.40L147.65-22.40L147.65-22.40Q149.25-24.96 149.25-28.03L149.25-28.03L149.25-28.03Q149.25-31.94 146.94-34.05L146.94-34.05L146.94-34.05Q144.64-36.16 140.74-36.35L140.74-36.35L140.74-36.35Q139.01-36.42 136.77-36.42ZM164.93-0.64L165.82-0.64L165.82-0.64Q167.55-0.64 168.83-1.66L168.83-1.66L168.83-1.66Q170.11-2.69 170.11-4.10L170.11-4.10L170.11-34.30L170.11-34.30Q170.11-35.71 168.83-36.74L168.83-36.74L168.83-36.74Q167.55-37.76 165.76-37.76L165.76-37.76L164.93-37.76L164.93-38.40L179.39-38.40L179.39-37.76L178.56-37.76L178.56-37.76Q176.83-37.76 175.58-36.80L175.58-36.80L175.58-36.80Q174.34-35.84 174.21-34.43L174.21-34.43L174.21-4.03L174.21-4.03Q174.27-2.62 175.55-1.63L175.55-1.63L175.55-1.63Q176.83-0.64 178.56-0.64L178.56-0.64L179.39-0.64L179.46 0L164.93 0L164.93-0.64ZM230.53-37.76L229.44-37.76L229.44-37.76Q228.03-37.76 227.01-36.83L227.01-36.83L227.01-36.83Q225.98-35.90 225.92-34.56L225.92-34.56L225.92-7.30L225.92-7.30Q225.92-3.58 226.37-0.26L226.37-0.26L226.50 0.90L225.92 0.90L192.64-30.66L192.64-3.97L192.64-3.97Q192.64-2.56 193.66-1.60L193.66-1.60L193.66-1.60Q194.69-0.64 196.16-0.64L196.16-0.64L197.25-0.64L197.25 0L185.15 0L185.15-0.64L186.24-0.64L186.24-0.64Q187.71-0.64 188.74-1.60L188.74-1.60L188.74-1.60Q189.76-2.56 189.76-3.97L189.76-3.97L189.76-31.36L189.76-31.36Q189.76-35.26 189.31-38.34L189.31-38.34L189.18-39.36L189.89-39.30L223.10-8L223.10-34.56L223.10-34.56Q222.98-35.90 221.95-36.83L221.95-36.83L221.95-36.83Q220.93-37.76 219.52-37.76L219.52-37.76L218.43-37.76L218.43-38.40L230.53-38.40L230.53-37.76ZM246.40-36.77L246.40-36.77L246.40-36.77Q251.33-39.30 257.25-39.30L257.25-39.30L257.25-39.30Q263.17-39.30 268.10-36.77L268.10-36.77L268.10-36.77Q273.02-34.24 275.94-29.63L275.94-29.63L275.94-29.63Q278.85-25.02 278.85-19.20L278.85-19.20L278.85-19.20Q278.85-13.38 275.94-8.77L275.94-8.77L275.94-8.77Q273.02-4.16 268.10-1.63L268.10-1.63L268.10-1.63Q263.17 0.90 257.98 0.90L257.98 0.90L257.98 0.90Q252.80 0.90 248.83-0.58L248.83-0.58L248.83-0.58Q244.86-2.05 241.95-4.67L241.95-4.67L241.95-4.67Q239.04-7.30 237.34-11.07L237.34-11.07L237.34-11.07Q235.65-14.85 235.65-19.94L235.65-19.94L235.65-19.94Q235.65-25.02 238.56-29.63L238.56-29.63L238.56-29.63Q241.47-34.24 246.40-36.77ZM245.22-6.11L245.22-6.11L245.22-6.11Q250.05-1.02 257.22-1.02L257.22-1.02L257.22-1.02Q264.38-1.02 269.25-6.11L269.25-6.11L269.25-6.11Q274.11-11.20 274.11-19.20L274.11-19.20L274.11-19.20Q274.11-27.20 269.25-32.29L269.25-32.29L269.25-32.29Q264.38-37.38 257.22-37.38L257.22-37.38L257.22-37.38Q250.05-37.38 245.22-32.29L245.22-32.29L245.22-32.29Q240.38-27.20 240.38-19.20L240.38-19.20L240.38-19.20Q240.38-11.20 245.22-6.11ZM285.70-2.11L285.70-2.11L285.70-2.11Q285.50-2.88 285.50-5.25L285.50-5.25L285.50-5.25Q285.50-7.62 286.34-10.05L286.34-10.05L287.10-10.05L287.10-10.05Q287.04-9.47 287.04-8.90L287.04-8.90L287.04-8.90Q287.04-5.44 289.31-3.23L289.31-3.23L289.31-3.23Q291.58-1.02 295.62-1.02L295.62-1.02L295.62-1.02Q299.84-1.02 302.21-2.98L302.21-2.98L302.21-2.98Q304.58-4.93 304.58-8.03L304.58-8.03L304.58-8.03Q304.58-11.14 302.27-13.18L302.27-13.18L289.47-23.04L289.47-23.04Q286.40-25.66 286.40-30.08L286.40-30.08L286.40-30.08Q286.40-32.58 287.78-34.69L287.78-34.69L287.78-34.69Q289.15-36.80 291.62-38.05L291.62-38.05L291.62-38.05Q294.08-39.30 297.41-39.30L297.41-39.30L297.41-39.30Q300.74-39.30 303.30-38.72L303.30-38.72L305.41-38.72L305.54-31.74L304.83-31.74L304.83-31.74Q304.83-34.43 302.98-35.90L302.98-35.90L302.98-35.90Q301.12-37.38 297.66-37.38L297.66-37.38L297.66-37.38Q294.21-37.38 291.97-35.62L291.97-35.62L291.97-35.62Q289.73-33.86 289.73-31.07L289.73-31.07L289.73-31.07Q289.73-28.29 292.22-26.24L292.22-26.24L305.15-16.26L305.15-16.26Q308.10-13.82 308.10-9.47L308.10-9.47L308.10-9.47Q308.10-5.12 304.80-2.11L304.80-2.11L304.80-2.11Q301.50 0.90 296.77 0.90L296.77 0.90L296.77 0.90Q293.63 0.90 290.50 0.13L290.50 0.13L290.50 0.13Q287.36-0.64 285.70-2.11Z" fill="#774023"></path></g></g><style>text {
  font-size: 64px;
  font-family: Arial Black;
  dominant-baseline: central;
  text-anchor: middle;
}</style></svg>