<svg width="372.16249999999997px" height="137.6px" xmlns="http://www.w3.org/2000/svg" viewBox="63.91875000000002 6.200000000000003 372.16249999999997 137.6" style="background: none;" preserveAspectRatio="xMidYMid"><defs><filter id="editing-extrude-glow"><feFlood flood-color="#cfd7cc" result="flood-1"></feFlood><feMorphology operator="erode" radius="1" in="SourceAlpha" result="erode"></feMorphology><feComposite operator="in" in="flood-1" in2="erode" result="comp1"></feComposite><feConvolveMatrix order="3,3" divisor="1" in="comp1" result="convolve" kernelMatrix="0 0 0 1 1 1 0 0 0"></feConvolveMatrix><feOffset dx="-3" dy="0" in="convolve" result="extrude"></feOffset><feComposite operator="in" in="flood-1" in2="extrude" result="comp-extrude"></feComposite><feFlood flood-color="#f8f9f8" result="flood-2"></feFlood><feComposite operator="in" in="flood-2" in2="SourceAlpha" result="comp2"></feComposite><feMorphology operator="dilate" radius="1" in="comp2" result="dilate"></feMorphology><feOffset dx="-4.5" dy="0" in="dilate" result="offset"></feOffset><feGaussianBlur in="offset" stdDeviation="5.8" result="blur"></feGaussianBlur><feComponentTransfer in="blur" result="shadow"><feFuncA type="linear" slope="0.8" intercept="-0.2"></feFuncA></feComponentTransfer><feMerge><feMergeNode in="shadow"></feMergeNode><feMergeNode in="comp-extrude"></feMergeNode><feMergeNode in="SourceGraphic"></feMergeNode></feMerge></filter></defs><g filter="url(#editing-extrude-glow)"><g transform="translate(120.33498001098633, 97.85000038146973)"><path d="M17.02-42.82L17.02-42.82L12.93-42.82L12.93-4.67L12.93-4.67Q12.93-3.01 14.11-1.82L14.11-1.82L14.11-1.82Q15.30-0.64 17.02-0.64L17.02-0.64L17.79-0.64L17.86 0L3.84 0L3.84-0.64L4.67-0.64L4.67-0.64Q6.34-0.64 7.52-1.79L7.52-1.79L7.52-1.79Q8.70-2.94 8.77-4.61L8.77-4.61L8.77-40.13L8.77-40.13Q8.70-41.79 7.52-42.98L7.52-42.98L7.52-42.98Q6.34-44.16 4.67-44.16L4.67-44.16L3.84-44.16L3.84-44.80L21.12-44.80L21.12-44.80Q26.94-44.80 30.27-41.57L30.27-41.57L30.27-41.57Q33.60-38.34 33.60-33.18L33.60-33.18L33.60-33.18Q33.60-28.03 30.43-24.29L30.43-24.29L30.43-24.29Q27.26-20.54 22.72-20.54L22.72-20.54L22.72-20.54Q23.68-20.10 24.99-18.78L24.99-18.78L24.99-18.78Q26.30-17.47 27.33-16.06L27.33-16.06L27.33-16.06Q32.83-8.19 34.50-6.37L34.50-6.37L34.50-6.37Q36.16-4.54 36.86-3.87L36.86-3.87L36.86-3.87Q37.57-3.20 38.40-2.56L38.40-2.56L38.40-2.56Q39.23-1.92 40.06-1.54L40.06-1.54L40.06-1.54Q41.92-0.64 44.03-0.64L44.03-0.64L44.03 0L40.51 0L40.51 0Q37.76 0 35.39-0.99L35.39-0.99L35.39-0.99Q33.02-1.98 31.84-3.04L31.84-3.04L31.84-3.04Q30.66-4.10 29.79-5.09L29.79-5.09L29.79-5.09Q28.93-6.08 25.02-11.71L25.02-11.71L25.02-11.71Q21.12-17.34 20.48-18.14L20.48-18.14L20.48-18.14Q19.84-18.94 19.14-19.71L19.14-19.71L19.14-19.71Q17.09-21.89 15.04-21.89L15.04-21.89L15.04-22.53L15.04-22.53Q15.55-22.46 16.38-22.46L16.38-22.46L16.38-22.46Q17.22-22.46 18.43-22.53L18.43-22.53L18.43-22.53Q26.37-22.72 28.42-29.18L28.42-29.18L28.42-29.18Q28.80-30.46 28.80-31.58L28.80-31.58L28.80-31.58Q28.80-32.70 28.80-33.02L28.80-33.02L28.80-33.02Q28.67-37.31 26.56-39.94L26.56-39.94L26.56-39.94Q24.45-42.56 20.86-42.75L20.86-42.75L20.86-42.75Q19.33-42.82 17.02-42.82ZM54.08-36.77L54.08-36.77L54.08-36.77Q59.01-39.30 64.93-39.30L64.93-39.30L64.93-39.30Q70.85-39.30 75.78-36.77L75.78-36.77L75.78-36.77Q80.70-34.24 83.62-29.63L83.62-29.63L83.62-29.63Q86.53-25.02 86.53-19.20L86.53-19.20L86.53-19.20Q86.53-13.38 83.62-8.77L83.62-8.77L83.62-8.77Q80.70-4.16 75.78-1.63L75.78-1.63L75.78-1.63Q70.85 0.90 65.66 0.90L65.66 0.90L65.66 0.90Q60.48 0.90 56.51-0.58L56.51-0.58L56.51-0.58Q52.54-2.05 49.63-4.67L49.63-4.67L49.63-4.67Q46.72-7.30 45.02-11.07L45.02-11.07L45.02-11.07Q43.33-14.85 43.33-19.94L43.33-19.94L43.33-19.94Q43.33-25.02 46.24-29.63L46.24-29.63L46.24-29.63Q49.15-34.24 54.08-36.77ZM52.90-6.11L52.90-6.11L52.90-6.11Q57.73-1.02 64.90-1.02L64.90-1.02L64.90-1.02Q72.06-1.02 76.93-6.11L76.93-6.11L76.93-6.11Q81.79-11.20 81.79-19.20L81.79-19.20L81.79-19.20Q81.79-27.20 76.93-32.29L76.93-32.29L76.93-32.29Q72.06-37.38 64.90-37.38L64.90-37.38L64.90-37.38Q57.73-37.38 52.90-32.29L52.90-32.29L52.90-32.29Q48.06-27.20 48.06-19.20L48.06-19.20L48.06-19.20Q48.06-11.20 52.90-6.11ZM93.38-2.11L93.38-2.11L93.38-2.11Q93.18-2.88 93.18-5.25L93.18-5.25L93.18-5.25Q93.18-7.62 94.02-10.05L94.02-10.05L94.78-10.05L94.78-10.05Q94.72-9.47 94.72-8.90L94.72-8.90L94.72-8.90Q94.72-5.44 96.99-3.23L96.99-3.23L96.99-3.23Q99.26-1.02 103.30-1.02L103.30-1.02L103.30-1.02Q107.52-1.02 109.89-2.98L109.89-2.98L109.89-2.98Q112.26-4.93 112.26-8.03L112.26-8.03L112.26-8.03Q112.26-11.14 109.95-13.18L109.95-13.18L97.15-23.04L97.15-23.04Q94.08-25.66 94.08-30.08L94.08-30.08L94.08-30.08Q94.08-32.58 95.46-34.69L95.46-34.69L95.46-34.69Q96.83-36.80 99.30-38.05L99.30-38.05L99.30-38.05Q101.76-39.30 105.09-39.30L105.09-39.30L105.09-39.30Q108.42-39.30 110.98-38.72L110.98-38.72L113.09-38.72L113.22-31.74L112.51-31.74L112.51-31.74Q112.51-34.43 110.66-35.90L110.66-35.90L110.66-35.90Q108.80-37.38 105.34-37.38L105.34-37.38L105.34-37.38Q101.89-37.38 99.65-35.62L99.65-35.62L99.65-35.62Q97.41-33.86 97.41-31.07L97.41-31.07L97.41-31.07Q97.41-28.29 99.90-26.24L99.90-26.24L112.83-16.26L112.83-16.26Q115.78-13.82 115.78-9.47L115.78-9.47L115.78-9.47Q115.78-5.12 112.48-2.11L112.48-2.11L112.48-2.11Q109.18 0.90 104.45 0.90L104.45 0.90L104.45 0.90Q101.31 0.90 98.18 0.13L98.18 0.13L98.18 0.13Q95.04-0.64 93.38-2.11ZM161.47-0.64L161.47-0.64L161.98-0.64L161.98 0L148.86 0L148.86-0.64L149.38-0.64L149.38-0.64Q150.59-0.64 151.23-1.47L151.23-1.47L151.23-1.47Q151.87-2.30 151.87-3.04L151.87-3.04L151.87-3.04Q151.87-3.78 151.62-4.48L151.62-4.48L148.10-12.99L131.90-12.99L128.38-4.67L128.38-4.67Q128.06-3.84 128.06-3.10L128.06-3.10L128.06-3.10Q128.06-2.37 128.70-1.50L128.70-1.50L128.70-1.50Q129.34-0.64 130.62-0.64L130.62-0.64L131.14-0.64L131.14 0L118.91 0L118.91-0.64L119.42-0.64L119.42-0.64Q120.77-0.64 122.14-1.57L122.14-1.57L122.14-1.57Q123.52-2.50 124.42-4.35L124.42-4.35L124.42-4.35Q138.43-34.30 139.01-35.71L139.01-35.71L139.01-35.71Q140.10-38.40 140.16-39.30L140.16-39.30L140.74-39.30L156.54-4.35L156.54-4.35Q158.40-0.64 161.47-0.64ZM140.16-32.45L132.74-14.91L147.33-14.91L140.16-32.45ZM165.18-0.64L166.08-0.64L166.08-0.64Q167.62-0.64 168.67-1.63L168.67-1.63L168.67-1.63Q169.73-2.62 169.79-4.03L169.79-4.03L169.79-34.30L169.79-34.30Q169.73-35.71 168.61-36.74L168.61-36.74L168.61-36.74Q167.49-37.76 165.95-37.76L165.95-37.76L165.18-37.76L165.18-38.40L178.43-38.40L178.43-37.76L177.66-37.76L177.66-37.76Q176.13-37.76 175.01-36.74L175.01-36.74L175.01-36.74Q173.89-35.71 173.89-34.30L173.89-34.30L173.89-1.98L183.87-1.98L183.87-1.98Q186.82-1.98 188.86-3.01L188.86-3.01L188.86-3.01Q190.91-4.03 191.97-5.44L191.97-5.44L191.97-5.44Q193.02-6.85 194.05-9.15L194.05-9.15L194.69-9.15L191.17 0L165.18 0L165.18-0.64ZM197.95-0.64L198.85-0.64L198.85-0.64Q200.38-0.64 201.44-1.63L201.44-1.63L201.44-1.63Q202.50-2.62 202.56-4.03L202.56-4.03L202.56-34.43L202.56-34.43Q202.56-35.84 201.47-36.80L201.47-36.80L201.47-36.80Q200.38-37.76 198.85-37.76L198.85-37.76L197.95-37.76L197.95-38.40L216.64-38.40L216.64-38.40Q219.26-38.40 221.25-38.78L221.25-38.78L221.25-38.78Q223.23-39.17 223.81-39.42L223.81-39.42L223.81-32.13L223.10-32.19L223.10-33.15L223.10-33.15Q223.10-34.50 222.21-35.46L222.21-35.46L222.21-35.46Q221.31-36.42 219.90-36.42L219.90-36.42L206.59-36.42L206.59-20.16L217.54-20.16L217.54-20.16Q218.82-20.16 219.49-20.93L219.49-20.93L219.49-20.93Q220.16-21.70 220.16-22.85L220.16-22.85L220.16-23.68L220.86-23.68L220.86-14.72L220.16-14.72L220.16-15.55L220.16-15.55Q220.16-17.34 218.82-17.98L218.82-17.98L218.82-17.98Q218.30-18.18 217.73-18.24L217.73-18.24L206.59-18.24L206.59-1.98L216.64-1.98L216.64-1.98Q219.58-1.98 221.60-3.01L221.60-3.01L221.60-3.01Q223.62-4.03 224.67-5.44L224.67-5.44L224.67-5.44Q225.73-6.85 226.82-9.15L226.82-9.15L227.46-9.15L223.94 0L197.95 0L197.95-0.64ZM233.09-2.11L233.09-2.11L233.09-2.11Q232.90-2.88 232.90-5.25L232.90-5.25L232.90-5.25Q232.90-7.62 233.73-10.05L233.73-10.05L234.50-10.05L234.50-10.05Q234.43-9.47 234.43-8.90L234.43-8.90L234.43-8.90Q234.43-5.44 236.70-3.23L236.70-3.23L236.70-3.23Q238.98-1.02 243.01-1.02L243.01-1.02L243.01-1.02Q247.23-1.02 249.60-2.98L249.60-2.98L249.60-2.98Q251.97-4.93 251.97-8.03L251.97-8.03L251.97-8.03Q251.97-11.14 249.66-13.18L249.66-13.18L236.86-23.04L236.86-23.04Q233.79-25.66 233.79-30.08L233.79-30.08L233.79-30.08Q233.79-32.58 235.17-34.69L235.17-34.69L235.17-34.69Q236.54-36.80 239.01-38.05L239.01-38.05L239.01-38.05Q241.47-39.30 244.80-39.30L244.80-39.30L244.80-39.30Q248.13-39.30 250.69-38.72L250.69-38.72L252.80-38.72L252.93-31.74L252.22-31.74L252.22-31.74Q252.22-34.43 250.37-35.90L250.37-35.90L250.37-35.90Q248.51-37.38 245.06-37.38L245.06-37.38L245.06-37.38Q241.60-37.38 239.36-35.62L239.36-35.62L239.36-35.62Q237.12-33.86 237.12-31.07L237.12-31.07L237.12-31.07Q237.12-28.29 239.62-26.24L239.62-26.24L252.54-16.26L252.54-16.26Q255.49-13.82 255.49-9.47L255.49-9.47L255.49-9.47Q255.49-5.12 252.19-2.11L252.19-2.11L252.19-2.11Q248.90 0.90 244.16 0.90L244.16 0.90L244.16 0.90Q241.02 0.90 237.89 0.13L237.89 0.13L237.89 0.13Q234.75-0.64 233.09-2.11Z" fill="#80a352"></path></g></g><style>text {
  font-size: 64px;
  font-family: Arial Black;
  dominant-baseline: central;
  text-anchor: middle;
}</style></svg>