<svg width="185.09375px" height="75.19999999999999px" xmlns="http://www.w3.org/2000/svg" viewBox="157.453125 37.400000000000006 185.09375 75.19999999999999" style="background: none;" preserveAspectRatio="xMidYMid"><defs><filter id="editing-hover" x="-100%" y="-100%" width="300%" height="300%"><feFlood flood-color="#d88c51" result="flood"></feFlood><feComposite operator="in" in2="SourceAlpha" in="flood" result="shadow"></feComposite><feOffset dx="-0.6" dy="0" in="SourceGraphic" result="offset-1"></feOffset><feOffset dx="0.6" dy="0" in="shadow" result="offset-2"></feOffset><feMerge><feMergeNode in="offset-2"></feMergeNode><feMergeNode in="offset-1"></feMergeNode></feMerge></filter></defs><g filter="url(#editing-hover)"><g transform="translate(189.22000432014465, 85.71000003814697)"><path d="M7.98-20.07L7.98-20.07L6.06-20.07L6.06-2.19L6.06-2.19Q6.06-1.41 6.61-0.85L6.61-0.85L6.61-0.85Q7.17-0.30 7.98-0.30L7.98-0.30L8.34-0.30L8.37 0L1.80 0L1.80-0.30L2.19-0.30L2.19-0.30Q2.97-0.30 3.52-0.84L3.52-0.84L3.52-0.84Q4.08-1.38 4.11-2.16L4.11-2.16L4.11-18.81L4.11-18.81Q4.08-19.59 3.52-20.14L3.52-20.14L3.52-20.14Q2.97-20.70 2.19-20.70L2.19-20.70L1.80-20.70L1.80-21L9.90-21L9.90-21Q12.63-21 14.19-19.48L14.19-19.48L14.19-19.48Q15.75-17.97 15.75-15.55L15.75-15.55L15.75-15.55Q15.75-13.14 14.26-11.38L14.26-11.38L14.26-11.38Q12.78-9.63 10.65-9.63L10.65-9.63L10.65-9.63Q11.10-9.42 11.71-8.80L11.71-8.80L11.71-8.80Q12.33-8.19 12.81-7.53L12.81-7.53L12.81-7.53Q15.39-3.84 16.17-2.98L16.17-2.98L16.17-2.98Q16.95-2.13 17.28-1.81L17.28-1.81L17.28-1.81Q17.61-1.50 18-1.20L18-1.20L18-1.20Q18.39-0.90 18.78-0.72L18.78-0.72L18.78-0.72Q19.65-0.30 20.64-0.30L20.64-0.30L20.64 0L18.99 0L18.99 0Q17.70 0 16.59-0.46L16.59-0.46L16.59-0.46Q15.48-0.93 14.92-1.43L14.92-1.43L14.92-1.43Q14.37-1.92 13.96-2.38L13.96-2.38L13.96-2.38Q13.56-2.85 11.73-5.49L11.73-5.49L11.73-5.49Q9.90-8.13 9.60-8.50L9.60-8.50L9.60-8.50Q9.30-8.88 8.97-9.24L8.97-9.24L8.97-9.24Q8.01-10.26 7.05-10.26L7.05-10.26L7.05-10.56L7.05-10.56Q7.29-10.53 7.68-10.53L7.68-10.53L7.68-10.53Q8.07-10.53 8.64-10.56L8.64-10.56L8.64-10.56Q12.36-10.65 13.32-13.68L13.32-13.68L13.32-13.68Q13.50-14.28 13.50-14.80L13.50-14.80L13.50-14.80Q13.50-15.33 13.50-15.48L13.50-15.48L13.50-15.48Q13.44-17.49 12.45-18.72L12.45-18.72L12.45-18.72Q11.46-19.95 9.78-20.04L9.78-20.04L9.78-20.04Q9.06-20.07 7.98-20.07ZM25.35-17.23L25.35-17.23L25.35-17.23Q27.66-18.42 30.43-18.42L30.43-18.42L30.43-18.42Q33.21-18.42 35.52-17.23L35.52-17.23L35.52-17.23Q37.83-16.05 39.19-13.89L39.19-13.89L39.19-13.89Q40.56-11.73 40.56-9L40.56-9L40.56-9Q40.56-6.27 39.19-4.11L39.19-4.11L39.19-4.11Q37.83-1.95 35.52-0.77L35.52-0.77L35.52-0.77Q33.21 0.42 30.78 0.42L30.78 0.42L30.78 0.42Q28.35 0.42 26.49-0.27L26.49-0.27L26.49-0.27Q24.63-0.96 23.27-2.19L23.27-2.19L23.27-2.19Q21.90-3.42 21.10-5.19L21.10-5.19L21.10-5.19Q20.31-6.96 20.31-9.34L20.31-9.34L20.31-9.34Q20.31-11.73 21.67-13.89L21.67-13.89L21.67-13.89Q23.04-16.05 25.35-17.23ZM24.79-2.86L24.79-2.86L24.79-2.86Q27.06-0.48 30.42-0.48L30.42-0.48L30.42-0.48Q33.78-0.48 36.06-2.86L36.06-2.86L36.06-2.86Q38.34-5.25 38.34-9L38.34-9L38.34-9Q38.34-12.75 36.06-15.13L36.06-15.13L36.06-15.13Q33.78-17.52 30.42-17.52L30.42-17.52L30.42-17.52Q27.06-17.52 24.79-15.13L24.79-15.13L24.79-15.13Q22.53-12.75 22.53-9L22.53-9L22.53-9Q22.53-5.25 24.79-2.86ZM43.77-0.99L43.77-0.99L43.77-0.99Q43.68-1.35 43.68-2.46L43.68-2.46L43.68-2.46Q43.68-3.57 44.07-4.71L44.07-4.71L44.43-4.71L44.43-4.71Q44.40-4.44 44.40-4.17L44.40-4.17L44.40-4.17Q44.40-2.55 45.47-1.51L45.47-1.51L45.47-1.51Q46.53-0.48 48.42-0.48L48.42-0.48L48.42-0.48Q50.40-0.48 51.51-1.40L51.51-1.40L51.51-1.40Q52.62-2.31 52.62-3.76L52.62-3.76L52.62-3.76Q52.62-5.22 51.54-6.18L51.54-6.18L45.54-10.80L45.54-10.80Q44.10-12.03 44.10-14.10L44.10-14.10L44.10-14.10Q44.10-15.27 44.75-16.26L44.75-16.26L44.75-16.26Q45.39-17.25 46.55-17.84L46.55-17.84L46.55-17.84Q47.70-18.42 49.26-18.42L49.26-18.42L49.26-18.42Q50.82-18.42 52.02-18.15L52.02-18.15L53.01-18.15L53.07-14.88L52.74-14.88L52.74-14.88Q52.74-16.14 51.87-16.83L51.87-16.83L51.87-16.83Q51-17.52 49.38-17.52L49.38-17.52L49.38-17.52Q47.76-17.52 46.71-16.70L46.71-16.70L46.71-16.70Q45.66-15.87 45.66-14.56L45.66-14.56L45.66-14.56Q45.66-13.26 46.83-12.30L46.83-12.30L52.89-7.62L52.89-7.62Q54.27-6.48 54.27-4.44L54.27-4.44L54.27-4.44Q54.27-2.40 52.73-0.99L52.73-0.99L52.73-0.99Q51.18 0.42 48.96 0.42L48.96 0.42L48.96 0.42Q47.49 0.42 46.02 0.06L46.02 0.06L46.02 0.06Q44.55-0.30 43.77-0.99ZM75.69-0.30L75.69-0.30L75.93-0.30L75.93 0L69.78 0L69.78-0.30L70.02-0.30L70.02-0.30Q70.59-0.30 70.89-0.69L70.89-0.69L70.89-0.69Q71.19-1.08 71.19-1.43L71.19-1.43L71.19-1.43Q71.19-1.77 71.07-2.10L71.07-2.10L69.42-6.09L61.83-6.09L60.18-2.19L60.18-2.19Q60.03-1.80 60.03-1.45L60.03-1.45L60.03-1.45Q60.03-1.11 60.33-0.70L60.33-0.70L60.33-0.70Q60.63-0.30 61.23-0.30L61.23-0.30L61.47-0.30L61.47 0L55.74 0L55.74-0.30L55.98-0.30L55.98-0.30Q56.61-0.30 57.26-0.73L57.26-0.73L57.26-0.73Q57.90-1.17 58.32-2.04L58.32-2.04L58.32-2.04Q64.89-16.08 65.16-16.74L65.16-16.74L65.16-16.74Q65.67-18 65.70-18.42L65.70-18.42L65.97-18.42L73.38-2.04L73.38-2.04Q74.25-0.30 75.69-0.30ZM65.70-15.21L62.22-6.99L69.06-6.99L65.70-15.21ZM77.43-0.30L77.85-0.30L77.85-0.30Q78.57-0.30 79.06-0.77L79.06-0.77L79.06-0.77Q79.56-1.23 79.59-1.89L79.59-1.89L79.59-16.08L79.59-16.08Q79.56-16.74 79.03-17.22L79.03-17.22L79.03-17.22Q78.51-17.70 77.79-17.70L77.79-17.70L77.43-17.70L77.43-18L83.64-18L83.64-17.70L83.28-17.70L83.28-17.70Q82.56-17.70 82.03-17.22L82.03-17.22L82.03-17.22Q81.51-16.74 81.51-16.08L81.51-16.08L81.51-0.93L86.19-0.93L86.19-0.93Q87.57-0.93 88.53-1.41L88.53-1.41L88.53-1.41Q89.49-1.89 89.98-2.55L89.98-2.55L89.98-2.55Q90.48-3.21 90.96-4.29L90.96-4.29L91.26-4.29L89.61 0L77.43 0L77.43-0.30ZM92.79-0.30L93.21-0.30L93.21-0.30Q93.93-0.30 94.42-0.77L94.42-0.77L94.42-0.77Q94.92-1.23 94.95-1.89L94.95-1.89L94.95-16.14L94.95-16.14Q94.95-16.80 94.44-17.25L94.44-17.25L94.44-17.25Q93.93-17.70 93.21-17.70L93.21-17.70L92.79-17.70L92.79-18L101.55-18L101.55-18Q102.78-18 103.71-18.18L103.71-18.18L103.71-18.18Q104.64-18.36 104.91-18.48L104.91-18.48L104.91-15.06L104.58-15.09L104.58-15.54L104.58-15.54Q104.58-16.17 104.16-16.62L104.16-16.62L104.16-16.62Q103.74-17.07 103.08-17.07L103.08-17.07L96.84-17.07L96.84-9.45L101.97-9.45L101.97-9.45Q102.57-9.45 102.89-9.81L102.89-9.81L102.89-9.81Q103.20-10.17 103.20-10.71L103.20-10.71L103.20-11.10L103.53-11.10L103.53-6.90L103.20-6.90L103.20-7.29L103.20-7.29Q103.20-8.13 102.57-8.43L102.57-8.43L102.57-8.43Q102.33-8.52 102.06-8.55L102.06-8.55L96.84-8.55L96.84-0.93L101.55-0.93L101.55-0.93Q102.93-0.93 103.88-1.41L103.88-1.41L103.88-1.41Q104.82-1.89 105.31-2.55L105.31-2.55L105.31-2.55Q105.81-3.21 106.32-4.29L106.32-4.29L106.62-4.29L104.97 0L92.79 0L92.79-0.30ZM109.26-0.99L109.26-0.99L109.26-0.99Q109.17-1.35 109.17-2.46L109.17-2.46L109.17-2.46Q109.17-3.57 109.56-4.71L109.56-4.71L109.92-4.71L109.92-4.71Q109.89-4.44 109.89-4.17L109.89-4.17L109.89-4.17Q109.89-2.55 110.95-1.51L110.95-1.51L110.95-1.51Q112.02-0.48 113.91-0.48L113.91-0.48L113.91-0.48Q115.89-0.48 117-1.40L117-1.40L117-1.40Q118.11-2.31 118.11-3.76L118.11-3.76L118.11-3.76Q118.11-5.22 117.03-6.18L117.03-6.18L111.03-10.80L111.03-10.80Q109.59-12.03 109.59-14.10L109.59-14.10L109.59-14.10Q109.59-15.27 110.23-16.26L110.23-16.26L110.23-16.26Q110.88-17.25 112.03-17.84L112.03-17.84L112.03-17.84Q113.19-18.42 114.75-18.42L114.75-18.42L114.75-18.42Q116.31-18.42 117.51-18.15L117.51-18.15L118.50-18.15L118.56-14.88L118.23-14.88L118.23-14.88Q118.23-16.14 117.36-16.83L117.36-16.83L117.36-16.83Q116.49-17.52 114.87-17.52L114.87-17.52L114.87-17.52Q113.25-17.52 112.20-16.70L112.20-16.70L112.20-16.70Q111.15-15.87 111.15-14.56L111.15-14.56L111.15-14.56Q111.15-13.26 112.32-12.30L112.32-12.30L118.38-7.62L118.38-7.62Q119.76-6.48 119.76-4.44L119.76-4.44L119.76-4.44Q119.76-2.40 118.22-0.99L118.22-0.99L118.22-0.99Q116.67 0.42 114.45 0.42L114.45 0.42L114.45 0.42Q112.98 0.42 111.51 0.06L111.51 0.06L111.51 0.06Q110.04-0.30 109.26-0.99Z" fill="#774023"></path></g></g><style>text {
  font-size: 64px;
  font-family: Arial Black;
  dominant-baseline: central;
  text-anchor: middle;
}</style></svg>