<svg width="98.41279296875px" height="92.8000015258789px" xmlns="http://www.w3.org/2000/svg" viewBox="200.793603515625 28.59999923706055 98.41279296875 92.8000015258789" style="background: none;" preserveAspectRatio="xMidYMid"><defs><filter id="editing-hole" x="-100%" y="-100%" width="300%" height="300%"><feFlood flood-color="#d88c51" result="black"></feFlood><feMorphology operator="dilate" radius="2" in="SourceGraphic" result="erode"></feMorphology><feGaussianBlur in="erode" stdDeviation="4" result="blur"></feGaussianBlur><feOffset in="blur" dx="2" dy="2" result="offset"></feOffset><feComposite operator="atop" in="offset" in2="black" result="merge"></feComposite><feComposite operator="in" in="merge" in2="SourceGraphic" result="inner-shadow"></feComposite></filter></defs><g filter="url(#editing-hole)"><g transform="translate(222.15770760178566, 89.2799940109253)"><path d="M26.36-0.40L26.36-0.40L26.92-0.40L26.92 0L17.16 0L17.16-0.40L17.64-0.40L17.64-0.40Q18.52-0.40 19-1.20L19-1.20L19-1.20Q19.28-1.64 19.28-2.04L19.28-2.04L19.28-2.04Q19.28-2.44 19.08-2.84L19.08-2.84L12.92-12.56L6.76-2.88L6.76-2.88Q6.52-2.48 6.52-2.06L6.52-2.06L6.52-2.06Q6.52-1.64 6.80-1.24L6.80-1.24L6.80-1.24Q7.32-0.40 8.16-0.40L8.16-0.40L8.68-0.40L8.68 0L-0.40 0L-0.40-0.40L0.16-0.40L0.16-0.40Q1.36-0.40 2.44-1.08L2.44-1.08L2.44-1.08Q3.52-1.76 4.24-2.76L4.24-2.76L11.88-14.16L4.88-25.24L4.88-25.24Q3.92-26.64 2.44-27.28L2.44-27.28L2.44-27.28Q1.64-27.60 0.84-27.60L0.84-27.60L0.28-27.60L0.28-28L9.96-28L9.96-27.60L9.48-27.60L9.48-27.60Q8.64-27.60 8.12-26.80L8.12-26.80L8.12-26.80Q7.84-26.36 7.84-25.96L7.84-25.96L7.84-25.96Q7.84-25.56 8.04-25.16L8.04-25.16L13.56-16.52L19-25.12L19-25.12Q19.24-25.52 19.24-25.94L19.24-25.94L19.24-25.94Q19.24-26.36 19-26.76L19-26.76L19-26.76Q18.52-27.60 17.64-27.60L17.64-27.60L17.16-27.60L17.16-28L26.16-28L26.16-27.60L25.60-27.60L25.60-27.60Q24.40-27.60 23.34-26.92L23.34-26.92L23.34-26.92Q22.28-26.24 21.56-25.24L21.56-25.24L14.56-14.92L22.32-2.72L22.32-2.72Q23.28-1.36 24.76-0.72L24.76-0.72L24.76-0.72Q25.56-0.40 26.36-0.40ZM56.48-28L56.48-27.60L56.12-27.60L56.12-27.60Q54.76-27.60 53.64-26.52L53.64-26.52L53.64-26.52Q53-25.96 52.64-25.12L52.64-25.12L43-3.56L43-3.56Q41.52-0.32 41.52 0.56L41.52 0.56L41.16 0.56L29.92-25.08L29.92-25.08Q29.36-26.36 28.38-26.98L28.38-26.98L28.38-26.98Q27.40-27.60 26.40-27.60L26.40-27.60L26.08-27.60L26.08-28L35.08-28L35.08-27.60L34.72-27.60L34.72-27.60Q33.52-27.60 33.12-26.48L33.12-26.48L33.12-26.48Q33.04-26.24 33.04-25.92L33.04-25.92L33.04-25.92Q33.04-25.60 33.24-25.12L33.24-25.12L41.60-4.16L50.32-25.12L50.32-25.12Q50.48-25.60 50.48-26.06L50.48-26.06L50.48-26.06Q50.48-26.52 50.06-27.06L50.06-27.06L50.06-27.06Q49.64-27.60 48.80-27.60L48.80-27.60L48.44-27.60L48.44-28L56.48-28Z" fill="#774023"></path></g></g><style>text {
  font-size: 64px;
  font-family: Arial Black;
  dominant-baseline: central;
  text-anchor: middle;
}</style></svg>